<svg xmlns="http://www.w3.org/2000/svg" xmlns:xlink="http://www.w3.org/1999/xlink" viewBox="0 0 1359.99 1606.11"><defs><style>.cls-1{isolation:isolate;}.cls-2{opacity:0.54;}.cls-3{fill:#e1d2f4;}.cls-4{fill:#f1f0f2;}.cls-5{opacity:0.44;}.cls-6{fill:url(#Degradado_sin_nombre_15);}.cls-7{fill:#bdacd8;}.cls-8{opacity:0.15;mix-blend-mode:multiply;}.cls-10,.cls-9{fill:#3b3b3b;}.cls-10,.cls-19{opacity:0.41;}.cls-11{fill:#7caaff;}.cls-12{fill:#241352;}.cls-13{fill:#ffaea6;}.cls-14{fill:#5f2d8f;}.cls-15{fill:#fac480;}.cls-16{fill:#6f35a4;}.cls-17{fill:#9b8abe;}.cls-18,.cls-19{fill:#fff;}.cls-20{fill:#e3b0ec;}.cls-21{fill:#002c68;}.cls-22{opacity:0.28;}.cls-23{opacity:0.12;}.cls-24{fill:#6042dc;}.cls-25{fill:#fbf1fc;}.cls-26{fill:#7e2e83;}.cls-27{fill:#ff7180;}.cls-28{fill:#ff947e;}</style><linearGradient id="Degradado_sin_nombre_15" x1="-308.04" y1="65.18" x2="279.73" y2="65.18" gradientUnits="userSpaceOnUse"><stop offset="0.05" stop-color="#a568fa"/><stop offset="1" stop-color="#00d8fb"/></linearGradient></defs><title>img1</title><g class="cls-1"><g id="Layer_1" data-name="Layer 1"><g class="cls-2"><path class="cls-3" d="M200,783.06c-72-24.27-134.46-84.6-147.24-159.5S87.21,464.23,161.43,448c35.1-7.68,73-.82,106.52-13.71,63.24-24.32,84.73-106.59,143.16-140.9,56.29-33.05,133.47-9.21,175.41,40.82s54.17,119.06,51.6,184.3c-3.78,95.83-44.5,199.19-131.43,239.71C433.44,792.36,278.56,802,200,783.06" transform="translate(308.04 192.08)"/></g><rect class="cls-4" x="308.04" y="192.08" width="750" height="1334"/><g class="cls-5"><path class="cls-6" d="M-158.71,312.87c-72-24.28-134.46-84.61-147.24-159.51S-271.5-6-197.28-22.21c35.1-7.67,73-.82,106.52-13.71C-27.52-60.24-6-142.51,52.4-176.82,108.69-209.87,185.87-186,227.81-136S282-16.93,279.41,48.3C275.63,144.13,234.91,247.49,148,288c-73.25,34.15-228.13,43.83-306.69,24.86" transform="translate(308.04 192.08)"/></g><path class="cls-3" d="M613.51,1404.45c-72-24.28-134.45-84.6-147.24-159.5S500.72,1085.62,575,1069.38c35.09-7.68,73-.82,106.51-13.72,63.24-24.31,84.73-106.58,143.16-140.89,56.29-33.06,133.47-9.22,175.41,40.81s54.17,119.07,51.6,184.3c-3.78,95.84-44.5,199.19-131.43,239.72-73.25,34.14-228.13,43.82-306.69,24.85" transform="translate(308.04 192.08)"/><path class="cls-7" d="M115.39,768.91c15.92,25.3,48.71,34.79,78.59,34.19s59.1-9.15,88.94-10.88c47.3-2.74,93.64,11.64,140.13,20.74s97.3,12.36,138.75-10.55c10.15-5.61,20-13.28,24.06-24.12s.39-25.24-10.3-29.72c-4.15-1.73-8.76-1.84-13.25-1.93L263.53,741.1c-50.7-.94-106.58-.07-144.62,33.46" transform="translate(308.04 192.08)"/><circle class="cls-3" cx="653" cy="976.23" r="50.76" transform="translate(-139.11 1579.55) rotate(-76.72)"/><g class="cls-8"><path class="cls-9" d="M535.47,464.82c-5.3,5.22-6.76,13.84-1.74,19.84,4.78,5.71,14.07,7,20,2.33a15,15,0,0,0,3.85-18.84c-4-7-12.88-9.73-20.49-8.6-.84.13-.65,1.55.2,1.49,5.93-.38,12.32.68,16.74,5a13,13,0,0,1-18.29,18.6c-5.39-5.16-4.8-14.19.27-19.29.34-.34-.19-.86-.53-.53Z" transform="translate(308.04 192.08)"/><path class="cls-9" d="M138.55,406.31a19.78,19.78,0,0,0-27.9,18.82c.21,5.24,2.3,11.2-1,15.25-2.58,3.13-7.17,3.42-10.87,5.09-7,3.18-10.51,12.46-7.32,19.47,1.73,3.8,5.15,7.29,4.5,11.41-.42,2.67-2.54,4.78-4.88,6.12s-5,2.1-7.39,3.29c-8.84,4.32-14.21,14.37-14,24.21s5.67,19.17,13.43,25.22,17.67,9,27.5,9.35,20.17-1.94,27.69-8.32c5.64-4.79,9.32-11.5,12-18.38a91.86,91.86,0,0,0,6.07-41.4c-1.24-14.55-5.94-28.65-7-43.22-.34-4.88-.28-9.83-1.36-14.6s-3.53-9.48-7.72-12" transform="translate(308.04 192.08)"/><path class="cls-9" d="M136.31,408.19a43.53,43.53,0,0,1,29.34-23.26c7.75-1.72,16.25-1.14,23.06,2.94s11.52,12,10.48,19.91c-.64,4.86-3.28,9.2-5,13.82s-2.22,10.24.89,14c2.79,3.41,7.59,4.24,11.4,6.45a17.09,17.09,0,0,1-1.75,30.49,20.56,20.56,0,0,1,17.64,25.1c-1.89,8.06-8.44,14.23-15.48,18.58a68.23,68.23,0,0,1-32.62,10.07c-12.2.55-25.71-3.06-32.34-13.31-4.36-6.73-5-15.12-5.51-23.13C135,465.73,134,441.55,133,417.37c-.16-3.89-.32-7.84.6-11.63" transform="translate(308.04 192.08)"/><path class="cls-9" d="M177.34,517.33l109.35,41-10.44-44.16,28.44-7.23s30.59,86.33,9.35,88.64c-37.19,4-93.47-10.68-93.47-10.68Z" transform="translate(308.04 192.08)"/><path class="cls-9" d="M167.78,705.75S299.89,561.55,389.07,593,515.91,771.38,515.91,771.38l-71-1.15S388.78,659.3,361.4,663.6,249.48,773.48,249.48,773.48Z" transform="translate(308.04 192.08)"/><path class="cls-9" d="M209.58,618.21l5.48,84.6c-28.47,35-127.61-10.26-127.61-10.26l-1.16-35.37L84,572.93c2.28-33.55,33.44-50,33.44-50,12.88-6.42,32.53-10.07,50.23-9.19,18.48.91,23.05,9.76,30.66,26.62C204.47,554,221.15,576.16,209.58,618.21Z" transform="translate(308.04 192.08)"/><path class="cls-9" d="M106,708.49S90.81,770.21,137,779.93s216.17-13,260.44-9.13S567.63,782,567.63,782l9.22-73.28s-195.91-9.39-218.06-3.89S106,708.49,106,708.49Z" transform="translate(308.04 192.08)"/><path class="cls-9" d="M128.13,600.6s-13.85,81.66,5.69,79.65c64.27-6.61,102.55-7.5,102.55-7.5L247,694.87c.25,3.77-121.72,38.69-141.32,27.14-13.84-8.15-35.89-30.1-25.88-95.72l2.36-22Z" transform="translate(308.04 192.08)"/><polygon class="cls-9" points="494.17 909.91 494.04 904.44 574.72 893.05 596.13 818.16 685.51 815.99 661.39 897.05 494.17 909.91"/><path class="cls-9" d="M331.16,661.58a6.62,6.62,0,1,1-6.78-6.46A6.63,6.63,0,0,1,331.16,661.58Z" transform="translate(308.04 192.08)"/><path class="cls-10" d="M333.8,661.51a9.26,9.26,0,1,1-9.48-9A9.26,9.26,0,0,1,333.8,661.51Z" transform="translate(308.04 192.08)"/><path class="cls-9" d="M92.78,546.44s-15,14.4-18.35,68.88l58-6.43S142.13,516.11,92.78,546.44Z" transform="translate(308.04 192.08)"/><path class="cls-9" d="M518.75,382.62s20.57,46.2,26.3,43.77S603.92,391,603.92,391s-21.78-41.36-26.31-43.78S518.75,382.62,518.75,382.62Z" transform="translate(308.04 192.08)"/><path class="cls-9" d="M577.61,347.24a.76.76,0,0,1-.05.23l-.22.64-.86,2.43c-.79,2.16-1.9,5.2-3.27,8.93-2.83,7.56-6.7,17.93-11,29.39l-.31.83-.08.2-.21,0-30.38-5-9.16-1.57-2.48-.46a4.16,4.16,0,0,1-.86-.19s.3,0,.87.09l2.5.36,9.19,1.41,30.41,4.86-.29.17c.1-.27.21-.55.31-.83,4.34-11.44,8.26-21.79,11.12-29.34,1.44-3.71,2.6-6.73,3.43-8.87l1-2.4c.1-.25.19-.45.26-.62A.93.93,0,0,1,577.61,347.24Z" transform="translate(308.04 192.08)"/><path class="cls-9" d="M538.29,421a7.19,7.19,0,0,1,.21-1.35c.17-.86.44-2.09.78-3.62.69-3.05,1.72-7.26,3-11.86s2.5-8.76,3.45-11.74c.48-1.49.88-2.69,1.17-3.52a6.89,6.89,0,0,1,.5-1.26,5.94,5.94,0,0,1-.3,1.32c-.27.94-.61,2.14-1,3.57-.87,3-2.06,7.16-3.31,11.76s-2.34,8.79-3.12,11.82c-.38,1.43-.69,2.64-.94,3.58A6.16,6.16,0,0,1,538.29,421Z" transform="translate(308.04 192.08)"/><path class="cls-9" d="M600.41,381.83c0,.14-7.38-.91-16.44-2.34s-16.38-2.72-16.36-2.86,7.38.91,16.44,2.34S600.43,381.68,600.41,381.83Z" transform="translate(308.04 192.08)"/><path class="cls-9" d="M121.84,432.25l1.31,17.3s-14.7,2-10.51,15.39,14.25,7.55,14.25,7.55,2.51,34.37,37.72,23.47c28-8.68,26.31-45,22.75-75.89a20.7,20.7,0,0,0-24.55-17.92l-21.17,4.12A24.57,24.57,0,0,0,121.84,432.25Z" transform="translate(308.04 192.08)"/><path class="cls-9" d="M123.15,463.9l9.49,50.59a20.29,20.29,0,0,0,24.65,16h0a20.29,20.29,0,0,0,15.27-23.29l-5.15-29Z" transform="translate(308.04 192.08)"/><path class="cls-9" d="M162.1,464.47s.08.1.21.28a1.41,1.41,0,0,0,.77.52c.81.24,2.08-.57,2.4-2.09a16.23,16.23,0,0,0,.13-5.42c-.13-2.08-.28-4.36-.44-6.74-.3-4.79-.54-9.12-.69-12.26q-.09-2.25-.15-3.72a7.26,7.26,0,0,1,0-1.37,6.69,6.69,0,0,1,.19,1.35c.08,1,.19,2.23.32,3.71.24,3.14.54,7.47.84,12.26.14,2.38.28,4.66.4,6.74a15.88,15.88,0,0,1-.26,5.56,3.32,3.32,0,0,1-1.18,1.83,1.88,1.88,0,0,1-1.62.35,1.45,1.45,0,0,1-.81-.66C162.11,464.6,162.08,464.48,162.1,464.47Z" transform="translate(308.04 192.08)"/><path class="cls-9" d="M173.52,492.43a6.7,6.7,0,0,1-1.09.9,26.25,26.25,0,0,1-3.28,2,27.93,27.93,0,0,1-24.66.52,24.55,24.55,0,0,1-3.37-1.88,5.83,5.83,0,0,1-1.12-.86c.05-.09,1.68,1.12,4.64,2.4A28.93,28.93,0,0,0,169,495C171.88,493.61,173.46,492.34,173.52,492.43Z" transform="translate(308.04 192.08)"/><path class="cls-9" d="M166.64,471.57s-.12.25-.45.61a7.36,7.36,0,0,1-1.62,1.3,8.1,8.1,0,0,1-11.68-3.75,7.17,7.17,0,0,1-.56-2,1.87,1.87,0,0,1,0-.77,16.2,16.2,0,0,0,.9,2.61,8.05,8.05,0,0,0,11.17,3.59A18.83,18.83,0,0,0,166.64,471.57Z" transform="translate(308.04 192.08)"/><path class="cls-9" d="M122,466.62s-.2.07-.58.06a4.31,4.31,0,0,1-1.58-.34,3,3,0,0,1-1.68-1.75,2.42,2.42,0,0,1,0-1.51,1.85,1.85,0,0,1,1.13-1.2,1.77,1.77,0,0,1,2.16.61l-.44.23a31.23,31.23,0,0,1-1.9-4.9,32.21,32.21,0,0,1,2.35,4.7l-.44.23a1.28,1.28,0,0,0-1.55-.38,1.59,1.59,0,0,0-.81,2.07A2.7,2.7,0,0,0,120,466,13.09,13.09,0,0,0,122,466.62Z" transform="translate(308.04 192.08)"/><path class="cls-9" d="M176.2,442.35a15.53,15.53,0,0,1-1.25-5.53,15.53,15.53,0,0,1,1.25,5.53Z" transform="translate(308.04 192.08)"/><path class="cls-9" d="M146.39,445.12a16,16,0,0,1-1.54-5.54,16,16,0,0,1,1.54,5.54Z" transform="translate(308.04 192.08)"/><path class="cls-9" d="M149.15,432.53a16.79,16.79,0,0,0-3.7.3,16.44,16.44,0,0,0-3.37,1.56,5.16,5.16,0,0,1,3.24-2.07A5.24,5.24,0,0,1,149.15,432.53Z" transform="translate(308.04 192.08)"/><path class="cls-9" d="M179.59,427.71a22,22,0,0,0-4.07-.28,21.83,21.83,0,0,0-4,1,6.34,6.34,0,0,1,3.92-1.5A6.26,6.26,0,0,1,179.59,427.71Z" transform="translate(308.04 192.08)"/><path class="cls-9" d="M123.15,449.55c9.83-9.58,12.72-25.55,15.38-39a34.41,34.41,0,0,0,32.12,4.18,51.76,51.76,0,0,0,11.44,10c1.21.78,2.66,1.53,4,1.12,1.65-.5,2.38-2.39,2.78-4.07a28.88,28.88,0,0,0-.58-16.3,19.58,19.58,0,0,0-10.94-11.73c-5.49-2.13-11.68-1.21-17.38.27a97.05,97.05,0,0,0-24.55,10.14c-7.52,4.41-14.74,10.24-17.93,18.35s-3.18,23.87,4.51,28" transform="translate(308.04 192.08)"/><path class="cls-9" d="M163.27,473.44c0,.36-.39.74-1.17,1a6.66,6.66,0,0,1-5.89-1.25c-.61-.54-.84-1.07-.66-1.38.39-.61,2.07-.23,4,.16S163.15,472.72,163.27,473.44Z" transform="translate(308.04 192.08)"/><path class="cls-9" d="M151,457.39c.12.69-3.32,1.89-7.76,2.09s-8-.68-7.91-1.38,3.55-1,7.8-1.22S150.89,456.67,151,457.39Z" transform="translate(308.04 192.08)"/><path class="cls-9" d="M188.25,454.35c.14.69-2.9,1.89-6.85,2.09s-7.1-.67-7-1.38,3.15-1,6.89-1.22S188.11,453.63,188.25,454.35Z" transform="translate(308.04 192.08)"/><path class="cls-9" d="M122.75,495.32a27.89,27.89,0,0,1-.17-3.64c-.06-2.24-.15-5.35-.32-8.77s-.41-6.52-.58-8.76a28.84,28.84,0,0,1-.21-3.64,3.41,3.41,0,0,1,.21,1c.11.62.23,1.52.36,2.64.27,2.24.56,5.34.74,8.77s.21,6.55.17,8.8c0,1.13,0,2-.09,2.67A4,4,0,0,1,122.75,495.32Z" transform="translate(308.04 192.08)"/><path class="cls-9" d="M181.17,517c-9.52-3.78,63.67,23.39,63.67,23.39l-7.42,50.06-27.84-9.13Z" transform="translate(308.04 192.08)"/><path class="cls-9" d="M137.62,403.7a15.18,15.18,0,0,0,2-12c-.84-3.33-3.35-6.63-6.78-6.8a7.41,7.41,0,0,0-5.27,2.17,10.83,10.83,0,0,0,10.3,18.37" transform="translate(308.04 192.08)"/><path class="cls-9" d="M574.89,724.34s23.8-34.13,20.9-21.21-27.08,70.35-27.08,70.35Z" transform="translate(308.04 192.08)"/><path class="cls-9" d="M229.61,672.76s31.45-9.87,30.37-6.63-6.43,3.37-11.78,8.6c0,0,35.16.39,33.47,3.28s-24.58,3.63-24.71,4.12,25,1.11,24.47,3.79-24,2-24,2,21.68,2.31,21.24,5.2-20.44.8-20.44.8,16.73,1.92,16.3,4.54c-.27,1.59-49,1.95-49.09,3.12-.06.62,4.13-28.84,4.13-28.84" transform="translate(308.04 192.08)"/><path class="cls-9" d="M278.31,517s-19.1-26.7-15.7-26.69,5.18,5,11.8,8.48c0,0-10.56-33.39-7.29-32.69s11.06,22.13,11.57,22.11-6.72-24-4-24.33,9.35,22,9.35,22-4.55-21.23-1.68-21.71,7.11,19.09,7.11,19.09-3.39-16.43-.77-16.83c1.58-.24,16,40.5,16,40.5-.37,0-26.38,10-26.38,10" transform="translate(308.04 192.08)"/><path class="cls-9" d="M102.15,590.41a3.73,3.73,0,0,1,.25,1,10.94,10.94,0,0,1,.18,2.74,4.71,4.71,0,0,1-1.92,3.59,3.1,3.1,0,0,1-2.45.55A4.47,4.47,0,0,1,96,596.8a15.82,15.82,0,0,0-1.75-1.8,4.18,4.18,0,0,0-2-.84,4.11,4.11,0,0,0-3.49,1.19,4.52,4.52,0,0,0-1.22,2.29c-.12.61-.09,1-.14,1a2.09,2.09,0,0,1-.06-1,4.58,4.58,0,0,1,1.15-2.52,4.47,4.47,0,0,1,3.82-1.41,4.65,4.65,0,0,1,2.31.92,15.72,15.72,0,0,1,1.81,1.84,4,4,0,0,0,2,1.33,2.59,2.59,0,0,0,2.06-.45,4.37,4.37,0,0,0,1.83-3.23,13.6,13.6,0,0,0,0-2.68A3.81,3.81,0,0,1,102.15,590.41Z" transform="translate(308.04 192.08)"/><path class="cls-9" d="M119.33,575.58a4.2,4.2,0,0,1,.7-.71,11,11,0,0,1,2.25-1.59,4.73,4.73,0,0,1,4.07-.23,3.11,3.11,0,0,1,1.74,1.81,4.39,4.39,0,0,1-.1,2.66,16.79,16.79,0,0,0-.63,2.43,4.25,4.25,0,0,0,.35,2.19,4.14,4.14,0,0,0,2.84,2.37,4.65,4.65,0,0,0,2.58-.16c.59-.21.88-.42.91-.39s-.23.3-.83.58a4.45,4.45,0,0,1-5.93-2.2,4.65,4.65,0,0,1-.43-2.45,16.79,16.79,0,0,1,.64-2.51,4.09,4.09,0,0,0,.12-2.36,2.65,2.65,0,0,0-1.46-1.53,4.37,4.37,0,0,0-3.71.12,13.91,13.91,0,0,0-2.28,1.41A3.67,3.67,0,0,1,119.33,575.58Z" transform="translate(308.04 192.08)"/><path class="cls-9" d="M118.17,538.64s.22-.29.7-.72a11,11,0,0,1,2.25-1.59,4.69,4.69,0,0,1,4.07-.22,3.06,3.06,0,0,1,1.74,1.8,4.39,4.39,0,0,1-.1,2.66,16.79,16.79,0,0,0-.63,2.43,4.23,4.23,0,0,0,.35,2.19,4.14,4.14,0,0,0,2.83,2.37,4.5,4.5,0,0,0,2.59-.16c.59-.21.88-.42.91-.38a2,2,0,0,1-.83.57,4.5,4.5,0,0,1-2.74.33,4.41,4.41,0,0,1-3.19-2.53,4.63,4.63,0,0,1-.43-2.44,15.51,15.51,0,0,1,.64-2.52,4.09,4.09,0,0,0,.12-2.36,2.65,2.65,0,0,0-1.46-1.53,4.43,4.43,0,0,0-3.72.13,12.89,12.89,0,0,0-2.27,1.41A4.16,4.16,0,0,1,118.17,538.64Z" transform="translate(308.04 192.08)"/><path class="cls-9" d="M154.81,586.76a3.91,3.91,0,0,1-.77-.64,11,11,0,0,1-1.78-2.1,4.69,4.69,0,0,1-.58-4,3.12,3.12,0,0,1,1.64-1.9A4.43,4.43,0,0,1,156,578a15.76,15.76,0,0,0,2.47.42,4.22,4.22,0,0,0,2.15-.54,4.13,4.13,0,0,0,2.11-3,4.65,4.65,0,0,0-.38-2.57c-.26-.57-.5-.84-.46-.87a2.07,2.07,0,0,1,.64.78,4.53,4.53,0,0,1,.57,2.7,4.45,4.45,0,0,1-2.24,3.4,4.61,4.61,0,0,1-2.4.64,15.71,15.71,0,0,1-2.56-.42,4,4,0,0,0-2.36.09,2.65,2.65,0,0,0-1.4,1.59,4.38,4.38,0,0,0,.45,3.69,13.38,13.38,0,0,0,1.6,2.14C154.61,586.46,154.84,586.73,154.81,586.76Z" transform="translate(308.04 192.08)"/><path class="cls-9" d="M179.79,625.4a3.55,3.55,0,0,1-.75.66,10.67,10.67,0,0,1-2.35,1.42,4.71,4.71,0,0,1-4.08-.08,3.07,3.07,0,0,1-1.6-1.92,4.45,4.45,0,0,1,.29-2.65,16.35,16.35,0,0,0,.81-2.38,4.24,4.24,0,0,0-2.84-4.78,4.62,4.62,0,0,0-2.59,0c-.61.17-.91.36-.94.32a2.08,2.08,0,0,1,.87-.52,4.53,4.53,0,0,1,2.76-.12,4.48,4.48,0,0,1,3,2.75,4.56,4.56,0,0,1,.24,2.47,14.79,14.79,0,0,1-.82,2.46,4.09,4.09,0,0,0-.29,2.35,2.64,2.64,0,0,0,1.34,1.63,4.4,4.4,0,0,0,3.72.15,13.15,13.15,0,0,0,2.37-1.24A3.94,3.94,0,0,1,179.79,625.4Z" transform="translate(308.04 192.08)"/><path class="cls-9" d="M209.21,564.45a3.65,3.65,0,0,1-.76.67,10.33,10.33,0,0,1-2.35,1.41,4.71,4.71,0,0,1-4.08-.07,3.12,3.12,0,0,1-1.6-1.93,4.39,4.39,0,0,1,.3-2.65,15.76,15.76,0,0,0,.8-2.37,4.24,4.24,0,0,0-2.84-4.78,4.55,4.55,0,0,0-2.59,0c-.61.17-.91.36-.93.32a2,2,0,0,1,.87-.51,4.55,4.55,0,0,1,6,5.1,15.07,15.07,0,0,1-.81,2.46,4,4,0,0,0-.3,2.35,2.66,2.66,0,0,0,1.34,1.63,4.43,4.43,0,0,0,3.72.15,13.15,13.15,0,0,0,2.37-1.24A4,4,0,0,1,209.21,564.45Z" transform="translate(308.04 192.08)"/><path class="cls-9" d="M229.27,555.18a3.45,3.45,0,0,1,.88.48,11.06,11.06,0,0,1,2.13,1.74,4.72,4.72,0,0,1,1.31,3.86,3.11,3.11,0,0,1-1.27,2.16,4.41,4.41,0,0,1-2.6.62,14.67,14.67,0,0,0-2.5.05,4.08,4.08,0,0,0-2,.92,4.14,4.14,0,0,0-1.52,3.36,4.63,4.63,0,0,0,.84,2.46c.37.51.65.73.62.77s-.35-.15-.78-.65a4.56,4.56,0,0,1-1.05-2.55,4.46,4.46,0,0,1,1.58-3.76,4.59,4.59,0,0,1,2.24-1.06,16.13,16.13,0,0,1,2.6-.06A4,4,0,0,0,232,563a2.59,2.59,0,0,0,1.08-1.81,4.37,4.37,0,0,0-1.11-3.55,12.88,12.88,0,0,0-2-1.81A4,4,0,0,1,229.27,555.18Z" transform="translate(308.04 192.08)"/><path class="cls-9" d="M148.09,656.91a3.24,3.24,0,0,1-.75.66A10.53,10.53,0,0,1,145,659a4.71,4.71,0,0,1-4.08-.07A3.13,3.13,0,0,1,139.3,657a4.46,4.46,0,0,1,.3-2.65,16.35,16.35,0,0,0,.81-2.38,4.22,4.22,0,0,0-.19-2.21,4.15,4.15,0,0,0-2.65-2.57,4.66,4.66,0,0,0-2.6,0c-.6.17-.91.36-.93.32a2,2,0,0,1,.87-.51,4.45,4.45,0,0,1,5.76,2.63,4.64,4.64,0,0,1,.24,2.47,16.51,16.51,0,0,1-.82,2.46,4,4,0,0,0-.29,2.34,2.61,2.61,0,0,0,1.34,1.63,4.34,4.34,0,0,0,3.71.15,12.88,12.88,0,0,0,2.37-1.23A4,4,0,0,1,148.09,656.91Z" transform="translate(308.04 192.08)"/><path class="cls-9" d="M191.62,598.26a4,4,0,0,1-.69-.72,10.59,10.59,0,0,1-1.51-2.29,4.72,4.72,0,0,1-.11-4.08,3.15,3.15,0,0,1,1.86-1.69,4.47,4.47,0,0,1,2.66.19,15.66,15.66,0,0,0,2.41.7,4.22,4.22,0,0,0,4.65-3,4.64,4.64,0,0,0-.07-2.59c-.2-.6-.4-.89-.36-.92a2.2,2.2,0,0,1,.55.85,4.46,4.46,0,0,1-2.38,5.86,4.6,4.6,0,0,1-2.46.35,15.21,15.21,0,0,1-2.5-.71,3.94,3.94,0,0,0-2.35-.2,2.64,2.64,0,0,0-1.57,1.41,4.39,4.39,0,0,0,0,3.72,13.68,13.68,0,0,0,1.34,2.32A3.56,3.56,0,0,1,191.62,598.26Z" transform="translate(308.04 192.08)"/><path class="cls-9" d="M199.44,629.77s-.28-.23-.7-.72a11,11,0,0,1-1.51-2.29,4.69,4.69,0,0,1-.1-4.08A3.12,3.12,0,0,1,199,621a4.45,4.45,0,0,1,2.65.19,16,16,0,0,0,2.41.7,4.07,4.07,0,0,0,2.2-.28,4.13,4.13,0,0,0,2.46-2.76,4.54,4.54,0,0,0-.08-2.59c-.19-.6-.4-.89-.36-.92a2.07,2.07,0,0,1,.55.85,4.54,4.54,0,0,1,.25,2.75,4.47,4.47,0,0,1-2.63,3.11,4.6,4.6,0,0,1-2.46.35,16.46,16.46,0,0,1-2.49-.71,4,4,0,0,0-2.36-.2,2.64,2.64,0,0,0-1.57,1.41,4.38,4.38,0,0,0,0,3.72,12.45,12.45,0,0,0,1.34,2.32A4.05,4.05,0,0,1,199.44,629.77Z" transform="translate(308.04 192.08)"/><path class="cls-9" d="M136.43,616.33a3.55,3.55,0,0,1,0-1,10.62,10.62,0,0,1,.41-2.72,4.72,4.72,0,0,1,2.67-3.08,3.09,3.09,0,0,1,2.51,0,4.43,4.43,0,0,1,1.84,1.92,16,16,0,0,0,1.31,2.14,4.06,4.06,0,0,0,1.82,1.27,4.13,4.13,0,0,0,3.67-.39,4.65,4.65,0,0,0,1.69-2c.26-.57.3-.93.35-.92a2,2,0,0,1-.16,1,4.46,4.46,0,0,1-5.71,2.74,4.58,4.58,0,0,1-2.05-1.39,14.79,14.79,0,0,1-1.37-2.21,4,4,0,0,0-1.61-1.72,2.65,2.65,0,0,0-2.12,0,4.44,4.44,0,0,0-2.49,2.76,12.81,12.81,0,0,0-.56,2.62A4,4,0,0,1,136.43,616.33Z" transform="translate(308.04 192.08)"/><path class="cls-9" d="M193.33,655.23a3.74,3.74,0,0,1,0-1,11.19,11.19,0,0,1,.42-2.72,4.69,4.69,0,0,1,2.67-3.08,3.09,3.09,0,0,1,2.51,0,4.43,4.43,0,0,1,1.84,1.92,16,16,0,0,0,1.31,2.14,4.06,4.06,0,0,0,1.82,1.27,4.14,4.14,0,0,0,3.67-.39,4.59,4.59,0,0,0,1.69-2c.25-.57.3-.93.35-.92a2,2,0,0,1-.16,1,4.46,4.46,0,0,1-5.71,2.74,4.58,4.58,0,0,1-2.05-1.39,14.79,14.79,0,0,1-1.37-2.21,4,4,0,0,0-1.61-1.72,2.65,2.65,0,0,0-2.12,0,4.4,4.4,0,0,0-2.49,2.75,12.81,12.81,0,0,0-.56,2.62A4,4,0,0,1,193.33,655.23Z" transform="translate(308.04 192.08)"/><path class="cls-9" d="M191.68,537.38a3.55,3.55,0,0,1,0-1,10.5,10.5,0,0,1,.41-2.71,4.71,4.71,0,0,1,2.67-3.09,3.09,3.09,0,0,1,2.51,0,4.43,4.43,0,0,1,1.84,1.92,16,16,0,0,0,1.31,2.14,4.06,4.06,0,0,0,1.82,1.27,4.13,4.13,0,0,0,3.67-.39,4.59,4.59,0,0,0,1.69-2c.26-.57.3-.93.35-.92a2.08,2.08,0,0,1-.16,1,4.61,4.61,0,0,1-1.67,2.2,4.47,4.47,0,0,1-4,.53A4.58,4.58,0,0,1,200,535a15.22,15.22,0,0,1-1.37-2.2A4,4,0,0,0,197,531a2.65,2.65,0,0,0-2.12,0,4.4,4.4,0,0,0-2.49,2.75,12.81,12.81,0,0,0-.56,2.62A3.85,3.85,0,0,1,191.68,537.38Z" transform="translate(308.04 192.08)"/><path class="cls-9" d="M173.09,670.87a3.47,3.47,0,0,1-.93-.37,10.58,10.58,0,0,1-2.33-1.45,4.73,4.73,0,0,1-1.78-3.67,3.12,3.12,0,0,1,1-2.3,4.43,4.43,0,0,1,2.5-.94,16.42,16.42,0,0,0,2.48-.36,4.07,4.07,0,0,0,1.88-1.17,4.12,4.12,0,0,0,1.09-3.53,4.57,4.57,0,0,0-1.14-2.32c-.43-.47-.73-.65-.71-.69a2,2,0,0,1,.85.54,4.48,4.48,0,0,1,.27,6.33,4.58,4.58,0,0,1-2.1,1.33,15.83,15.83,0,0,1-2.56.39,4,4,0,0,0-2.22.8,2.64,2.64,0,0,0-.85,1.94,4.36,4.36,0,0,0,1.55,3.37,12.48,12.48,0,0,0,2.18,1.55A3.93,3.93,0,0,1,173.09,670.87Z" transform="translate(308.04 192.08)"/><path class="cls-9" d="M105.61,555.18a3.61,3.61,0,0,1,.62.79,10.93,10.93,0,0,1,1.28,2.43,4.69,4.69,0,0,1-.3,4.06,3.07,3.07,0,0,1-2,1.5,4.43,4.43,0,0,1-2.63-.44,15.78,15.78,0,0,0-2.33-.94,4.24,4.24,0,0,0-4.92,2.57,4.52,4.52,0,0,0-.18,2.59c.13.61.31.93.26,1a2.16,2.16,0,0,1-.46-.9A4.52,4.52,0,0,1,95,565a4.6,4.6,0,0,1,5.39-2.94,14.83,14.83,0,0,1,2.42.95,4,4,0,0,0,2.32.42,2.67,2.67,0,0,0,1.71-1.25,4.39,4.39,0,0,0,.35-3.7,13.13,13.13,0,0,0-1.11-2.44A3.67,3.67,0,0,1,105.61,555.18Z" transform="translate(308.04 192.08)"/><path class="cls-9" d="M170.75,543.52a3.61,3.61,0,0,1,.62.79,10.93,10.93,0,0,1,1.28,2.43,4.69,4.69,0,0,1-.3,4.06,3.07,3.07,0,0,1-2,1.5,4.43,4.43,0,0,1-2.63-.44,15.78,15.78,0,0,0-2.33-.94,4.26,4.26,0,0,0-4.93,2.57,4.59,4.59,0,0,0-.17,2.59c.13.61.31.93.26.95a2.16,2.16,0,0,1-.46-.9,4.51,4.51,0,0,1,0-2.76,4.45,4.45,0,0,1,2.91-2.84,4.61,4.61,0,0,1,2.48-.1,14.83,14.83,0,0,1,2.42,1,4,4,0,0,0,2.32.42,2.67,2.67,0,0,0,1.71-1.25,4.39,4.39,0,0,0,.35-3.7,12.69,12.69,0,0,0-1.11-2.43A3.81,3.81,0,0,1,170.75,543.52Z" transform="translate(308.04 192.08)"/><path class="cls-9" d="M130.59,612.07a.86.86,0,0,1,0-.26l.06-.77.27-2.93c.27-2.58.64-6.25,1.1-10.76,1-9.12,2.32-21.65,3.8-35.49a40.49,40.49,0,0,0,0-10.08,18,18,0,0,0-3.59-8.52,21.51,21.51,0,0,0-6.41-5.47,25.34,25.34,0,0,0-6.9-2.64,37,37,0,0,0-10.71-.7c-1.27.09-2.25.21-2.92.28l-.76.09-.26,0a.65.65,0,0,1,.25-.07l.75-.14c.67-.11,1.65-.26,2.92-.38a35.65,35.65,0,0,1,10.81.54,25.28,25.28,0,0,1,7,2.62,21.83,21.83,0,0,1,6.58,5.56,18.39,18.39,0,0,1,3.72,8.73,41,41,0,0,1,0,10.21c-1.55,13.84-2.94,26.36-4,35.48-.52,4.51-.95,8.17-1.26,10.75-.15,1.23-.28,2.21-.36,2.92l-.11.75A1,1,0,0,1,130.59,612.07Z" transform="translate(308.04 192.08)"/><path class="cls-9" d="M133.17,608.91c0,.14-13.24,1.66-29.61,3.39s-29.66,3-29.67,2.88,13.24-1.66,29.61-3.39S133.16,608.76,133.17,608.91Z" transform="translate(308.04 192.08)"/><path class="cls-9" d="M213.77,602.36a2.32,2.32,0,0,1,.06-.53l.28-1.5a22.06,22.06,0,0,0,.39-2.37c.12-.93.31-2,.37-3.16L215,593c0-.64,0-1.31.05-2,.06-1.38,0-2.86-.1-4.42A55,55,0,0,0,210,567c-.68-1.4-1.31-2.75-2-3.93-.35-.6-.65-1.2-1-1.74l-1-1.56c-.62-1-1.29-1.84-1.83-2.6s-1.05-1.39-1.48-1.9l-1-1.18c-.21-.27-.32-.42-.3-.44a2.77,2.77,0,0,1,.38.37l1,1.12a23.34,23.34,0,0,1,1.55,1.85c.57.75,1.26,1.58,1.9,2.58l1,1.54c.36.55.68,1.14,1,1.74.73,1.19,1.37,2.54,2.08,3.94a53.19,53.19,0,0,1,5,19.7c.05,1.57.13,3.07.05,4.46,0,.7,0,1.38-.08,2l-.18,1.86c-.08,1.18-.3,2.24-.44,3.17a22,22,0,0,1-.48,2.36l-.38,1.48A1.9,1.9,0,0,1,213.77,602.36Z" transform="translate(308.04 192.08)"/><path class="cls-9" d="M367.29,602.67c-2-9.81,6.11-19.29,16.33-14.71,4.59,2,8.16,5.08,13.49,3.87,8.38-1.9,12.49-12.16,7-19-.67-.83-1.8.23-1.39,1.07,2,4.17,2.64,9.1-.73,12.8-3.06,3.39-7.62,3.93-11.67,2.37-4.75-1.82-8.11-4.9-13.53-4.14a13.1,13.1,0,0,0-10.38,18.11c.23.53,1,.13.9-.38Z" transform="translate(308.04 192.08)"/><path class="cls-9" d="M390.47,450.63a74.38,74.38,0,0,0,7.89,12.28c1.15,1.52,2.48,3.74,4.62,3.81s4.22-2.11,5.76-3.19q6.31-4.45,12.6-8.95a1,1,0,0,0,.35-1.32L410.08,435.4a1,1,0,0,0-1.32-.34c-4.61,3.26-9.3,6.42-13.8,9.84-.89.68-.08,2.2.91,1.55,2.62-1.72,5.16-3.57,7.72-5.38,2.1-1.49,4.27-4.18,6.41-2.26,2,1.76,3.3,5.07,4.75,7.3,1.12,1.73,4.91,5.74,4,7.93-.69,1.75-5.51,3.92-7.08,5-1.95,1.4-4.76,4.49-7.07,5.07-5.12,1.29-10.83-10.49-13.59-14-.27-.35-.75.1-.58.45Z" transform="translate(308.04 192.08)"/><path class="cls-9" d="M335.37,507.1c-5.3,5.21-6.77,13.83-1.75,19.83,4.79,5.72,14.07,7,20,2.33a15,15,0,0,0,3.85-18.84c-4-7-12.89-9.72-20.49-8.59-.84.12-.65,1.54.2,1.49,5.93-.39,12.31.67,16.73,5a13,13,0,0,1-18.28,18.61c-5.39-5.17-4.8-14.19.27-19.29.33-.34-.19-.87-.53-.53Z" transform="translate(308.04 192.08)"/><path class="cls-9" d="M476,560.77q-2.44,16.49-4.71,33a.86.86,0,0,0,1,1c10.27-1.6,20.54-3.17,30.77-5a.79.79,0,0,0,.47-1.15c-5.92-10.58-13.34-21.51-23.23-28.79-.81-.59-1.71.68-1.05,1.36,7.47,7.63,14.72,14.72,20.41,23.88,1.6,2.57,2.32,3.08-.88,3.74-2.85.58-5.8.86-8.67,1.32-6.09,1-12.18,2-18.27,3L473,594q2.13-16.54,4.1-33.09c.07-.6-1-.74-1.06-.14Z" transform="translate(308.04 192.08)"/><path class="cls-9" d="M425.7,539.74c1.54-10.84,3-21.76,4-32.67.08-.88-1.44-1.1-1.56-.21-1.51,10.85-2.54,21.82-3.48,32.74,0,.59,1,.74,1.05.14Z" transform="translate(308.04 192.08)"/><path class="cls-9" d="M545,537c10.87.67,21.81,1.27,32.71,1.37a.8.8,0,0,0,0-1.59c-10.87-.64-21.82-.78-32.71-.85a.54.54,0,0,0,0,1.07Z" transform="translate(308.04 192.08)"/><path class="cls-9" d="M456.73,398.87c10,4.42,20.12,8.81,30.36,12.7.83.31,1.43-1.09.61-1.45-10-4.4-20.31-8.36-30.56-12.22-.56-.22-1,.73-.41,1Z" transform="translate(308.04 192.08)"/><path class="cls-9" d="M483.93,492.34a4.5,4.5,0,0,0-.78-.85,1.61,1.61,0,0,0-2.27,2.27,4.5,4.5,0,0,0,.84.79,1.61,1.61,0,0,0,2.21-2.21Z" transform="translate(308.04 192.08)"/></g><path class="cls-11" d="M533.47,462.82c-5.3,5.22-6.76,13.84-1.74,19.84,4.78,5.71,14.07,7,20,2.33a15,15,0,0,0,3.85-18.84c-4-7-12.88-9.73-20.49-8.6-.84.13-.65,1.55.2,1.49,5.93-.38,12.32.68,16.74,5a13,13,0,0,1-18.29,18.6c-5.39-5.16-4.8-14.19.27-19.29.34-.34-.19-.86-.53-.53Z" transform="translate(308.04 192.08)"/><path class="cls-12" d="M136.55,404.31a19.78,19.78,0,0,0-27.9,18.82c.21,5.24,2.3,11.2-1,15.25-2.58,3.13-7.17,3.42-10.87,5.09-7,3.18-10.51,12.46-7.32,19.47,1.73,3.8,5.15,7.29,4.5,11.41-.42,2.67-2.54,4.78-4.88,6.12s-5,2.1-7.39,3.29c-8.84,4.32-14.21,14.37-14,24.21s5.67,19.17,13.43,25.22,17.67,9,27.5,9.35,20.17-1.94,27.69-8.32c5.64-4.79,9.32-11.5,12-18.38a91.86,91.86,0,0,0,6.07-41.4c-1.24-14.55-5.94-28.65-7-43.22-.34-4.88-.28-9.83-1.36-14.6s-3.53-9.48-7.72-12" transform="translate(308.04 192.08)"/><path class="cls-12" d="M134.31,406.19a43.53,43.53,0,0,1,29.34-23.26c7.75-1.72,16.25-1.14,23.06,2.94s11.52,12,10.48,19.91c-.64,4.86-3.28,9.2-5,13.82s-2.22,10.24.89,14c2.79,3.41,7.59,4.24,11.4,6.45a17.09,17.09,0,0,1-1.75,30.49,20.56,20.56,0,0,1,17.64,25.1c-1.89,8.06-8.44,14.23-15.48,18.58a68.23,68.23,0,0,1-32.62,10.07c-12.2.55-25.71-3.06-32.34-13.31-4.36-6.73-5-15.12-5.51-23.13C133,463.73,132,439.55,131,415.37c-.16-3.89-.32-7.84.6-11.63" transform="translate(308.04 192.08)"/><path class="cls-13" d="M175.34,515.33l109.35,41-10.44-44.16,28.44-7.23s30.59,86.33,9.35,88.64c-37.19,4-93.47-10.68-93.47-10.68Z" transform="translate(308.04 192.08)"/><path class="cls-14" d="M165.78,703.75S297.89,559.55,387.07,591,513.91,769.38,513.91,769.38l-71-1.15S386.78,657.3,359.4,661.6,247.48,771.48,247.48,771.48Z" transform="translate(308.04 192.08)"/><path class="cls-15" d="M207.58,616.21l5.48,84.6c-28.47,35-127.61-10.26-127.61-10.26l-1.16-35.37L82,570.93c2.28-33.55,33.44-50,33.44-50,12.88-6.42,32.53-10.07,50.23-9.19,18.48.91,23.05,9.76,30.66,26.62C202.47,552,219.15,574.16,207.58,616.21Z" transform="translate(308.04 192.08)"/><path class="cls-16" d="M104,706.49S88.81,768.21,135,777.93s216.17-13,260.44-9.13S565.63,780,565.63,780l9.22-73.28s-195.91-9.39-218.06-3.89S104,706.49,104,706.49Z" transform="translate(308.04 192.08)"/><path class="cls-13" d="M126.13,598.6s-13.85,81.66,5.69,79.65c64.27-6.61,102.55-7.5,102.55-7.5L245,692.87c.25,3.77-121.72,38.69-141.32,27.14-13.84-8.15-35.89-30.1-25.88-95.72l2.36-22Z" transform="translate(308.04 192.08)"/><polygon class="cls-17" points="492.17 907.91 492.04 902.44 572.72 891.05 594.13 816.16 683.51 813.99 659.39 895.05 492.17 907.91"/><path class="cls-18" d="M329.16,659.58a6.62,6.62,0,1,1-6.78-6.46A6.63,6.63,0,0,1,329.16,659.58Z" transform="translate(308.04 192.08)"/><path class="cls-19" d="M331.8,659.51a9.26,9.26,0,1,1-9.48-9A9.26,9.26,0,0,1,331.8,659.51Z" transform="translate(308.04 192.08)"/><path class="cls-15" d="M90.78,544.44s-15,14.4-18.35,68.88l58-6.43S140.13,514.11,90.78,544.44Z" transform="translate(308.04 192.08)"/><path class="cls-20" d="M516.75,380.62s20.57,46.2,26.3,43.77S601.92,389,601.92,389s-21.78-41.36-26.31-43.78S516.75,380.62,516.75,380.62Z" transform="translate(308.04 192.08)"/><path class="cls-21" d="M575.61,345.24a.76.76,0,0,1-.05.23l-.22.64-.86,2.43c-.79,2.16-1.9,5.2-3.27,8.93-2.83,7.56-6.7,17.93-11,29.39l-.31.83-.08.2-.21,0-30.38-5-9.16-1.57-2.48-.46a4.16,4.16,0,0,1-.86-.19s.3,0,.87.09l2.5.36,9.19,1.41,30.41,4.86-.29.17c.1-.27.21-.55.31-.83,4.34-11.44,8.26-21.79,11.12-29.34,1.44-3.71,2.6-6.73,3.43-8.87l1-2.4c.1-.25.19-.45.26-.62A.93.93,0,0,1,575.61,345.24Z" transform="translate(308.04 192.08)"/><path class="cls-21" d="M536.29,419a7.19,7.19,0,0,1,.21-1.35c.17-.86.44-2.09.78-3.62.69-3.05,1.72-7.26,3-11.86s2.5-8.76,3.45-11.74c.48-1.49.88-2.69,1.17-3.52a6.89,6.89,0,0,1,.5-1.26,5.94,5.94,0,0,1-.3,1.32c-.27.94-.61,2.14-1,3.57-.87,3-2.06,7.16-3.31,11.76s-2.34,8.79-3.12,11.82c-.38,1.43-.69,2.64-.94,3.58A6.16,6.16,0,0,1,536.29,419Z" transform="translate(308.04 192.08)"/><path class="cls-21" d="M598.41,379.83c0,.14-7.38-.91-16.44-2.34s-16.38-2.72-16.36-2.86,7.38.91,16.44,2.34S598.43,379.68,598.41,379.83Z" transform="translate(308.04 192.08)"/><path class="cls-13" d="M119.84,430.25l1.31,17.3s-14.7,2-10.51,15.39,14.25,7.55,14.25,7.55,2.51,34.37,37.72,23.47c28-8.68,26.31-45,22.75-75.89a20.7,20.7,0,0,0-24.55-17.92l-21.17,4.12A24.57,24.57,0,0,0,119.84,430.25Z" transform="translate(308.04 192.08)"/><path class="cls-13" d="M121.15,461.9l9.49,50.59a20.29,20.29,0,0,0,24.65,16h0a20.29,20.29,0,0,0,15.27-23.29l-5.15-29Z" transform="translate(308.04 192.08)"/><path class="cls-12" d="M160.1,462.47s.08.1.21.28a1.41,1.41,0,0,0,.77.52c.81.24,2.08-.57,2.4-2.09a16.23,16.23,0,0,0,.13-5.42c-.13-2.08-.28-4.36-.44-6.74-.3-4.79-.54-9.12-.69-12.26q-.09-2.25-.15-3.72a7.26,7.26,0,0,1,0-1.37,6.69,6.69,0,0,1,.19,1.35c.08,1,.19,2.23.32,3.71.24,3.14.54,7.47.84,12.26.14,2.38.28,4.66.4,6.74a15.88,15.88,0,0,1-.26,5.56,3.32,3.32,0,0,1-1.18,1.83,1.88,1.88,0,0,1-1.62.35,1.45,1.45,0,0,1-.81-.66C160.11,462.6,160.08,462.48,160.1,462.47Z" transform="translate(308.04 192.08)"/><path class="cls-12" d="M171.52,490.43a6.7,6.7,0,0,1-1.09.9,26.25,26.25,0,0,1-3.28,2,27.93,27.93,0,0,1-24.66.52,24.55,24.55,0,0,1-3.37-1.88,5.83,5.83,0,0,1-1.12-.86c.05-.09,1.68,1.12,4.64,2.4A28.93,28.93,0,0,0,167,493C169.88,491.61,171.46,490.34,171.52,490.43Z" transform="translate(308.04 192.08)"/><path class="cls-12" d="M164.64,469.57s-.12.25-.45.61a7.36,7.36,0,0,1-1.62,1.3,8.1,8.1,0,0,1-11.68-3.75,7.17,7.17,0,0,1-.56-2,1.87,1.87,0,0,1,0-.77,16.2,16.2,0,0,0,.9,2.61,8.05,8.05,0,0,0,11.17,3.59A18.83,18.83,0,0,0,164.64,469.57Z" transform="translate(308.04 192.08)"/><path class="cls-12" d="M120,464.62s-.2.07-.58.06a4.31,4.31,0,0,1-1.58-.34,3,3,0,0,1-1.68-1.75,2.42,2.42,0,0,1,0-1.51,1.85,1.85,0,0,1,1.13-1.2,1.77,1.77,0,0,1,2.16.61l-.44.23a31.23,31.23,0,0,1-1.9-4.9,32.21,32.21,0,0,1,2.35,4.7l-.44.23a1.28,1.28,0,0,0-1.55-.38,1.59,1.59,0,0,0-.81,2.07A2.7,2.7,0,0,0,118,464,13.09,13.09,0,0,0,120,464.62Z" transform="translate(308.04 192.08)"/><path class="cls-12" d="M174.2,440.35a15.53,15.53,0,0,1-1.25-5.53,15.53,15.53,0,0,1,1.25,5.53Z" transform="translate(308.04 192.08)"/><path class="cls-12" d="M144.39,443.12a16,16,0,0,1-1.54-5.54,16,16,0,0,1,1.54,5.54Z" transform="translate(308.04 192.08)"/><path class="cls-12" d="M147.15,430.53a16.79,16.79,0,0,0-3.7.3,16.44,16.44,0,0,0-3.37,1.56,5.16,5.16,0,0,1,3.24-2.07A5.24,5.24,0,0,1,147.15,430.53Z" transform="translate(308.04 192.08)"/><path class="cls-12" d="M177.59,425.71a22,22,0,0,0-4.07-.28,21.83,21.83,0,0,0-4,1,6.34,6.34,0,0,1,3.92-1.5A6.26,6.26,0,0,1,177.59,425.71Z" transform="translate(308.04 192.08)"/><path class="cls-12" d="M121.15,447.55c9.83-9.58,12.72-25.55,15.38-39a34.41,34.41,0,0,0,32.12,4.18,51.76,51.76,0,0,0,11.44,10c1.21.78,2.66,1.53,4,1.12,1.65-.5,2.38-2.39,2.78-4.07a28.88,28.88,0,0,0-.58-16.3,19.58,19.58,0,0,0-10.94-11.73c-5.49-2.13-11.68-1.21-17.38.27a97.05,97.05,0,0,0-24.55,10.14c-7.52,4.41-14.74,10.24-17.93,18.35s-3.18,23.87,4.51,28" transform="translate(308.04 192.08)"/><g class="cls-22"><path class="cls-12" d="M161.27,471.44c0,.36-.39.74-1.17,1a6.66,6.66,0,0,1-5.89-1.25c-.61-.54-.84-1.07-.66-1.38.39-.61,2.07-.23,4,.16S161.15,470.72,161.27,471.44Z" transform="translate(308.04 192.08)"/></g><g class="cls-23"><path class="cls-12" d="M149,455.39c.12.69-3.32,1.89-7.76,2.09s-8-.68-7.91-1.38,3.55-1,7.8-1.22S148.89,454.67,149,455.39Z" transform="translate(308.04 192.08)"/></g><g class="cls-23"><path class="cls-12" d="M186.25,452.35c.14.69-2.9,1.89-6.85,2.09s-7.1-.67-7-1.38,3.15-1,6.89-1.22S186.11,451.63,186.25,452.35Z" transform="translate(308.04 192.08)"/></g><path class="cls-24" d="M120.75,493.32a27.89,27.89,0,0,1-.17-3.64c-.06-2.24-.15-5.35-.32-8.77s-.41-6.52-.58-8.76a28.84,28.84,0,0,1-.21-3.64,3.41,3.41,0,0,1,.21,1c.11.62.23,1.52.36,2.64.27,2.24.56,5.34.74,8.77s.21,6.55.17,8.8c0,1.13,0,2-.09,2.67A4,4,0,0,1,120.75,493.32Z" transform="translate(308.04 192.08)"/><path class="cls-15" d="M179.17,515c-9.52-3.78,63.67,23.39,63.67,23.39l-7.42,50.06-27.84-9.13Z" transform="translate(308.04 192.08)"/><path class="cls-12" d="M135.62,401.7a15.18,15.18,0,0,0,2-12c-.84-3.33-3.35-6.63-6.78-6.8a7.41,7.41,0,0,0-5.27,2.17,10.83,10.83,0,0,0,10.3,18.37" transform="translate(308.04 192.08)"/><path class="cls-12" d="M572.89,722.34s23.8-34.13,20.9-21.21-27.08,70.35-27.08,70.35Z" transform="translate(308.04 192.08)"/><path class="cls-13" d="M227.61,670.76s31.45-9.87,30.37-6.63-6.43,3.37-11.78,8.6c0,0,35.16.39,33.47,3.28s-24.58,3.63-24.71,4.12,25,1.11,24.47,3.79-24,2-24,2,21.68,2.31,21.24,5.2-20.44.8-20.44.8,16.73,1.92,16.3,4.54c-.27,1.59-49,1.95-49.09,3.12-.06.62,4.13-28.84,4.13-28.84" transform="translate(308.04 192.08)"/><path class="cls-13" d="M276.31,515s-19.1-26.7-15.7-26.69,5.18,5,11.8,8.48c0,0-10.56-33.39-7.29-32.69s11.06,22.13,11.57,22.11-6.72-24-4-24.33,9.35,22,9.35,22-4.55-21.23-1.68-21.71,7.11,19.09,7.11,19.09-3.39-16.43-.77-16.83c1.58-.24,16,40.5,16,40.5-.37,0-26.38,10-26.38,10" transform="translate(308.04 192.08)"/><path class="cls-25" d="M100.15,588.41a3.73,3.73,0,0,1,.25,1,10.94,10.94,0,0,1,.18,2.74,4.71,4.71,0,0,1-1.92,3.59,3.1,3.1,0,0,1-2.45.55A4.47,4.47,0,0,1,94,594.8a15.82,15.82,0,0,0-1.75-1.8,4.18,4.18,0,0,0-2-.84,4.11,4.11,0,0,0-3.49,1.19,4.52,4.52,0,0,0-1.22,2.29c-.12.61-.09,1-.14,1a2.09,2.09,0,0,1-.06-1,4.58,4.58,0,0,1,1.15-2.52,4.47,4.47,0,0,1,3.82-1.41,4.65,4.65,0,0,1,2.31.92,15.72,15.72,0,0,1,1.81,1.84,4,4,0,0,0,2,1.33,2.59,2.59,0,0,0,2.06-.45,4.37,4.37,0,0,0,1.83-3.23,13.6,13.6,0,0,0,0-2.68A3.81,3.81,0,0,1,100.15,588.41Z" transform="translate(308.04 192.08)"/><path class="cls-25" d="M117.33,573.58a4.2,4.2,0,0,1,.7-.71,11,11,0,0,1,2.25-1.59,4.73,4.73,0,0,1,4.07-.23,3.11,3.11,0,0,1,1.74,1.81,4.39,4.39,0,0,1-.1,2.66,16.79,16.79,0,0,0-.63,2.43,4.25,4.25,0,0,0,.35,2.19,4.14,4.14,0,0,0,2.84,2.37,4.65,4.65,0,0,0,2.58-.16c.59-.21.88-.42.91-.39s-.23.3-.83.58a4.45,4.45,0,0,1-5.93-2.2,4.65,4.65,0,0,1-.43-2.45,16.79,16.79,0,0,1,.64-2.51,4.09,4.09,0,0,0,.12-2.36,2.65,2.65,0,0,0-1.46-1.53,4.37,4.37,0,0,0-3.71.12,13.91,13.91,0,0,0-2.28,1.41A3.67,3.67,0,0,1,117.33,573.58Z" transform="translate(308.04 192.08)"/><path class="cls-25" d="M116.17,536.64s.22-.29.7-.72a11,11,0,0,1,2.25-1.59,4.69,4.69,0,0,1,4.07-.22,3.06,3.06,0,0,1,1.74,1.8,4.39,4.39,0,0,1-.1,2.66,16.79,16.79,0,0,0-.63,2.43,4.23,4.23,0,0,0,.35,2.19,4.14,4.14,0,0,0,2.83,2.37,4.5,4.5,0,0,0,2.59-.16c.59-.21.88-.42.91-.38a2,2,0,0,1-.83.57,4.5,4.5,0,0,1-2.74.33,4.41,4.41,0,0,1-3.19-2.53,4.63,4.63,0,0,1-.43-2.44,15.51,15.51,0,0,1,.64-2.52,4.09,4.09,0,0,0,.12-2.36,2.65,2.65,0,0,0-1.46-1.53,4.43,4.43,0,0,0-3.72.13,12.89,12.89,0,0,0-2.27,1.41A4.16,4.16,0,0,1,116.17,536.64Z" transform="translate(308.04 192.08)"/><path class="cls-25" d="M152.81,584.76a3.91,3.91,0,0,1-.77-.64,11,11,0,0,1-1.78-2.1,4.69,4.69,0,0,1-.58-4,3.12,3.12,0,0,1,1.64-1.9A4.43,4.43,0,0,1,154,576a15.76,15.76,0,0,0,2.47.42,4.22,4.22,0,0,0,2.15-.54,4.13,4.13,0,0,0,2.11-3,4.65,4.65,0,0,0-.38-2.57c-.26-.57-.5-.84-.46-.87a2.07,2.07,0,0,1,.64.78,4.53,4.53,0,0,1,.57,2.7,4.45,4.45,0,0,1-2.24,3.4,4.61,4.61,0,0,1-2.4.64,15.71,15.71,0,0,1-2.56-.42,4,4,0,0,0-2.36.09,2.65,2.65,0,0,0-1.4,1.59,4.38,4.38,0,0,0,.45,3.69,13.38,13.38,0,0,0,1.6,2.14C152.61,584.46,152.84,584.73,152.81,584.76Z" transform="translate(308.04 192.08)"/><path class="cls-25" d="M177.79,623.4a3.55,3.55,0,0,1-.75.66,10.67,10.67,0,0,1-2.35,1.42,4.71,4.71,0,0,1-4.08-.08,3.07,3.07,0,0,1-1.6-1.92,4.45,4.45,0,0,1,.29-2.65,16.35,16.35,0,0,0,.81-2.38,4.24,4.24,0,0,0-2.84-4.78,4.62,4.62,0,0,0-2.59,0c-.61.17-.91.36-.94.32a2.08,2.08,0,0,1,.87-.52,4.53,4.53,0,0,1,2.76-.12,4.48,4.48,0,0,1,3,2.75,4.56,4.56,0,0,1,.24,2.47,14.79,14.79,0,0,1-.82,2.46,4.09,4.09,0,0,0-.29,2.35,2.64,2.64,0,0,0,1.34,1.63,4.4,4.4,0,0,0,3.72.15,13.15,13.15,0,0,0,2.37-1.24A3.94,3.94,0,0,1,177.79,623.4Z" transform="translate(308.04 192.08)"/><path class="cls-25" d="M207.21,562.45a3.65,3.65,0,0,1-.76.67,10.33,10.33,0,0,1-2.35,1.41,4.71,4.71,0,0,1-4.08-.07,3.12,3.12,0,0,1-1.6-1.93,4.39,4.39,0,0,1,.3-2.65,15.76,15.76,0,0,0,.8-2.37,4.24,4.24,0,0,0-2.84-4.78,4.55,4.55,0,0,0-2.59,0c-.61.17-.91.36-.93.32a2,2,0,0,1,.87-.51,4.55,4.55,0,0,1,6,5.1,15.07,15.07,0,0,1-.81,2.46,4,4,0,0,0-.3,2.35,2.66,2.66,0,0,0,1.34,1.63,4.43,4.43,0,0,0,3.72.15,13.15,13.15,0,0,0,2.37-1.24A4,4,0,0,1,207.21,562.45Z" transform="translate(308.04 192.08)"/><path class="cls-25" d="M227.27,553.18a3.45,3.45,0,0,1,.88.48,11.06,11.06,0,0,1,2.13,1.74,4.72,4.72,0,0,1,1.31,3.86,3.11,3.11,0,0,1-1.27,2.16,4.41,4.41,0,0,1-2.6.62,14.67,14.67,0,0,0-2.5.05,4.08,4.08,0,0,0-2,.92,4.14,4.14,0,0,0-1.52,3.36,4.63,4.63,0,0,0,.84,2.46c.37.51.65.73.62.77s-.35-.15-.78-.65a4.56,4.56,0,0,1-1.05-2.55,4.46,4.46,0,0,1,1.58-3.76,4.59,4.59,0,0,1,2.24-1.06,16.13,16.13,0,0,1,2.6-.06A4,4,0,0,0,230,561a2.59,2.59,0,0,0,1.08-1.81,4.37,4.37,0,0,0-1.11-3.55,12.88,12.88,0,0,0-2-1.81A4,4,0,0,1,227.27,553.18Z" transform="translate(308.04 192.08)"/><path class="cls-25" d="M146.09,654.91a3.24,3.24,0,0,1-.75.66A10.53,10.53,0,0,1,143,657a4.71,4.71,0,0,1-4.08-.07A3.13,3.13,0,0,1,137.3,655a4.46,4.46,0,0,1,.3-2.65,16.35,16.35,0,0,0,.81-2.38,4.22,4.22,0,0,0-.19-2.21,4.15,4.15,0,0,0-2.65-2.57,4.66,4.66,0,0,0-2.6,0c-.6.17-.91.36-.93.32a2,2,0,0,1,.87-.51,4.45,4.45,0,0,1,5.76,2.63,4.64,4.64,0,0,1,.24,2.47,16.51,16.51,0,0,1-.82,2.46,4,4,0,0,0-.29,2.34,2.61,2.61,0,0,0,1.34,1.63,4.34,4.34,0,0,0,3.71.15,12.88,12.88,0,0,0,2.37-1.23A4,4,0,0,1,146.09,654.91Z" transform="translate(308.04 192.08)"/><path class="cls-25" d="M189.62,596.26a4,4,0,0,1-.69-.72,10.59,10.59,0,0,1-1.51-2.29,4.72,4.72,0,0,1-.11-4.08,3.15,3.15,0,0,1,1.86-1.69,4.47,4.47,0,0,1,2.66.19,15.66,15.66,0,0,0,2.41.7,4.22,4.22,0,0,0,4.65-3,4.64,4.64,0,0,0-.07-2.59c-.2-.6-.4-.89-.36-.92a2.2,2.2,0,0,1,.55.85,4.46,4.46,0,0,1-2.38,5.86,4.6,4.6,0,0,1-2.46.35,15.21,15.21,0,0,1-2.5-.71,3.94,3.94,0,0,0-2.35-.2,2.64,2.64,0,0,0-1.57,1.41,4.39,4.39,0,0,0,0,3.72,13.68,13.68,0,0,0,1.34,2.32A3.56,3.56,0,0,1,189.62,596.26Z" transform="translate(308.04 192.08)"/><path class="cls-25" d="M197.44,627.77s-.28-.23-.7-.72a11,11,0,0,1-1.51-2.29,4.69,4.69,0,0,1-.1-4.08A3.12,3.12,0,0,1,197,619a4.45,4.45,0,0,1,2.65.19,16,16,0,0,0,2.41.7,4.07,4.07,0,0,0,2.2-.28,4.13,4.13,0,0,0,2.46-2.76,4.54,4.54,0,0,0-.08-2.59c-.19-.6-.4-.89-.36-.92a2.07,2.07,0,0,1,.55.85,4.54,4.54,0,0,1,.25,2.75,4.47,4.47,0,0,1-2.63,3.11,4.6,4.6,0,0,1-2.46.35,16.46,16.46,0,0,1-2.49-.71,4,4,0,0,0-2.36-.2,2.64,2.64,0,0,0-1.57,1.41,4.38,4.38,0,0,0,0,3.72,12.45,12.45,0,0,0,1.34,2.32A4.05,4.05,0,0,1,197.44,627.77Z" transform="translate(308.04 192.08)"/><path class="cls-25" d="M134.43,614.33a3.55,3.55,0,0,1,0-1,10.62,10.62,0,0,1,.41-2.72,4.72,4.72,0,0,1,2.67-3.08,3.09,3.09,0,0,1,2.51,0,4.43,4.43,0,0,1,1.84,1.92,16,16,0,0,0,1.31,2.14,4.06,4.06,0,0,0,1.82,1.27,4.13,4.13,0,0,0,3.67-.39,4.65,4.65,0,0,0,1.69-2c.26-.57.3-.93.35-.92a2,2,0,0,1-.16,1,4.46,4.46,0,0,1-5.71,2.74,4.58,4.58,0,0,1-2.05-1.39,14.79,14.79,0,0,1-1.37-2.21,4,4,0,0,0-1.61-1.72,2.65,2.65,0,0,0-2.12,0,4.44,4.44,0,0,0-2.49,2.76,12.81,12.81,0,0,0-.56,2.62A4,4,0,0,1,134.43,614.33Z" transform="translate(308.04 192.08)"/><path class="cls-25" d="M191.33,653.23a3.74,3.74,0,0,1,0-1,11.19,11.19,0,0,1,.42-2.72,4.69,4.69,0,0,1,2.67-3.08,3.09,3.09,0,0,1,2.51,0,4.43,4.43,0,0,1,1.84,1.92,16,16,0,0,0,1.31,2.14,4.06,4.06,0,0,0,1.82,1.27,4.14,4.14,0,0,0,3.67-.39,4.59,4.59,0,0,0,1.69-2c.25-.57.3-.93.35-.92a2,2,0,0,1-.16,1,4.46,4.46,0,0,1-5.71,2.74,4.58,4.58,0,0,1-2.05-1.39,14.79,14.79,0,0,1-1.37-2.21,4,4,0,0,0-1.61-1.72,2.65,2.65,0,0,0-2.12,0,4.4,4.4,0,0,0-2.49,2.75,12.81,12.81,0,0,0-.56,2.62A4,4,0,0,1,191.33,653.23Z" transform="translate(308.04 192.08)"/><path class="cls-25" d="M189.68,535.38a3.55,3.55,0,0,1,0-1,10.5,10.5,0,0,1,.41-2.71,4.71,4.71,0,0,1,2.67-3.09,3.09,3.09,0,0,1,2.51,0,4.43,4.43,0,0,1,1.84,1.92,16,16,0,0,0,1.31,2.14,4.06,4.06,0,0,0,1.82,1.27,4.13,4.13,0,0,0,3.67-.39,4.59,4.59,0,0,0,1.69-2c.26-.57.3-.93.35-.92a2.08,2.08,0,0,1-.16,1,4.61,4.61,0,0,1-1.67,2.2,4.47,4.47,0,0,1-4,.53A4.58,4.58,0,0,1,198,533a15.22,15.22,0,0,1-1.37-2.2A4,4,0,0,0,195,529a2.65,2.65,0,0,0-2.12,0,4.4,4.4,0,0,0-2.49,2.75,12.81,12.81,0,0,0-.56,2.62A3.85,3.85,0,0,1,189.68,535.38Z" transform="translate(308.04 192.08)"/><path class="cls-25" d="M171.09,668.87a3.47,3.47,0,0,1-.93-.37,10.58,10.58,0,0,1-2.33-1.45,4.73,4.73,0,0,1-1.78-3.67,3.12,3.12,0,0,1,1-2.3,4.43,4.43,0,0,1,2.5-.94,16.42,16.42,0,0,0,2.48-.36,4.07,4.07,0,0,0,1.88-1.17,4.12,4.12,0,0,0,1.09-3.53,4.57,4.57,0,0,0-1.14-2.32c-.43-.47-.73-.65-.71-.69a2,2,0,0,1,.85.54,4.48,4.48,0,0,1,.27,6.33,4.58,4.58,0,0,1-2.1,1.33,15.83,15.83,0,0,1-2.56.39,4,4,0,0,0-2.22.8,2.64,2.64,0,0,0-.85,1.94,4.36,4.36,0,0,0,1.55,3.37,12.48,12.48,0,0,0,2.18,1.55A3.93,3.93,0,0,1,171.09,668.87Z" transform="translate(308.04 192.08)"/><path class="cls-25" d="M103.61,553.18a3.61,3.61,0,0,1,.62.79,10.93,10.93,0,0,1,1.28,2.43,4.69,4.69,0,0,1-.3,4.06,3.07,3.07,0,0,1-2,1.5,4.43,4.43,0,0,1-2.63-.44,15.78,15.78,0,0,0-2.33-.94,4.24,4.24,0,0,0-4.92,2.57,4.52,4.52,0,0,0-.18,2.59c.13.61.31.93.26,1a2.16,2.16,0,0,1-.46-.9A4.52,4.52,0,0,1,93,563a4.6,4.6,0,0,1,5.39-2.94,14.83,14.83,0,0,1,2.42.95,4,4,0,0,0,2.32.42,2.67,2.67,0,0,0,1.71-1.25,4.39,4.39,0,0,0,.35-3.7,13.13,13.13,0,0,0-1.11-2.44A3.67,3.67,0,0,1,103.61,553.18Z" transform="translate(308.04 192.08)"/><path class="cls-25" d="M168.75,541.52a3.61,3.61,0,0,1,.62.79,10.93,10.93,0,0,1,1.28,2.43,4.69,4.69,0,0,1-.3,4.06,3.07,3.07,0,0,1-2,1.5,4.43,4.43,0,0,1-2.63-.44,15.78,15.78,0,0,0-2.33-.94,4.26,4.26,0,0,0-4.93,2.57,4.59,4.59,0,0,0-.17,2.59c.13.61.31.93.26.95a2.16,2.16,0,0,1-.46-.9,4.51,4.51,0,0,1,0-2.76,4.45,4.45,0,0,1,2.91-2.84,4.61,4.61,0,0,1,2.48-.1,14.83,14.83,0,0,1,2.42,1,4,4,0,0,0,2.32.42,2.67,2.67,0,0,0,1.71-1.25,4.39,4.39,0,0,0,.35-3.7,12.69,12.69,0,0,0-1.11-2.43A3.81,3.81,0,0,1,168.75,541.52Z" transform="translate(308.04 192.08)"/><path class="cls-12" d="M128.59,610.07a.86.86,0,0,1,0-.26l.06-.77.27-2.93c.27-2.58.64-6.25,1.1-10.76,1-9.12,2.32-21.65,3.8-35.49a40.49,40.49,0,0,0,0-10.08,18,18,0,0,0-3.59-8.52,21.51,21.51,0,0,0-6.41-5.47,25.34,25.34,0,0,0-6.9-2.64,37,37,0,0,0-10.71-.7c-1.27.09-2.25.21-2.92.28l-.76.09-.26,0a.65.65,0,0,1,.25-.07l.75-.14c.67-.11,1.65-.26,2.92-.38a35.65,35.65,0,0,1,10.81.54,25.28,25.28,0,0,1,7,2.62,21.83,21.83,0,0,1,6.58,5.56,18.39,18.39,0,0,1,3.72,8.73,41,41,0,0,1,0,10.21c-1.55,13.84-2.94,26.36-4,35.48-.52,4.51-.95,8.17-1.26,10.75-.15,1.23-.28,2.21-.36,2.92l-.11.75A1,1,0,0,1,128.59,610.07Z" transform="translate(308.04 192.08)"/><path class="cls-12" d="M131.17,606.91c0,.14-13.24,1.66-29.61,3.39s-29.66,3-29.67,2.88,13.24-1.66,29.61-3.39S131.16,606.76,131.17,606.91Z" transform="translate(308.04 192.08)"/><path class="cls-12" d="M211.77,600.36a2.32,2.32,0,0,1,.06-.53l.28-1.5a22.06,22.06,0,0,0,.39-2.37c.12-.93.31-2,.37-3.16L213,591c0-.64,0-1.31.05-2,.06-1.38,0-2.86-.1-4.42A55,55,0,0,0,208,565c-.68-1.4-1.31-2.75-2-3.93-.35-.6-.65-1.2-1-1.74l-1-1.56c-.62-1-1.29-1.84-1.83-2.6s-1.05-1.39-1.48-1.9l-1-1.18c-.21-.27-.32-.42-.3-.44a2.77,2.77,0,0,1,.38.37l1,1.12a23.34,23.34,0,0,1,1.55,1.85c.57.75,1.26,1.58,1.9,2.58l1,1.54c.36.55.68,1.14,1,1.74.73,1.19,1.37,2.54,2.08,3.94a53.19,53.19,0,0,1,5,19.7c.05,1.57.13,3.07.05,4.46,0,.7,0,1.38-.08,2l-.18,1.86c-.08,1.18-.3,2.24-.44,3.17a22,22,0,0,1-.48,2.36l-.38,1.48A1.9,1.9,0,0,1,211.77,600.36Z" transform="translate(308.04 192.08)"/><path class="cls-26" d="M365.29,600.67c-2-9.81,6.11-19.29,16.33-14.71,4.59,2,8.16,5.08,13.49,3.87,8.38-1.9,12.49-12.16,7-19-.67-.83-1.8.23-1.39,1.07,2,4.17,2.64,9.1-.73,12.8-3.06,3.39-7.62,3.93-11.67,2.37-4.75-1.82-8.11-4.9-13.53-4.14a13.1,13.1,0,0,0-10.38,18.11c.23.53,1,.13.9-.38Z" transform="translate(308.04 192.08)"/><path class="cls-15" d="M388.47,448.63a74.38,74.38,0,0,0,7.89,12.28c1.15,1.52,2.48,3.74,4.62,3.81s4.22-2.11,5.76-3.19q6.31-4.45,12.6-8.95a1,1,0,0,0,.35-1.32L408.08,433.4a1,1,0,0,0-1.32-.34c-4.61,3.26-9.3,6.42-13.8,9.84-.89.68-.08,2.2.91,1.55,2.62-1.72,5.16-3.57,7.72-5.38,2.1-1.49,4.27-4.18,6.41-2.26,2,1.76,3.3,5.07,4.75,7.3,1.12,1.73,4.91,5.74,4,7.93-.69,1.75-5.51,3.92-7.08,5-1.95,1.4-4.76,4.49-7.07,5.07-5.12,1.29-10.83-10.49-13.59-14-.27-.35-.75.1-.58.45Z" transform="translate(308.04 192.08)"/><path class="cls-11" d="M333.37,505.1c-5.3,5.21-6.77,13.83-1.75,19.83,4.79,5.72,14.07,7,20,2.33a15,15,0,0,0,3.85-18.84c-4-7-12.89-9.72-20.49-8.59-.84.12-.65,1.54.2,1.49,5.93-.39,12.31.67,16.73,5a13,13,0,0,1-18.28,18.61c-5.39-5.17-4.8-14.19.27-19.29.33-.34-.19-.87-.53-.53Z" transform="translate(308.04 192.08)"/><path class="cls-27" d="M474,558.77q-2.44,16.49-4.71,33a.86.86,0,0,0,1,1c10.27-1.6,20.54-3.17,30.77-5a.79.79,0,0,0,.47-1.15c-5.92-10.58-13.34-21.51-23.23-28.79-.81-.59-1.71.68-1.05,1.36,7.47,7.63,14.72,14.72,20.41,23.88,1.6,2.57,2.32,3.08-.88,3.74-2.85.58-5.8.86-8.67,1.32-6.09,1-12.18,2-18.27,3L471,592q2.13-16.54,4.1-33.09c.07-.6-1-.74-1.06-.14Z" transform="translate(308.04 192.08)"/><path class="cls-28" d="M423.7,537.74c1.54-10.84,3-21.76,4-32.67.08-.88-1.44-1.1-1.56-.21-1.51,10.85-2.54,21.82-3.48,32.74,0,.59,1,.74,1.05.14Z" transform="translate(308.04 192.08)"/><path class="cls-15" d="M543,535c10.87.67,21.81,1.27,32.71,1.37a.8.8,0,0,0,0-1.59c-10.87-.64-21.82-.78-32.71-.85a.54.54,0,0,0,0,1.07Z" transform="translate(308.04 192.08)"/><path class="cls-27" d="M454.73,396.87c10,4.42,20.12,8.81,30.36,12.7.83.31,1.43-1.09.61-1.45-10-4.4-20.31-8.36-30.56-12.22-.56-.22-1,.73-.41,1Z" transform="translate(308.04 192.08)"/><path class="cls-12" d="M481.93,490.34a4.5,4.5,0,0,0-.78-.85,1.61,1.61,0,0,0-2.27,2.27,4.5,4.5,0,0,0,.84.79,1.61,1.61,0,0,0,2.21-2.21Z" transform="translate(308.04 192.08)"/><path class="cls-3" d="M246.68,289.88a39.67,39.67,0,0,0-24.45,23.72,40.8,40.8,0,0,0,3.05,34c11.36,19.56,40.53,25.86,59,12.73s22-42.75,7.19-59.87-44.61-17.91-60.28-1.59" transform="translate(308.04 192.08)"/></g></g></svg>