<svg id="Layer_1" data-name="Layer 1" xmlns="http://www.w3.org/2000/svg" xmlns:xlink="http://www.w3.org/1999/xlink" viewBox="0 0 750 1334"><defs><style>.cls-1{fill:none;}.cls-2{clip-path:url(#clip-path);}.cls-3{fill:#f1eff1;}.cls-4{fill:#e1d2f4;}.cls-5,.cls-9{fill:#fac480;}.cls-5{opacity:0.47;}.cls-6{fill:#ff7180;}.cls-7{fill:#7caaff;}.cls-8{fill:#7e2e83;}.cls-10{fill:#241352;}.cls-11{fill:#ffaea6;}.cls-12{fill:#e5e1ea;}.cls-13{opacity:0.18;}.cls-14{opacity:0.13;}.cls-15{fill:#6f35a4;}.cls-16{fill:#ff947e;}.cls-17{fill:#fbf1fc;}</style><clipPath id="clip-path"><rect class="cls-1" x="1.36" y="-55" width="749.64" height="1457.74" rx="19.01"/></clipPath></defs><title>Untitled-3</title><g class="cls-2"><rect class="cls-3" x="1.36" y="-55" width="749.64" height="1457.74" rx="19.01"/><path class="cls-4" d="M221-29.82A43.36,43.36,0,0,0,194.32-3.9a44.54,44.54,0,0,0,3.34,37.15c12.41,21.38,44.28,28.27,64.41,13.92s24-46.72,7.86-65.43S221.18-37.83,204.06-20"/><path class="cls-5" d="M229.92,1258.19c37.34,62.89,10.42,159.57-52.47,196.9s-158.24,1.48-195.57-61.41a132.44,132.44,0,0,1,46.29-181.49C91.06,1174.85,192.59,1195.29,229.92,1258.19Z"/></g><circle class="cls-4" cx="508.93" cy="396.98" r="180.12"/><path class="cls-6" d="M526.21,223.23c5.5-1.63,11.38-2.35,17-1.14s10.92,4.49,13.76,9.48c3.24,5.7,2.93,12.67,2.53,19.21l-3,49.17c-.28,4.54-.52,9.28,1.24,13.48s6.2,7.65,10.66,6.73c2.27-.47,4.19-2,6.34-2.83s5-.9,6.38,1a5.77,5.77,0,0,1,.68,4A19.46,19.46,0,0,1,572.05,337c3.13-1.52,7.07,1.65,7.12,5.13s-2.76,6.49-6,7.78-6.82,1.25-10.3,1.18c2.87.05,5.08,3.12,4.8,6s-2.54,5.23-5.18,6.35a17.59,17.59,0,0,1-8.47.9,32,32,0,0,1-16.9-6.3c-8.35-6.6-11.74-17.88-11.85-28.52s2.53-21.11,4-31.65c3.44-24.46.62-49.32-2.2-73.87l2.06-.62"/><path class="cls-7" d="M558.87,588.93c-6.64,6.38-9.17,16.31-2.83,24,6,7.21,17.51,8.74,25,3,18-13.88-.76-39.51-20.17-34.2-3.6,1-2.7,6.1.85,6.31,5.68.32,11.75.54,16.29,4.51,4.87,4.28,5,11.51,1,16.42-10.58,13-29-6.15-17.85-17.78a1.58,1.58,0,0,0-2.23-2.23Z"/><path class="cls-8" d="M353.31,518.16c-2.52-2.67-5.3-4.72-6.56-8.29-2.51-7.11,2.29-10.64,7.93-13.29s10.38-5.83,12.09-12.33c2.66-10.13-6-22.64-17-19.63-3.57,1-2.51,5.53-.06,6.94,3.41,2,8,3.1,8.56,7.8.77,6.29-5.43,8.09-9.77,10.35a18.56,18.56,0,0,0-9.71,11.34c-2.56,8.87,2.74,20.92,13.11,20.41a2.09,2.09,0,0,0,1.42-3.3Z"/><path class="cls-9" d="M319.29,626.81c.91,5.88,7,18.32,13.44,20,3.42.91,6-1.34,8.62-3.17,4.83-3.33,9.6-6.73,14.38-10.14,1.74-1.23,2.77-3.61,1.47-5.61l-12.68-19.52c-1.12-1.73-3.73-2.8-5.61-1.47-5.27,3.73-11,7.17-15.74,11.55-3.27,3,.9,8,4.62,6,5.39-2.86,10.28-6.92,15.26-10.44l-5.61-1.47,12.68,19.51,1.47-5.61c-2.87,2-5.74,4.07-8.6,6.12-1.62,1.17-7,6.24-8.84,6-1.62-.18-5-5.93-6-7.11a33.13,33.13,0,0,0-6.54-6.47c-1.27-.87-2.51.55-2.32,1.77Z"/><path class="cls-9" d="M611.08,359.65c.91,5.88,7,18.32,13.44,20,3.42.91,6-1.34,8.63-3.17,4.83-3.33,9.6-6.73,14.38-10.14,1.73-1.23,2.76-3.61,1.47-5.61q-6.35-9.75-12.68-19.52c-1.13-1.73-3.74-2.8-5.62-1.47-5.27,3.73-11,7.17-15.73,11.55-3.28,3,.89,7.95,4.61,6,5.39-2.86,10.28-6.92,15.27-10.44l-5.62-1.47,12.68,19.51,1.47-5.61c-2.86,2-5.74,4.07-8.6,6.12-1.62,1.16-7,6.24-8.84,6-1.61-.18-5-5.93-6-7.11a33.23,33.23,0,0,0-6.55-6.48c-1.27-.86-2.5.56-2.32,1.78Z"/><path class="cls-6" d="M636.18,465.64c-11,5.11-21.8,10.5-32.58,16a3.65,3.65,0,0,0-1,6.15c7.91,8.18,15.7,16.37,24.2,23.94a3.36,3.36,0,0,0,5.13-1.25C637.2,499,645.2,483.33,643,470.27c-.55-3.32-5.63-4.83-7-1.13-2.12,5.79-2.11,12.29-3.47,18.32a96.53,96.53,0,0,1-6.72,20.37l5.74-.6c-7.74-8.77-16.12-16.83-24.49-25-.05,1.9-.1,3.8-.14,5.7,10.57-5.93,21-12,31.37-18.3,2.18-1.34.21-5.09-2.14-4Z"/><path class="cls-6" d="M432.6,617.18c8-8.87,16-18.74,22.26-28.93,2-3.21-2.88-6.88-5.35-4-7.73,9.13-14.59,19.86-20.51,30.22-1.26,2.2,1.87,4.59,3.6,2.67Z"/><path class="cls-10" d="M699.54,301.69l-.61-.54c-2.68-2.37-7.07-2.84-9.67,0a7,7,0,0,0,0,9.67l.53.61c2.4,2.71,7.33,2.63,9.75,0s2.88-7.19,0-9.74Z"/><path class="cls-10" d="M386.46,558.6l-.61-.54c-2.68-2.37-7.07-2.83-9.67,0a7,7,0,0,0,0,9.67l.54.61c2.39,2.71,7.33,2.63,9.74,0s2.88-7.19,0-9.74Z"/><path class="cls-11" d="M477.69,340.85,358.2,385.65l11.41-48.25-31.08-7.9s-33.43,94.33-10.21,96.86c40.64,4.42,102.13-11.67,102.13-11.67Z"/><path class="cls-10" d="M436.2,449l.27,94.51c31.12,38.26,139.45-11.21,139.45-11.21l1.27-38.65,2.51-92.07C577.21,365,543.16,347,543.16,347c-14.08-7-35.55-11-54.89-10-20.19,1-25.18,10.67-33.5,29.09C448.05,380.9,436.2,394.87,436.2,449Z"/><path class="cls-11" d="M538.34,247.89l-1.43,18.9S553,269,548.4,283.61s-15.57,8.25-15.57,8.25-2.75,37.55-41.23,25.65C461,308,462.86,268.38,466.74,234.57A22.64,22.64,0,0,1,493.57,215l23.14,4.51A26.83,26.83,0,0,1,538.34,247.89Z"/><path class="cls-11" d="M536.91,282.47l-10.37,55.28a22.17,22.17,0,0,1-26.94,17.49h0a22.17,22.17,0,0,1-16.68-25.45l5.62-31.68Z"/><path class="cls-10" d="M494.35,283.1s0,.13-.14.36a1.55,1.55,0,0,1-.88.72,2,2,0,0,1-1.76-.38,3.67,3.67,0,0,1-1.29-2,17.74,17.74,0,0,1-.27-6.06c.14-2.28.28-4.77.44-7.38.33-5.23.65-10,.92-13.39.13-1.63.24-3,.33-4.05a7.26,7.26,0,0,1,.2-1.48,9.47,9.47,0,0,1,0,1.49c0,1.06-.1,2.43-.17,4.07-.16,3.43-.43,8.16-.76,13.4-.17,2.61-.33,5.09-.48,7.37a17.9,17.9,0,0,0,.15,5.93c.35,1.65,1.74,2.55,2.64,2.28a1.51,1.51,0,0,0,.84-.58C494.26,283.2,494.33,283.09,494.35,283.1Z"/><path class="cls-10" d="M481.87,313.65a8.41,8.41,0,0,1,1.31.81,36.5,36.5,0,0,0,3.64,2,31.66,31.66,0,0,0,26.62.57,36.28,36.28,0,0,0,3.72-1.89,10.61,10.61,0,0,1,1.34-.75s-.09.1-.3.26-.51.4-.93.67a28.51,28.51,0,0,1-3.68,2,30.58,30.58,0,0,1-26.93-.57,27.44,27.44,0,0,1-3.59-2.2c-.41-.28-.7-.53-.91-.7S481.86,313.66,481.87,313.65Z"/><path class="cls-10" d="M489.39,290.85a16.28,16.28,0,0,0,2.45,1.75,8.76,8.76,0,0,0,12.22-3.92,18.17,18.17,0,0,0,1-2.86,2.31,2.31,0,0,1,0,.83,8,8,0,0,1-.62,2.18,8.85,8.85,0,0,1-12.74,4.1,7.61,7.61,0,0,1-1.77-1.41A2.12,2.12,0,0,1,489.39,290.85Z"/><path class="cls-10" d="M538.12,285.44a12.29,12.29,0,0,0,2.2-.65,2.93,2.93,0,0,0,1.53-1.72,1.77,1.77,0,0,0-.9-2.29,1.42,1.42,0,0,0-1.72.42l-.44-.23a37.92,37.92,0,0,1,2.55-5.14,38.35,38.35,0,0,1-2.1,5.34l-.44-.23a1.93,1.93,0,0,1,2.34-.65,2,2,0,0,1,1.21,1.3,2.58,2.58,0,0,1-.05,1.63,3.24,3.24,0,0,1-1.82,1.91,4.79,4.79,0,0,1-1.72.37C538.35,285.52,538.12,285.48,538.12,285.44Z"/><path class="cls-10" d="M508.5,248.2c0-.06.42-.27,1.18-.39a7.6,7.6,0,0,1,3,.18,7.46,7.46,0,0,1,2.7,1.32c.61.48.89.87.84.92a16.48,16.48,0,0,0-3.67-1.74A16.24,16.24,0,0,0,508.5,248.2Z"/><path class="cls-10" d="M475.23,242.92a7.17,7.17,0,0,1,4.5-.84,7,7,0,0,1,4.29,1.61,22.6,22.6,0,0,0-4.33-1.09A22.11,22.11,0,0,0,475.23,242.92Z"/><path class="cls-6" d="M536.91,266.79c-10.74-10.47-13.9-27.91-16.81-42.63A37.56,37.56,0,0,1,485,228.73a56.68,56.68,0,0,1-12.5,10.93c-1.33.85-2.91,1.68-4.42,1.22-1.8-.54-2.6-2.61-3-4.44a31.5,31.5,0,0,1,.62-17.82,21.49,21.49,0,0,1,12-12.82c6-2.32,12.76-1.31,19,.3a105.72,105.72,0,0,1,26.82,11.09c8.21,4.81,16.11,11.18,19.59,20s3.47,26.09-4.93,30.57"/><path class="cls-10" d="M473.51,340.45c10.4-4.13-69.58,25.56-69.58,25.56l8.12,54.71,30.42-10Z"/><path class="cls-11" d="M367.36,340.45s20.87-29.18,17.15-29.16-5.66,5.51-12.89,9.27c0,0,11.54-36.49,8-35.72S367.5,309,367,309s7.34-26.26,4.38-26.58-10.22,24.08-10.22,24.08,5-23.2,1.83-23.72-7.76,20.86-7.76,20.86,3.69-17.95.84-18.39c-1.73-.26-17.49,44.26-17.49,44.26.41,0,28.83,10.95,28.83,10.95"/><path class="cls-10" d="M528.78,444.39a1.18,1.18,0,0,1-.06-.28c0-.22-.07-.49-.11-.83-.1-.77-.23-1.84-.4-3.19-.33-2.81-.8-6.82-1.37-11.74-1.11-10-2.63-23.65-4.31-38.77a44.35,44.35,0,0,1,0-11.16,20.09,20.09,0,0,1,4.06-9.53,23.89,23.89,0,0,1,7.18-6.07,27.83,27.83,0,0,1,7.68-2.86,38.91,38.91,0,0,1,11.8-.6c1.39.13,2.47.29,3.19.41l.83.15a1,1,0,0,1,.27.07l-.28,0-.83-.1c-.73-.08-1.81-.21-3.2-.31a39.93,39.93,0,0,0-11.7.76A27.26,27.26,0,0,0,534,363.2a23.7,23.7,0,0,0-7,6A19.55,19.55,0,0,0,523,378.5a43.72,43.72,0,0,0,0,11c1.62,15.13,3.09,28.83,4.15,38.79.51,4.93.92,8.94,1.21,11.76.13,1.36.23,2.43.3,3.2l.07.83A1.07,1.07,0,0,1,528.78,444.39Z"/><path class="cls-10" d="M526,440.93c0-.14,14.53,1.28,32.42,3.17s32.38,3.55,32.37,3.69-14.53-1.28-32.43-3.17S525.94,441.07,526,440.93Z"/><polygon class="cls-8" points="431.36 200.72 431.36 263.33 389.53 263.33 388.2 287.07 363.62 261.96 271.52 261.96 279.63 196.11 431.36 200.72"/><path class="cls-12" d="M417.06,218.92c-41.17-.45-82.48-.72-123.65-.06a.14.14,0,0,0,0,.28c41.17.66,82.48.39,123.65-.06a.08.08,0,1,0,0-.16Z"/><path class="cls-12" d="M417.06,230.94c-41.17-.45-82.48-.72-123.65-.06a.15.15,0,0,0,0,.29c41.17.65,82.48.38,123.65-.06a.09.09,0,0,0,0-.17Z"/><path class="cls-12" d="M417.06,243.61c-25.27-.34-50.72-.6-76-.06a.15.15,0,0,0,0,.29c25.27.54,50.72.28,76-.06a.09.09,0,0,0,0-.17Z"/><path class="cls-10" d="M478.68,259.9c-.14.07-.7-.8-1.61-1.65s-1.81-1.37-1.74-1.51a3.42,3.42,0,0,1,2.1,1.13C478.42,258.79,478.8,259.84,478.68,259.9Z"/><path class="cls-10" d="M510.78,263.59A23.81,23.81,0,0,1,509,261.1a22.05,22.05,0,0,1-1.89-2.45,6.1,6.1,0,0,1,2.3,2.13A6,6,0,0,1,510.78,263.59Z"/><g class="cls-13"><path class="cls-10" d="M503.44,291.09c.22.69-1.2,1.74-3.17,2.35s-3.73.55-3.94-.13,1.2-1.74,3.17-2.35S503.23,290.4,503.44,291.09Z"/></g><g class="cls-14"><path class="cls-10" d="M522.81,271.05c0,.72-3.93,1.33-8.79,1.36s-8.8-.52-8.8-1.24,3.93-1.33,8.79-1.36S522.81,270.33,522.81,271.05Z"/></g><g class="cls-14"><path class="cls-10" d="M486.57,273.61c0,.72-3.93,1.33-8.78,1.37s-8.81-.52-8.81-1.24,3.93-1.33,8.79-1.37S486.57,272.89,486.57,273.61Z"/></g><path class="cls-15" d="M539.07,241.25s.2-.26.42-.78a3.76,3.76,0,0,0,0-2.31,13.34,13.34,0,0,0-1.43-3.28L536,231c-1.47-2.8-2.76-5.34-3.68-7.19a20.19,20.19,0,0,1-1.39-3.05,21,21,0,0,1,1.71,2.87c1,1.81,2.36,4.33,3.82,7.13l2,3.95a12.82,12.82,0,0,1,1.36,3.4,3.69,3.69,0,0,1-.2,2.49A1.53,1.53,0,0,1,539.07,241.25Z"/><polygon class="cls-7" points="445.68 422.08 438.59 516.36 536.83 529.52 530.19 420.72 445.68 422.08"/><polyline class="cls-7" points="453.51 358.19 453.51 432.96 464.97 428.66 464.97 343.45 453.51 346.94"/><path class="cls-7" d="M544.54,347.76s-44.36,5.71-31.24,78.18l11.11,1.19S511.87,359,553.57,354.18Z"/><path class="cls-11" d="M531.47,431.86s15.14,89.23-6.21,87c-70.24-7.22-112.07-8.19-112.07-8.19l-11.64,24.17c-.27,4.12,133,42.27,154.43,29.66,15.12-8.91,39.22-32.9,28.28-104.6l-2.58-24Z"/><path class="cls-10" d="M570.43,372.67s16.38,15.73,20.05,75.26l-63.41-7S516.5,339.53,570.43,372.67Z"/><path class="cls-11" d="M420.58,510.7s-34.37-10.78-33.2-7.23,7,3.68,12.88,9.39c0,0-38.42.42-36.58,3.59s26.86,4,27,4.5-27.35,1.21-26.73,4.14,26.18,2.21,26.18,2.21-23.7,2.52-23.21,5.68,22.33.88,22.33.88S371,536,371.45,538.81c.29,1.74,53.54,2.14,53.64,3.42.06.67-4.51-31.53-4.51-31.53"/><path class="cls-10" d="M464.41,422.57a4.6,4.6,0,0,1,.26,1.13,20.5,20.5,0,0,1,.32,3.15,9.25,9.25,0,0,1-1,4.61,6.63,6.63,0,0,1-1.84,2.17,4.88,4.88,0,0,1-2.9,1,5.42,5.42,0,0,1-2.93-.9,7.22,7.22,0,0,1-2-2,10.1,10.1,0,0,1-1.62-4.45,24.27,24.27,0,0,1-.19-3.15,4.62,4.62,0,0,1,.07-1.16c.11,0,.08,1.66.49,4.26a10.08,10.08,0,0,0,1.64,4.21,6,6,0,0,0,4.57,2.63,5.15,5.15,0,0,0,4.33-2.87,9.08,9.08,0,0,0,1.06-4.38,29.78,29.78,0,0,0-.15-3.12A5.63,5.63,0,0,1,464.41,422.57Z"/><path class="cls-10" d="M457.45,424.06a2.47,2.47,0,0,0-.39,1.33,1.67,1.67,0,0,0,.64,1.23,1.42,1.42,0,0,0,1.59-.06,1.41,1.41,0,0,0,.67-1.44,1.67,1.67,0,0,0-.89-1.07,2.49,2.49,0,0,0-1.38-.15s.09-.14.36-.24a1.83,1.83,0,0,1,1.17,0,2,2,0,0,1,1.21,1.29,2,2,0,0,1-3,2,2,2,0,0,1-.73-1.61,1.73,1.73,0,0,1,.41-1.1C457.29,424.09,457.44,424,457.45,424.06Z"/><path class="cls-10" d="M523.3,421s.15.23.26.69a4.45,4.45,0,0,1,0,2,5.6,5.6,0,0,1-1.46,2.62,4.74,4.74,0,0,1-6.77.29,5.65,5.65,0,0,1-1.68-2.49,4.47,4.47,0,0,1-.22-2,1.8,1.8,0,0,1,.2-.71A7,7,0,0,0,514,424a5.54,5.54,0,0,0,1.64,2.24,4.35,4.35,0,0,0,6.12-.26,5.67,5.67,0,0,0,1.45-2.37A6.89,6.89,0,0,0,523.3,421Z"/><path class="cls-10" d="M516.16,418.42s.54-.58,1.71-.47a2.52,2.52,0,0,1,1.76.94,2.1,2.1,0,0,1,0,2.45,1.88,1.88,0,0,1-2.28.87,1.78,1.78,0,0,1-.94-1.79,1.47,1.47,0,0,1,.65-1.19c.29-.16.48-.12.48-.1s-.16.09-.37.27a1.36,1.36,0,0,0-.39,1,1.44,1.44,0,0,0,.75,1.33,1.42,1.42,0,0,0,1.66-.71,1.64,1.64,0,0,0,0-1.88,2.31,2.31,0,0,0-1.44-.87A4.5,4.5,0,0,0,516.16,418.42Z"/><path class="cls-10" d="M514.28,458.67c-.14,0-.3-.43-.35-1s0-1,.17-1,.3.42.35,1S514.43,458.67,514.28,458.67Z"/><path class="cls-10" d="M514.18,462.67c-.14,0-.23-.47-.2-1s.18-1,.33-1,.23.46.19,1S514.33,462.68,514.18,462.67Z"/><path class="cls-10" d="M513.5,466.6c-.14,0-.16-.49,0-1s.32-.95.46-.92.17.48.05,1S513.64,466.64,513.5,466.6Z"/><path class="cls-10" d="M512.28,470.41c-.14-.05-.1-.51.09-1s.45-.9.58-.85.1.5-.09,1S512.41,470.46,512.28,470.41Z"/><path class="cls-10" d="M510.54,474c-.13-.07,0-.53.23-1s.57-.83.7-.77,0,.52-.24,1S510.66,474.09,510.54,474Z"/><path class="cls-10" d="M508.33,477.35c-.12-.09.05-.52.37-1s.67-.74.79-.67-.05.52-.37,1S508.44,477.44,508.33,477.35Z"/><path class="cls-10" d="M505.67,480.34c-.1-.1.13-.51.5-.9s.77-.64.88-.54-.11.49-.5.9S505.77,480.45,505.67,480.34Z"/><path class="cls-10" d="M502.61,482.91c-.08-.12.2-.48.63-.82s.86-.52.95-.41-.19.48-.63.82S502.7,483,502.61,482.91Z"/><path class="cls-10" d="M499.2,485c-.07-.13.27-.45.74-.72s.93-.37,1-.26-.26.45-.75.72S499.26,485.11,499.2,485Z"/><path class="cls-10" d="M495.5,486.51c0-.14.34-.4.85-.59s1-.24,1-.1-.33.39-.85.59S495.55,486.65,495.5,486.51Z"/><path class="cls-10" d="M491.63,487.48c0-.14.39-.35.92-.46s1-.1,1,0-.37.35-.92.47S491.65,487.62,491.63,487.48Z"/><path class="cls-10" d="M487.65,487.9c0-.15.43-.29,1-.33s1,0,1,.19-.43.29-1,.33S487.65,488,487.65,487.9Z"/><path class="cls-10" d="M483.65,487.77c0-.15.47-.23,1-.2s1,.19,1,.33-.46.23-1,.19S483.63,487.91,483.65,487.77Z"/><path class="cls-10" d="M479.7,487.09c0-.14.5-.16,1,0s.95.32.92.46-.48.16-1,.05S479.67,487.23,479.7,487.09Z"/><path class="cls-10" d="M475.9,485.87c.05-.13.51-.09,1,.1s.9.44.86.58-.51.1-1-.09S475.84,486,475.9,485.87Z"/><path class="cls-10" d="M472.31,484.12c.07-.13.52,0,1,.24s.82.57.76.7-.51,0-1-.24S472.24,484.24,472.31,484.12Z"/><path class="cls-10" d="M469,481.83c.09-.11.52.07,1,.4s.72.69.65.81-.52-.06-1-.4S468.94,481.94,469,481.83Z"/><path class="cls-10" d="M466.14,479.07c.11-.1.51.14.89.54s.6.79.5.89-.49-.13-.88-.53S466,479.17,466.14,479.07Z"/><path class="cls-10" d="M463.69,475.92c.12-.08.47.21.79.66s.49.87.38,1-.47-.21-.8-.66S463.57,476,463.69,475.92Z"/><path class="cls-10" d="M461.7,472.45c.13-.06.44.28.69.76s.37.94.24,1-.43-.27-.7-.76S461.57,472.51,461.7,472.45Z"/><path class="cls-10" d="M460.2,468.74c.13-.05.4.34.58.85s.24,1,.1,1-.39-.33-.58-.85S460.06,468.78,460.2,468.74Z"/><path class="cls-10" d="M459.22,464.86c.14,0,.35.39.46.92s.1,1,0,1-.35-.37-.46-.92S459.08,464.88,459.22,464.86Z"/><path class="cls-10" d="M458.79,460.88c.15,0,.29.44.33,1s0,1-.19,1-.29-.43-.33-1S458.65,460.89,458.79,460.88Z"/><path class="cls-10" d="M459,456.89c.14,0,.22.47.18,1s-.19,1-.33,1-.23-.46-.19-1S458.81,456.87,459,456.89Z"/><path class="cls-10" d="M461.08,454.77c0,.14-.46.24-1,.22a2.51,2.51,0,0,1-.78-.13l.16-.13c-.07.13-.14.2-.2.18s-.1-.1-.11-.24v-.08l.17,0a2.87,2.87,0,0,1,.79-.07C460.64,454.49,461.08,454.62,461.08,454.77Z"/><path class="cls-10" d="M465.08,454.91c0,.14-.46.24-1,.22s-1-.15-1-.29.45-.25,1-.23S465.08,454.77,465.08,454.91Z"/><path class="cls-10" d="M469.07,455.05c0,.15-.45.25-1,.23s-1-.15-1-.3.46-.24,1-.22S469.08,454.91,469.07,455.05Z"/><path class="cls-10" d="M473.07,455.2c0,.14-.46.24-1,.22s-1-.15-1-.29.46-.25,1-.23S473.08,455.06,473.07,455.2Z"/><path class="cls-10" d="M477.07,455.34c0,.15-.46.25-1,.23s-1-.16-1-.3.46-.24,1-.22S477.07,455.2,477.07,455.34Z"/><path class="cls-10" d="M481.07,455.49c0,.14-.46.24-1,.22s-1-.15-1-.29.45-.25,1-.23S481.07,455.34,481.07,455.49Z"/><path class="cls-10" d="M485.06,455.63c0,.15-.45.25-1,.23s-1-.16-1-.3.46-.24,1-.22S485.07,455.49,485.06,455.63Z"/><path class="cls-10" d="M489.06,455.78c0,.14-.46.24-1,.22s-1-.15-1-.3.46-.24,1-.22S489.07,455.63,489.06,455.78Z"/><path class="cls-10" d="M493.06,455.92c0,.14-.46.24-1,.22s-1-.15-1-.29.46-.25,1-.23S493.06,455.78,493.06,455.92Z"/><path class="cls-10" d="M497.05,456.06c0,.15-.45.25-1,.23s-1-.15-1-.3.45-.24,1-.22S497.06,455.92,497.05,456.06Z"/><path class="cls-10" d="M501.05,456.21c0,.14-.45.24-1,.22s-1-.15-1-.29.46-.25,1-.23S501.06,456.07,501.05,456.21Z"/><path class="cls-10" d="M505.05,456.35c0,.15-.46.25-1,.23s-1-.15-1-.3.46-.24,1-.22S505.05,456.21,505.05,456.35Z"/><path class="cls-10" d="M509.05,456.5c0,.14-.46.24-1,.22s-1-.15-1-.29.46-.25,1-.23S509.05,456.35,509.05,456.5Z"/><path class="cls-10" d="M513,456.64c0,.15-.45.25-1,.23s-1-.16-1-.3.45-.24,1-.22S513.05,456.5,513,456.64Z"/><path class="cls-16" d="M513.92,645.61a212,212,0,0,0,5.23-36.14c.16-3.72-5.9-4.65-6.6-.89A210.78,210.78,0,0,0,509.48,645c0,2.5,3.87,3.13,4.44.6Z"/><path class="cls-10" d="M575.34,685.69l-.6-.54c-2.68-2.37-7.07-2.84-9.68,0a7,7,0,0,0,0,9.67l.54.61c2.4,2.7,7.33,2.62,9.74,0s2.89-7.19,0-9.74Z"/><circle class="cls-4" cx="257.09" cy="734.35" r="180.12" transform="translate(-443.96 396.88) rotate(-45)"/><path class="cls-11" d="M284.43,673.61l119.5,44.8-11.41-48.26,31.08-7.9s33.42,94.34,10.21,96.86c-40.64,4.42-102.14-11.67-102.14-11.67Z"/><path class="cls-15" d="M325.93,781.8l-.28,94.5c-31.11,38.26-139.45-11.21-139.45-11.21l-1.26-38.65-2.52-92.06c2.5-36.67,36.55-54.66,36.55-54.66,14.07-7,35.54-11,54.89-10,20.19,1,25.18,10.66,33.49,29.09C314.07,713.65,325.93,727.62,325.93,781.8Z"/><path class="cls-11" d="M230.66,764.61s-15.14,89.23,6.21,87c70.24-7.22,112.07-8.2,112.07-8.2l11.64,24.17c.27,4.12-133,42.28-154.44,29.66-15.12-8.91-39.21-32.9-28.27-104.6l2.58-24Z"/><path class="cls-15" d="M192,705.42s-16.38,15.74-20,75.27l63.41-7S246,672.28,192,705.42Z"/><path class="cls-11" d="M223.78,580.64l1.44,18.9s-16.07,2.17-11.49,16.83,15.57,8.24,15.57,8.24,2.75,37.56,41.22,25.65c30.62-9.48,28.75-49.13,24.86-82.93a22.62,22.62,0,0,0-26.83-19.58l-23.13,4.51A26.84,26.84,0,0,0,223.78,580.64Z"/><path class="cls-11" d="M225.22,615.23l10.36,55.28A22.18,22.18,0,0,0,262.52,688h0a22.17,22.17,0,0,0,16.69-25.44l-5.63-31.69Z"/><path class="cls-10" d="M267.77,615.85s.09.11.23.31a1.55,1.55,0,0,0,.85.58c.89.26,2.29-.63,2.64-2.29a18.17,18.17,0,0,0,.15-5.93c-.15-2.27-.31-4.76-.48-7.37-.33-5.23-.6-10-.77-13.4-.06-1.64-.12-3-.17-4.06a7.63,7.63,0,0,1,0-1.5,8.53,8.53,0,0,1,.2,1.49c.08,1.05.2,2.41.33,4.05.26,3.42.59,8.16.92,13.39.15,2.61.3,5.09.44,7.37a17.79,17.79,0,0,1-.28,6.07,3.62,3.62,0,0,1-1.29,2,2,2,0,0,1-1.75.39,1.55,1.55,0,0,1-.88-.72A1.1,1.1,0,0,1,267.77,615.85Z"/><path class="cls-10" d="M280.26,646.4s-.09.11-.29.28-.5.42-.91.7a27.44,27.44,0,0,1-3.59,2.2,30.58,30.58,0,0,1-26.93.57,27.69,27.69,0,0,1-3.68-2c-.42-.27-.72-.51-.93-.66s-.32-.25-.31-.27a11.33,11.33,0,0,1,1.35.76,34.6,34.6,0,0,0,3.72,1.88,31.61,31.61,0,0,0,26.62-.56,34.32,34.32,0,0,0,3.64-2A11,11,0,0,1,280.26,646.4Z"/><path class="cls-10" d="M272.74,623.61a2.25,2.25,0,0,1-.5.66,7.79,7.79,0,0,1-1.77,1.41,8.84,8.84,0,0,1-12.74-4.09,7.7,7.7,0,0,1-.62-2.18,2.05,2.05,0,0,1,0-.83,16.35,16.35,0,0,0,1,2.85,8.79,8.79,0,0,0,12.23,3.93A17.2,17.2,0,0,0,272.74,623.61Z"/><path class="cls-10" d="M224,618.2a1.39,1.39,0,0,1-.64.06,4.84,4.84,0,0,1-1.72-.38,3.23,3.23,0,0,1-1.83-1.91,2.69,2.69,0,0,1,0-1.62,2,2,0,0,1,1.22-1.3,1.9,1.9,0,0,1,2.33.65l-.44.23a37.25,37.25,0,0,1-2.09-5.35,41.62,41.62,0,0,1,2.55,5.15l-.44.23a1.44,1.44,0,0,0-1.72-.43,1.76,1.76,0,0,0-.9,2.29,2.91,2.91,0,0,0,1.53,1.73A11.8,11.8,0,0,0,224,618.2Z"/><path class="cls-10" d="M253.63,581a17.14,17.14,0,0,0-4,.3A16.42,16.42,0,0,0,245.9,583s.24-.43.85-.91a7.63,7.63,0,0,1,2.7-1.33,7.76,7.76,0,0,1,3-.17C253.21,580.69,253.65,580.89,253.63,581Z"/><path class="cls-10" d="M286.9,575.68a14,14,0,0,0-8.8.77,8.49,8.49,0,0,1,8.8-.77Z"/><path class="cls-10" d="M225.22,599.54C236,589.07,239.11,571.63,242,556.92a37.61,37.61,0,0,0,35.09,4.57,56.63,56.63,0,0,0,12.5,10.92c1.33.85,2.91,1.68,4.42,1.22,1.8-.54,2.6-2.61,3-4.44a31.64,31.64,0,0,0-.62-17.81c-2.05-5.67-6.34-10.65-12-12.82-6-2.33-12.76-1.32-19,.3a105.9,105.9,0,0,0-26.82,11.08c-8.22,4.82-16.11,11.18-19.6,20s-3.47,26.08,4.94,30.56"/><path class="cls-15" d="M288.62,673.21c-10.41-4.14,69.57,25.56,69.57,25.56l-8.11,54.71-30.42-10Z"/><path class="cls-11" d="M341.55,843.46s34.37-10.78,33.19-7.24-7,3.68-12.87,9.4c0,0,38.42.42,36.57,3.58s-26.86,4-27,4.5,27.36,1.22,26.74,4.14S372,860.05,372,860.05s23.7,2.52,23.21,5.68-22.33.88-22.33.88,18.28,2.09,17.81,4.95c-.29,1.74-53.54,2.14-53.65,3.42,0,.67,4.52-31.52,4.52-31.52"/><path class="cls-11" d="M394.76,673.21S373.89,644,377.61,644s5.67,5.51,12.89,9.27c0,0-11.53-36.49-8-35.72s12.08,24.19,12.64,24.16-7.35-26.26-4.38-26.59S401,639.25,401,639.25s-5-23.2-1.84-23.72S407,636.38,407,636.38s-3.7-18-.84-18.38c1.73-.27,17.49,44.25,17.49,44.25-.41,0-28.84,11-28.84,11"/><path class="cls-17" d="M202.27,753.48a4.39,4.39,0,0,1,.26,1.06,11.91,11.91,0,0,1,.19,3,5.64,5.64,0,0,1-.52,2.05,4.77,4.77,0,0,1-1.57,1.86,3.32,3.32,0,0,1-2.66.6,4.79,4.79,0,0,1-2.41-1.6,18,18,0,0,0-1.92-2,4.64,4.64,0,0,0-6.09.39,5.06,5.06,0,0,0-1.32,2.51c-.13.68-.1,1.07-.15,1.07a2.34,2.34,0,0,1-.05-1.1,5,5,0,0,1,1.25-2.74,5,5,0,0,1,6.67-.53,16.42,16.42,0,0,1,2,2,4.31,4.31,0,0,0,2.14,1.46,2.9,2.9,0,0,0,2.28-.49,4.6,4.6,0,0,0,1.46-1.66,6.06,6.06,0,0,0,.54-1.9,14.33,14.33,0,0,0,0-2.92A4.28,4.28,0,0,1,202.27,753.48Z"/><path class="cls-17" d="M221,737.27a4.65,4.65,0,0,1,.78-.77,11.36,11.36,0,0,1,2.45-1.73,5.92,5.92,0,0,1,2-.62,4.81,4.81,0,0,1,2.41.38,3.33,3.33,0,0,1,1.89,2,4.76,4.76,0,0,1-.11,2.89,19,19,0,0,0-.69,2.66,4.59,4.59,0,0,0,.39,2.4,4.51,4.51,0,0,0,3.11,2.6,5,5,0,0,0,2.84-.18c.64-.23,1-.47,1-.43a2.39,2.39,0,0,1-.91.62,5,5,0,0,1-3,.35,4.87,4.87,0,0,1-3.48-2.75,5.06,5.06,0,0,1-.45-2.66,16.28,16.28,0,0,1,.69-2.75,4.37,4.37,0,0,0,.13-2.59A2.87,2.87,0,0,0,228.5,735a4.46,4.46,0,0,0-2.18-.39,5.61,5.61,0,0,0-1.89.53,14.37,14.37,0,0,0-2.49,1.54A4.43,4.43,0,0,1,221,737.27Z"/><path class="cls-17" d="M219.78,696.9s.24-.31.77-.78A11.39,11.39,0,0,1,223,694.4a6,6,0,0,1,2-.62,4.8,4.8,0,0,1,2.41.37,3.36,3.36,0,0,1,1.89,2,4.79,4.79,0,0,1-.11,2.9,17.06,17.06,0,0,0-.68,2.66,4.64,4.64,0,0,0,3.49,5,5.16,5.16,0,0,0,2.84-.18c.65-.24,1-.47,1-.44a2.33,2.33,0,0,1-.91.63,5,5,0,0,1-3,.35,4.88,4.88,0,0,1-3.47-2.76,4.93,4.93,0,0,1-.46-2.66,17.17,17.17,0,0,1,.69-2.74,4.4,4.4,0,0,0,.13-2.6,2.9,2.9,0,0,0-1.61-1.68,4.32,4.32,0,0,0-2.17-.38,5.6,5.6,0,0,0-1.9.52,13.24,13.24,0,0,0-2.48,1.55A5.21,5.21,0,0,1,219.78,696.9Z"/><path class="cls-17" d="M259.81,749.48a4.79,4.79,0,0,1-.84-.7,11.62,11.62,0,0,1-1.93-2.3,6,6,0,0,1-.79-2,4.77,4.77,0,0,1,.16-2.44A3.34,3.34,0,0,1,258.2,740a4.76,4.76,0,0,1,2.89-.14,19.12,19.12,0,0,0,2.71.45,4.67,4.67,0,0,0,4.68-3.93,5,5,0,0,0-.43-2.8c-.29-.63-.55-.92-.52-1a2.19,2.19,0,0,1,.7.85,4.87,4.87,0,0,1-1.83,6.65,5.09,5.09,0,0,1-2.61.69,17.44,17.44,0,0,1-2.79-.45,4.39,4.39,0,0,0-2.6.09,2.9,2.9,0,0,0-1.53,1.75,4.3,4.3,0,0,0-.19,2.2,5.81,5.81,0,0,0,.68,1.85,14.76,14.76,0,0,0,1.76,2.34A4,4,0,0,1,259.81,749.48Z"/><path class="cls-17" d="M287.11,791.71a4.78,4.78,0,0,1-.82.71,11.49,11.49,0,0,1-2.58,1.54,5.83,5.83,0,0,1-2,.47,4.82,4.82,0,0,1-2.38-.55,3.38,3.38,0,0,1-1.75-2.09,4.82,4.82,0,0,1,.33-2.88,18.13,18.13,0,0,0,.88-2.6,4.62,4.62,0,0,0-.21-2.43,4.52,4.52,0,0,0-2.91-2.82,5,5,0,0,0-2.84,0c-.67.19-1,.4-1,.36a2.25,2.25,0,0,1,.95-.55,4.87,4.87,0,0,1,6.27,2.87,5,5,0,0,1,.26,2.69,16.84,16.84,0,0,1-.89,2.68,4.29,4.29,0,0,0-.32,2.58,2.9,2.9,0,0,0,1.48,1.8,4.53,4.53,0,0,0,2.14.54,5.86,5.86,0,0,0,1.93-.38,14.15,14.15,0,0,0,2.59-1.36A4.62,4.62,0,0,1,287.11,791.71Z"/><path class="cls-17" d="M319.25,725.11a4.09,4.09,0,0,1-.82.72,11.92,11.92,0,0,1-2.58,1.53,5.83,5.83,0,0,1-2.05.47,4.72,4.72,0,0,1-2.38-.55,3.38,3.38,0,0,1-1.75-2.09,4.83,4.83,0,0,1,.33-2.88,17.72,17.72,0,0,0,.88-2.6,4.62,4.62,0,0,0-.21-2.43,4.53,4.53,0,0,0-2.91-2.81,5.05,5.05,0,0,0-2.84,0c-.66.19-1,.4-1,.36a2.25,2.25,0,0,1,1-.55,5,5,0,0,1,3-.13,4.88,4.88,0,0,1,3.26,3,5,5,0,0,1,.26,2.69,17,17,0,0,1-.89,2.69,4.26,4.26,0,0,0-.32,2.57,2.87,2.87,0,0,0,1.48,1.8,4.31,4.31,0,0,0,2.14.54,5.62,5.62,0,0,0,1.93-.38,14.15,14.15,0,0,0,2.59-1.36A4.62,4.62,0,0,1,319.25,725.11Z"/><path class="cls-17" d="M341.18,715a3.8,3.8,0,0,1,.95.53,11.53,11.53,0,0,1,2.32,1.9,5.86,5.86,0,0,1,1.14,1.78,4.88,4.88,0,0,1,.29,2.43A3.38,3.38,0,0,1,344.5,724a4.82,4.82,0,0,1-2.82.66,19.09,19.09,0,0,0-2.75,0,4.6,4.6,0,0,0-2.21,1,4.52,4.52,0,0,0-1.67,3.69,5.09,5.09,0,0,0,.93,2.69c.4.56.71.8.68.83a2.26,2.26,0,0,1-.84-.71,5,5,0,0,1-1.14-2.78,4.9,4.9,0,0,1,1.73-4.09,5,5,0,0,1,2.44-1.15,17.81,17.81,0,0,1,2.83-.07,4.32,4.32,0,0,0,2.53-.57,2.89,2.89,0,0,0,1.19-2,4.48,4.48,0,0,0-.21-2.2,5.71,5.71,0,0,0-1-1.68,13.62,13.62,0,0,0-2.15-2A4.8,4.8,0,0,1,341.18,715Z"/><path class="cls-17" d="M252.47,826.14a4,4,0,0,1-.83.72,11.92,11.92,0,0,1-2.57,1.54,6.3,6.3,0,0,1-2.06.47,4.86,4.86,0,0,1-2.38-.56,3.4,3.4,0,0,1-1.74-2.09,4.76,4.76,0,0,1,.33-2.88,17.72,17.72,0,0,0,.88-2.6,4.58,4.58,0,0,0-.21-2.42A4.51,4.51,0,0,0,241,815.5a5,5,0,0,0-2.84,0c-.66.18-1,.4-1,.35a2.39,2.39,0,0,1,.95-.55,5,5,0,0,1,3-.13,4.87,4.87,0,0,1,3.26,3,5,5,0,0,1,.26,2.68,16.63,16.63,0,0,1-.89,2.69,4.37,4.37,0,0,0-.33,2.58,2.91,2.91,0,0,0,1.48,1.79,4.37,4.37,0,0,0,2.15.54,5.62,5.62,0,0,0,1.93-.38,14.5,14.5,0,0,0,2.59-1.36A5.33,5.33,0,0,1,252.47,826.14Z"/><path class="cls-17" d="M300,762.05s-.3-.25-.75-.79a11.89,11.89,0,0,1-1.65-2.51,5.88,5.88,0,0,1-.55-2,4.71,4.71,0,0,1,.45-2.4,3.3,3.3,0,0,1,2-1.83,4.69,4.69,0,0,1,2.89.2,19.22,19.22,0,0,0,2.64.77,4.64,4.64,0,0,0,5.11-3.34,5.11,5.11,0,0,0-.09-2.84c-.22-.66-.44-1-.4-1a2.44,2.44,0,0,1,.59.92,5,5,0,0,1,.25,3,4.86,4.86,0,0,1-2.86,3.39A5,5,0,0,1,305,754a16,16,0,0,1-2.72-.78,4.49,4.49,0,0,0-2.59-.21,2.9,2.9,0,0,0-1.73,1.56,4.43,4.43,0,0,0-.45,2.16,5.7,5.7,0,0,0,.46,1.91,13.47,13.47,0,0,0,1.47,2.53A5.14,5.14,0,0,1,300,762.05Z"/><path class="cls-17" d="M308.58,796.49a4.07,4.07,0,0,1-.75-.8,11.89,11.89,0,0,1-1.65-2.51,5.82,5.82,0,0,1-.55-2,4.71,4.71,0,0,1,.45-2.4,3.33,3.33,0,0,1,2-1.83,4.84,4.84,0,0,1,2.89.2,17.91,17.91,0,0,0,2.64.77,4.66,4.66,0,0,0,5.11-3.34,5.11,5.11,0,0,0-.09-2.84c-.22-.65-.45-1-.41-1a2.24,2.24,0,0,1,.6.93,5,5,0,0,1,.25,3,4.82,4.82,0,0,1-2.86,3.38,5,5,0,0,1-2.67.37,16.89,16.89,0,0,1-2.72-.77,4.33,4.33,0,0,0-2.59-.21,2.89,2.89,0,0,0-1.73,1.55,4.34,4.34,0,0,0-.45,2.16,5.76,5.76,0,0,0,.46,1.92,14.16,14.16,0,0,0,1.47,2.53A4.42,4.42,0,0,1,308.58,796.49Z"/><path class="cls-17" d="M239.73,781.8a4.26,4.26,0,0,1,0-1.1,12.09,12.09,0,0,1,.46-3,6,6,0,0,1,1-1.88,4.8,4.8,0,0,1,2-1.47,3.31,3.31,0,0,1,2.72,0,4.7,4.7,0,0,1,2,2.09,17.31,17.31,0,0,0,1.44,2.34,4.49,4.49,0,0,0,2,1.39,4.54,4.54,0,0,0,4-.43,5,5,0,0,0,1.84-2.17c.28-.62.33-1,.37-1a2.18,2.18,0,0,1-.18,1.09,5,5,0,0,1-1.83,2.39,4.88,4.88,0,0,1-4.39.59,5,5,0,0,1-2.23-1.52,16.64,16.64,0,0,1-1.49-2.41,4.36,4.36,0,0,0-1.78-1.89,2.91,2.91,0,0,0-2.33,0,4.48,4.48,0,0,0-1.78,1.3,5.81,5.81,0,0,0-.95,1.73,14.37,14.37,0,0,0-.61,2.86A4.7,4.7,0,0,1,239.73,781.8Z"/><path class="cls-17" d="M301.91,824.31a3.76,3.76,0,0,1,0-1.1,11.55,11.55,0,0,1,.46-3,6,6,0,0,1,1-1.88,4.77,4.77,0,0,1,1.94-1.47,3.37,3.37,0,0,1,2.73,0,4.83,4.83,0,0,1,2,2.1,18,18,0,0,0,1.44,2.34,4.64,4.64,0,0,0,6,1,5.12,5.12,0,0,0,1.85-2.17c.27-.63.32-1,.37-1a2.13,2.13,0,0,1-.19,1.09,4.85,4.85,0,0,1-6.21,3,4.91,4.91,0,0,1-2.24-1.52,17.83,17.83,0,0,1-1.49-2.4,4.34,4.34,0,0,0-1.77-1.89,2.91,2.91,0,0,0-2.33,0,4.51,4.51,0,0,0-1.79,1.3,6,6,0,0,0-.94,1.73,13.68,13.68,0,0,0-.61,2.86A5.73,5.73,0,0,1,301.91,824.31Z"/><path class="cls-17" d="M300.11,695.53a3.93,3.93,0,0,1,0-1.1,11.65,11.65,0,0,1,.47-3,6,6,0,0,1,.95-1.88,4.78,4.78,0,0,1,1.95-1.47,3.34,3.34,0,0,1,2.72,0,4.85,4.85,0,0,1,2,2.1,19.1,19.1,0,0,0,1.43,2.34,4.66,4.66,0,0,0,6,1,5,5,0,0,0,1.84-2.17c.28-.63.33-1,.38-1a2.45,2.45,0,0,1-.19,1.09,4.92,4.92,0,0,1-1.82,2.39,5,5,0,0,1-6.63-.94,16,16,0,0,1-1.49-2.4,4.4,4.4,0,0,0-1.77-1.89,2.87,2.87,0,0,0-2.33,0,4.51,4.51,0,0,0-1.79,1.3,5.56,5.56,0,0,0-.94,1.73,13.68,13.68,0,0,0-.61,2.86A5.73,5.73,0,0,1,300.11,695.53Z"/><path class="cls-17" d="M279.79,841.4a4.22,4.22,0,0,1-1-.41,11.66,11.66,0,0,1-2.54-1.6,5.79,5.79,0,0,1-1.35-1.62,4.84,4.84,0,0,1-.59-2.37,3.35,3.35,0,0,1,1.08-2.5,4.79,4.79,0,0,1,2.71-1,17,17,0,0,0,2.72-.39,4.65,4.65,0,0,0,3.26-5.16,5.06,5.06,0,0,0-1.26-2.55c-.47-.5-.81-.7-.78-.74a2.33,2.33,0,0,1,.92.6,4.92,4.92,0,0,1,1.48,2.62,4.85,4.85,0,0,1-1.2,4.27A5,5,0,0,1,281,832a17.4,17.4,0,0,1-2.79.42,4.47,4.47,0,0,0-2.45.88,2.93,2.93,0,0,0-.93,2.13,4.52,4.52,0,0,0,.49,2.16,5.78,5.78,0,0,0,1.22,1.55,13.73,13.73,0,0,0,2.38,1.69A4.9,4.9,0,0,1,279.79,841.4Z"/><path class="cls-17" d="M206.05,715a4.2,4.2,0,0,1,.66.86,11.48,11.48,0,0,1,1.4,2.66,5.81,5.81,0,0,1,.35,2.08,4.8,4.8,0,0,1-.68,2.34,3.37,3.37,0,0,1-2.18,1.63,4.88,4.88,0,0,1-2.86-.49,18.06,18.06,0,0,0-2.55-1,4.64,4.64,0,0,0-2.43.07,4.54,4.54,0,0,0-3,2.76,5,5,0,0,0-.19,2.83c.16.67.35,1,.31,1a2.33,2.33,0,0,1-.5-1,4.9,4.9,0,0,1,0-3,4.85,4.85,0,0,1,3.18-3.09,5,5,0,0,1,2.7-.12,17.54,17.54,0,0,1,2.63,1,4.4,4.4,0,0,0,2.56.47,2.91,2.91,0,0,0,1.87-1.38,4.31,4.31,0,0,0,.66-2.11,5.79,5.79,0,0,0-.27-1.95,14.26,14.26,0,0,0-1.22-2.66A4.15,4.15,0,0,1,206.05,715Z"/><path class="cls-17" d="M277.23,702.24a4,4,0,0,1,.67.86,11.93,11.93,0,0,1,1.39,2.66,5.81,5.81,0,0,1,.36,2.08,4.82,4.82,0,0,1-.69,2.34,3.37,3.37,0,0,1-2.18,1.63,4.88,4.88,0,0,1-2.86-.49,18.06,18.06,0,0,0-2.55-1,4.64,4.64,0,0,0-5.41,2.83,5.08,5.08,0,0,0-.18,2.83c.15.67.34,1,.3,1a2.33,2.33,0,0,1-.5-1,4.86,4.86,0,0,1,3.21-6.09,5,5,0,0,1,2.7-.12,17.54,17.54,0,0,1,2.63,1,4.4,4.4,0,0,0,2.56.47,3,3,0,0,0,1.88-1.38,4.4,4.4,0,0,0,.65-2.11,5.79,5.79,0,0,0-.27-2,13.64,13.64,0,0,0-1.22-2.66A4.74,4.74,0,0,1,277.23,702.24Z"/><path class="cls-10" d="M233.35,777.14a1,1,0,0,1,0-.28l.07-.84c.07-.77.17-1.84.3-3.2.29-2.82.7-6.82,1.2-11.76,1.07-10,2.54-23.65,4.16-38.78a44.27,44.27,0,0,0,0-11,19.52,19.52,0,0,0-3.93-9.31,23.86,23.86,0,0,0-7-6,28,28,0,0,0-7.55-2.88,40.27,40.27,0,0,0-11.71-.75c-1.39.09-2.46.22-3.19.31l-.83.1a.91.91,0,0,1-.29,0l.28-.07.82-.15c.73-.11,1.8-.28,3.2-.4a38.85,38.85,0,0,1,11.8.59,27.67,27.67,0,0,1,7.68,2.87,24,24,0,0,1,7.18,6.06,20,20,0,0,1,4.05,9.54,43.8,43.8,0,0,1,0,11.15c-1.68,15.12-3.2,28.81-4.31,38.77-.58,4.93-1,8.93-1.37,11.74l-.4,3.19-.12.83A.87.87,0,0,1,233.35,777.14Z"/><path class="cls-10" d="M236.17,773.69c0,.14-14.48,1.79-32.37,3.68s-32.4,3.32-32.42,3.17,14.48-1.79,32.37-3.68S236.15,773.54,236.17,773.69Z"/><path class="cls-8" d="M390.84,799.3c.55-3.63.45-7.08,2.48-10.27,4-6.37,9.78-4.77,15.35-2s11,4.57,17.15,1.9c9.62-4.16,14.14-18.67,5-25.5-3-2.21-5.9,1.44-5.5,4.23.55,3.91,2.49,8.2-.85,11.56-4.48,4.48-9.72.71-14.18-1.3a18.53,18.53,0,0,0-14.91-.64c-8.56,3.46-14.77,15.07-8,22.91a2.09,2.09,0,0,0,3.47-.92Z"/><path class="cls-6" d="M456.29,661.61c-6.64,6.38-9.17,16.31-2.83,24,6,7.21,17.51,8.74,25,3,18-13.88-.76-39.5-20.17-34.2-3.6,1-2.7,6.1.85,6.31,5.68.32,11.75.54,16.29,4.51,4.87,4.28,5,11.51,1,16.42-10.58,13-29-6.15-17.85-17.78a1.58,1.58,0,0,0-2.23-2.23Z"/><path class="cls-7" d="M176.66,648.93c-6.65,6.38-9.17,16.31-2.84,24,6,7.21,17.52,8.74,25,3,18-13.89-.76-39.51-20.18-34.2-3.59,1-2.69,6.1.86,6.3,5.67.33,11.75.54,16.28,4.52,4.87,4.28,5,11.5,1,16.42-10.58,13-29-6.15-17.84-17.78a1.58,1.58,0,0,0-2.23-2.23Z"/><path class="cls-6" d="M80.25,809.18c4.58,17,9.61,33.78,14.85,50.57,1.26,4,5.08,5.31,8.55,3C117.3,853.43,131,844.31,143.88,834c2.49-2,2-5.95-.51-7.64-15.14-10.39-35.59-25.73-54.8-25.84-4.89,0-8.3,6.85-3.35,9.71,7.75,4.47,17,6.07,25.33,9.51,9.56,4,19,8.63,27.46,14.66.19-2.79.38-5.57.56-8.36-14.45,8.9-28,18.87-41.8,28.81l8.12,1.63C99,839.93,93,823.46,86.5,807.12c-1.37-3.45-7.23-1.56-6.25,2.06Z"/><path class="cls-9" d="M476.56,737.8c11.86,1.66,24.37,2.82,36.35,2.39,4.4-.17,4.23-6.28,0-6.72a206.19,206.19,0,0,0-35.75-.11c-2.35.17-3.29,4.06-.6,4.44Z"/><path class="cls-9" d="M76.29,737.8c11.86,1.66,24.37,2.82,36.34,2.39,4.4-.17,4.24-6.28,0-6.72a206.08,206.08,0,0,0-35.74-.11c-2.35.17-3.29,4.06-.6,4.44Z"/><path class="cls-10" d="M155.78,718.34l-.61-.54c-2.67-2.37-7.06-2.83-9.67,0a7,7,0,0,0,0,9.67l.54.61c2.4,2.71,7.33,2.63,9.74,0s2.88-7.19,0-9.74Z"/><path class="cls-10" d="M325.85,774.34a1.34,1.34,0,0,1-.05-.47c0-.38,0-.83-.05-1.37,0-1.19-.07-2.9-.16-5-.16-4.24-.55-10.09-1-16.55s-.81-12.33-.88-16.58c0-2.12,0-3.84,0-5,0-.55,0-1,.05-1.37a1.58,1.58,0,0,1,.06-.48,1.87,1.87,0,0,1,.05.48l0,1.37c0,1.18.08,2.9.16,5,.16,4.24.56,10.09,1,16.55s.8,12.33.87,16.58c0,2.12,0,3.84,0,5l-.05,1.37A2.32,2.32,0,0,1,325.85,774.34Z"/><polygon class="cls-10" points="393.98 676.33 425.39 667.52 427.25 673.21 395.56 683.01 393.98 676.33"/><path class="cls-12" d="M414,675a3.9,3.9,0,1,1-3.89-3.9A3.9,3.9,0,0,1,414,675Z"/><path class="cls-10" d="M286.9,588.94A10.24,10.24,0,0,1,285,587c-1-1.09-1.65-2.15-1.51-2.23a10.28,10.28,0,0,1,1.9,1.89C286.38,587.79,287,588.85,286.9,588.94Z"/><path class="cls-10" d="M258.31,593a9.63,9.63,0,0,1-1.9-1.89c-1-1.09-1.65-2.15-1.51-2.24a10.59,10.59,0,0,1,1.9,1.9C257.79,591.81,258.45,592.87,258.31,593Z"/><polygon class="cls-9" points="228.57 461.89 228.57 524.49 186.74 524.49 185.41 548.24 160.83 523.12 68.73 523.12 76.84 457.27 228.57 461.89"/><path class="cls-12" d="M214.27,480.08c-41.17-.45-82.48-.72-123.65-.06a.15.15,0,0,0,0,.29c41.17.65,82.48.38,123.65-.06a.09.09,0,0,0,0-.17Z"/><path class="cls-12" d="M214.27,492.1c-41.17-.44-82.48-.72-123.65-.06a.15.15,0,0,0,0,.29c41.17.65,82.48.38,123.65-.06a.09.09,0,0,0,0-.17Z"/><path class="cls-12" d="M214.27,504.77c-25.27-.34-50.72-.6-76-.06a.15.15,0,0,0,0,.29c25.27.54,50.72.28,76-.06a.09.09,0,0,0,0-.17Z"/></svg>