<svg id="Layer_1" data-name="Layer 1" xmlns="http://www.w3.org/2000/svg" xmlns:xlink="http://www.w3.org/1999/xlink" viewBox="0 0 750 1334"><defs><style>.cls-1{fill:none;}.cls-2{clip-path:url(#clip-path);}.cls-3{fill:#f1eff1;}.cls-4{opacity:0.44;}.cls-5{fill:url(#Degradado_sin_nombre_22);}.cls-6{fill:#e1d2f4;}.cls-7{fill:#7caaff;}.cls-8{fill:#ff7180;}.cls-9{fill:#fac480;}.cls-10{fill:#ff947e;}.cls-11{fill:#241352;}.cls-12{fill:#ffaea6;}.cls-13{fill:#002c68;}.cls-14{fill:#6f35a4;}.cls-15,.cls-19{fill:#fff;}.cls-15{opacity:0.41;}.cls-16{fill:#ffbb7a;}.cls-17{fill:#7e2e83;}.cls-18{fill:#efe6f5;}</style><clipPath id="clip-path"><rect class="cls-1" x="4" y="-77" width="752" height="1474" rx="19.01"/></clipPath><linearGradient id="Degradado_sin_nombre_22" x1="-214.06" y1="-20.4" x2="430.26" y2="-20.4" gradientUnits="userSpaceOnUse"><stop offset="0" stop-color="#fd8f7e"/><stop offset="0.15" stop-color="#fd847e"/><stop offset="0.7" stop-color="#fd6280"/><stop offset="1" stop-color="#fd5580"/></linearGradient></defs><title>Untitled-4</title><g class="cls-2"><rect class="cls-3" x="4" y="-77" width="752" height="1474" rx="19.01"/><g class="cls-4"><path class="cls-5" d="M-50.37,253.28C-129.29,226.46-197.75,159.8-211.77,77S-174-99-92.64-117c38.48-8.48,80-.9,116.76-15.15C93.45-159,117-249.88,181.05-287.79c61.71-36.53,146.32-10.18,192.29,45.1S432.72-111.13,429.9-39C425.76,66.84,381.12,181,285.83,225.82c-80.3,37.73-250.08,48.42-336.2,27.46"/></g><path class="cls-6" d="M676.28,57.15a43.61,43.61,0,0,0-26.8,26.21,45.42,45.42,0,0,0,3.34,37.57c12.46,21.62,44.42,28.58,64.62,14.07s24.1-47.24,7.89-66.16-48.91-19.79-66.09-1.76"/><path class="cls-6" d="M862,961.4c37.45,63.6,10.46,161.35-52.64,199.1s-158.73,1.5-196.18-62.1S596.5,952.64,659.6,914.88,824.54,897.8,862,961.4Z"/><path class="cls-6" d="M220.55,1274.78c37.45,63.6,10.46,161.35-52.64,199.1s-158.73,1.5-196.18-62.1S-44.94,1266,18.16,1228.26,183.1,1211.18,220.55,1274.78Z"/></g><path class="cls-7" d="M324.26,433.43c-6.67,6.45-9.2,16.5-2.85,24.25,6,7.29,17.57,8.84,25,3,18-14-.77-39.95-20.24-34.59-3.61,1-2.71,6.17.85,6.38,5.7.33,11.79.54,16.34,4.57,4.89,4.32,5,11.63,1,16.59-10.62,13.16-29.06-6.21-17.91-18a1.58,1.58,0,0,0-2.23-2.25Z"/><path class="cls-8" d="M510.13,455.65c2.45,9.15,5.14,18.2,7.94,27.24a2.82,2.82,0,0,0,4.57,1.59c7.29-5,14.59-9.91,21.49-15.43a2.64,2.64,0,0,0-.27-4.12c-8.09-5.6-19-13.86-29.28-13.92-2.61,0-4.44,3.69-1.79,5.23,4.14,2.41,9.11,3.27,13.53,5.12a73.58,73.58,0,0,1,14.67,7.9c.11-1.5.21-3,.31-4.5-7.72,4.79-15,10.16-22.34,15.51l4.34.88c-3.14-8.93-6.35-17.8-9.83-26.61-.73-1.86-3.86-.84-3.34,1.11Z"/><path class="cls-9" d="M561.34,504.1c10.84-5.23,21.94-11.25,31.7-18.31,3.59-2.6.06-7.66-3.72-5.66A206.39,206.39,0,0,0,559.38,500c-1.87,1.46-.5,5.26,2,4.07Z"/><path class="cls-10" d="M162,537.5c-2.27-11.9-5.22-24.25-9.52-35.56-1.58-4.16-7.33-2-6.38,2.19a210.62,210.62,0,0,0,11.49,34.24c.92,2.2,4.92,1.82,4.41-.87Z"/><path class="cls-11" d="M196.08,432.18l-.61-.55c-2.68-2.39-7.09-2.86-9.7,0a7.13,7.13,0,0,0,0,9.78l.54.62c2.4,2.73,7.35,2.65,9.77,0s2.89-7.28,0-9.85Z"/><path class="cls-8" d="M485.06,738.82S371.11,765.54,325.33,719.4l16.38-110.2c5-31.68,2-92.63,26.08-114.25a41.81,41.81,0,0,1,9.14-6.27c16.88-8.22,46.92-12.65,75.76-12.77,35-.13,71.09,26.57,80.28,60.64L495.06,626Z"/><path class="cls-12" d="M473.79,550.28s51.05,99.11,25.7,104.39c-83.38,17.36-131.78,31.6-131.78,31.6l-4.25,32.64c1.25,4.94,168.7.67,188.53-22,14-16,32.62-53-7-133.1l-12-27.25Z"/><path class="cls-12" d="M377.93,499.23,250.79,548.85l-4-67.23L219.59,471s-39.47,107.92,9.89,128,105-17,105-17Z"/><path class="cls-8" d="M393.66,482.75c-44.38,14.26-70.85,31-133.32,57.22l32.08,72.11,55.3-17.89Z"/><polyline class="cls-8" points="466.15 536.55 498.39 612.08 571.13 598.7 522.13 513.63 464.11 536.55"/><path class="cls-13" d="M428.09,588.05c15.49-.87,30.79-.2,46.27,0,1.35,0,1.27-1.91,0-2.06-15.25-1.84-31-1.11-46.27.22-1.15.09-1.18,1.89,0,1.83Z"/><path class="cls-13" d="M497.47,500.44c-52.33,4.77-16.54,82.55-3.12,106.1a1.17,1.17,0,0,0,2-1.19c-13.33-23.79-49-96.17,1.29-103.62.72-.11.55-1.35-.18-1.29Z"/><path class="cls-13" d="M352.43,544.91a440.4,440.4,0,0,0-12.37,79.52c-.06,1.1,1.78,1.38,1.94.26,3.75-26.52,7.51-53,11.73-79.42.14-.84-1.09-1.23-1.3-.36Z"/><path class="cls-11" d="M474.92,401.24l2.4-33.42c8.69-2.46,13.2-13.67,9.74-22.06s-13.31-13.12-22.25-11.83c5.64-3.87,5.21-13.11.58-18.16s-11.88-6.69-18.69-6.95-13.71.57-20.42-.69c-5.94-1.11-11.76-3.85-17.75-3.09s-11.73,7.56-8.5,12.71c-8.64-1.28-18-2.45-25.68,1.76s-11.54,16.16-4.93,21.93c-4.37,2.24-5.46,8.61-3,12.88s7.47,6.51,12.35,6.86,9.72-.89,14.46-2.12"/><path class="cls-12" d="M473.51,379.58l-1.74,23.15s19.53,2.65,14,20.61-18.93,10.1-18.93,10.1-3.34,46-50.1,31.42c-37.21-11.61-34.93-60.19-30.21-101.6a27.53,27.53,0,0,1,32.61-24l28.11,5.52A32.84,32.84,0,0,1,473.51,379.58Z"/><path class="cls-12" d="M471.77,421.94l-12.6,67.73a27,27,0,0,1-32.74,21.41h0a27.15,27.15,0,0,1-20.27-31.17L413,441.1Z"/><path class="cls-11" d="M420.05,422.71a1.61,1.61,0,0,1-.19.44,1.84,1.84,0,0,1-1.07.86,2.4,2.4,0,0,1-2.12-.49,3.67,3.67,0,0,1-.93-1,6.27,6.27,0,0,1-.61-1.42c-.64-2.07-.48-4.65-.31-7.41s.35-5.83.54-9c.4-6.41.79-12.2,1.09-16.4.16-2,.3-3.71.4-5l.13-1.35a.24.24,0,1,1,.1,0l0,1.35c-.06,1.26-.14,2.94-.23,5-.21,4.2-.54,10-.94,16.4l-.58,9c-.2,2.77-.38,5.28.19,7.28a4.12,4.12,0,0,0,1.36,2.31,2.25,2.25,0,0,0,1.89.53,1.82,1.82,0,0,0,1-.73C420,422.84,420,422.7,420.05,422.71Z"/><path class="cls-11" d="M404.88,460.13a17.84,17.84,0,0,1,1.57,1,41.82,41.82,0,0,0,4.42,2.51,38,38,0,0,0,32.39.69,40,40,0,0,0,4.52-2.32,13.08,13.08,0,0,1,1.62-.94,2,2,0,0,1-.38.31c-.25.19-.62.48-1.13.8a34.17,34.17,0,0,1-4.48,2.49,37,37,0,0,1-32.71-.7,34.37,34.37,0,0,1-4.36-2.67c-.5-.35-.86-.65-1.11-.85S404.86,460.15,404.88,460.13Z"/><path class="cls-11" d="M414,432.21a17.51,17.51,0,0,0,3,2.18,10.64,10.64,0,0,0,14.92-4.85,17.75,17.75,0,0,0,1.14-3.49,3.06,3.06,0,0,1,0,1,9.72,9.72,0,0,1-.77,2.65,11,11,0,0,1-2.31,3.38,10.71,10.71,0,0,1-4.25,2.66,10.86,10.86,0,0,1-5,.36,11.07,11.07,0,0,1-3.86-1.39,9.84,9.84,0,0,1-2.16-1.7A3.24,3.24,0,0,1,414,432.21Z"/><path class="cls-11" d="M473.24,425.58a12.42,12.42,0,0,0,2.7-.76,3.64,3.64,0,0,0,1.88-2.14,2.21,2.21,0,0,0-1.13-2.87,1.78,1.78,0,0,0-2.15.54l-.44-.22c.83-1.86,1.57-3.45,2.11-4.57a9.49,9.49,0,0,1,.94-1.76,8.48,8.48,0,0,1-.65,1.88c-.46,1.16-1.14,2.78-1.94,4.65l-.45-.23a2.27,2.27,0,0,1,2.77-.78,2.4,2.4,0,0,1,1.45,1.55,3.26,3.26,0,0,1-.05,2,3.92,3.92,0,0,1-2.18,2.32,6,6,0,0,1-2.08.48C473.51,425.65,473.24,425.62,473.24,425.58Z"/><path class="cls-11" d="M437.23,380a3.22,3.22,0,0,1,1.45-.43,9.22,9.22,0,0,1,3.63.24,9.39,9.39,0,0,1,3.27,1.59c.74.58,1.09,1,1.05,1.09a17.48,17.48,0,0,0-4.45-2.18A17.1,17.1,0,0,0,437.23,380Z"/><path class="cls-11" d="M396.81,373.49a3.81,3.81,0,0,1,1.51-.63,11.22,11.22,0,0,1,4-.34,9.11,9.11,0,0,1,5.21,1.91,16,16,0,0,0-10.68-.94Z"/><path class="cls-11" d="M471.77,402.73c-13-12.83-16.89-34.2-20.43-52.22a45.4,45.4,0,0,1-42.65,5.6,68.75,68.75,0,0,1-15.2,13.38c-1.61,1-3.53,2.06-5.36,1.5-2.19-.67-3.17-3.2-3.69-5.44-1.67-7.19-1.73-14.89.76-21.83s7.7-13,14.53-15.7c7.3-2.85,15.51-1.61,23.09.37A127.57,127.57,0,0,1,455.42,342c10,5.9,19.58,13.7,23.81,24.56s4.22,32-6,37.45"/><path class="cls-11" d="M440.76,398.8a12.46,12.46,0,0,1,0-3.57,12.6,12.6,0,0,1,.51-3.53,12,12,0,0,1,0,3.57A12.6,12.6,0,0,1,440.76,398.8Z"/><path class="cls-11" d="M403.21,394a12.91,12.91,0,0,1,0-3.57,12,12,0,0,1,.52-3.53,12.67,12.67,0,0,1,0,3.57A11.79,11.79,0,0,1,403.21,394Z"/><path class="cls-12" d="M218.21,473.25s5.65-35,12.39-34.58,20.25,0,20.25,0,1.12-33.24,4.87-28,4.93,50-9.53,71.48Z"/><path class="cls-12" d="M367.71,686.27s-60.5,10.68-59.32,18.59,5.44,15.89,5.44,15.89l53.88-1.28Z"/><polygon class="cls-14" points="433.38 722.67 432.92 714.23 308.31 706.54 266.52 593.87 129.75 601.45 176.41 723.29 433.38 722.67"/><path class="cls-15" d="M205.16,655.1a10.14,10.14,0,1,0,9.57-10.77A10.17,10.17,0,0,0,205.16,655.1Z"/><path class="cls-15" d="M201.11,655.32a14.2,14.2,0,1,0,13.39-15.07A14.24,14.24,0,0,0,201.11,655.32Z"/><path class="cls-6" d="M109.45,725.16l534.88-6.73L675.66,735S265,848.61,109.45,725.16Z"/><path class="cls-6" d="M527.84,326.34c-1.61,3.17,3.68,85,3.68,85l40-3.35-4.66,21.61,19.53-22.21,39.13-4.56-2.38-79.33Z"/><path class="cls-16" d="M426.27,198.82s-27.55,1.39-28.47,31c0,0,.46,16.21,9.18,22.22s8.27,12.5,8.27,12.5h23s-.92-8.33,2.76-13,12.85-14.35,11.48-28.7S440.51,197.43,426.27,198.82Z"/><path class="cls-14" d="M414.81,271.82c8.24-.39,16.58.53,24.77.05,1.18-.07,1.58-1.93.29-2.2-8-1.66-17.06-.74-25.06.17-1.23.14-1.29,2,0,2Z"/><path class="cls-14" d="M418,279.08c3.29-.19,6.59-.33,9.88-.29s6.63.58,9.89.34a1.13,1.13,0,0,0,.29-2.2c-6.29-1.66-13.95-.7-20.32.21-1.09.15-.83,2,.26,1.94Z"/><path class="cls-14" d="M420.72,284.46c2.88.2,5.85,1,8.72,1a1.27,1.27,0,0,0,.33-2.48c-2.79-.89-6.16-.58-9-.46a1,1,0,0,0,0,2Z"/><path class="cls-14" d="M422,264.23c.63-8.23-2.12-17.35-3.52-25.43l-2.4,1c1.16,1.92,3.08,7.43,6,7.24s4.17-5.68,4.6-7.92h-2.63c.59,2.55.67,8.68,4.63,8.1,3.35-.49,5.61-5.51,6.64-8.26l-2.73-.76c-2,8.05-3,18.25-1,26.37a1.34,1.34,0,0,0,2.62-.36c-.25-8.53-1.43-16.89,1.08-25.25.54-1.8-2.08-2.44-2.73-.76-.37.95-2.54,6.35-4.59,5.66-.52-.18-1.21-5-1.32-5.47-.3-1.26-2.39-1.35-2.63,0-.3,1.66-1,6.17-2.91,4.82-1.12-.78-2.11-3.55-2.82-4.74a1.32,1.32,0,0,0-2.4,1c1.27,8.08,1.62,17.49,4.84,25.05.28.66,1.16.24,1.21-.33Z"/><path class="cls-16" d="M340.71,253.21c12.29-4,24.66-7.74,36.88-11.94.23-.08.13-.45-.11-.37-12.36,3.72-24.61,7.89-36.9,11.86-.28.09-.16.54.13.45Z"/><path class="cls-16" d="M356,216.35c7.79-.2,15.61-.25,23.39-.64a.24.24,0,0,0,0-.48c-7.79,0-15.6.38-23.39.6-.33,0-.33.53,0,.52Z"/><path class="cls-16" d="M392.38,204.3c-8.9-7.56-17.56-15.5-26.77-22.69-.36-.28-.87.19-.52.51,8.65,7.87,18,15.06,26.92,22.55.25.22.63-.15.37-.37Z"/><path class="cls-16" d="M412.09,191.91a88.82,88.82,0,0,0-7.82-13.13.35.35,0,0,0-.6.34,88,88,0,0,0,8.21,12.95c.1.13.26,0,.21-.16Z"/><path class="cls-16" d="M429.93,187c-.1-12-.07-24-.68-36a.33.33,0,0,0-.65,0c-.13,12,.39,24,.77,36a.28.28,0,0,0,.56,0Z"/><path class="cls-16" d="M443.83,192.25c2.72-4.52,5.46-9,8-13.64a.34.34,0,0,0-.59-.34c-2.73,4.5-5.29,9.12-7.85,13.73a.25.25,0,0,0,.43.25Z"/><path class="cls-16" d="M455,201.74c10.92-5.74,22.16-11.6,32.54-18.28a.3.3,0,0,0-.31-.52c-11.08,5.43-21.91,12-32.47,18.39a.24.24,0,0,0,.24.41Z"/><path class="cls-16" d="M463.06,217a22,22,0,0,0,13.85-2.77c.4-.24,0-.78-.36-.61a32.16,32.16,0,0,1-13.49,2.84c-.35,0-.33.49,0,.54Z"/><path class="cls-16" d="M464.81,238.22c16.58,3.67,33.21,7.81,49.95,10.71.51.09.75-.67.22-.8-16.47-4.16-33.35-7.15-50-10.54-.4-.08-.58.54-.17.63Z"/><path class="cls-17" d="M231.08,529.3c.55-3.66.44-7.15,2.48-10.38,4.06-6.44,9.82-4.82,15.4-2s11,4.61,17.21,1.92c9.65-4.21,14.18-18.88,5-25.78-3-2.24-5.92,1.45-5.52,4.27.56,4,2.5,8.29-.85,11.69-4.49,4.53-9.75.72-14.22-1.31a18.45,18.45,0,0,0-15-.65c-8.59,3.5-14.82,15.24-8,23.16a2.09,2.09,0,0,0,3.49-.93Z"/><path class="cls-9" d="M357.88,536.4c11.59-3.19,23.58-7.1,34.45-12.28,4-1.91,1.42-7.53-2.66-6.25a207.05,207.05,0,0,0-33,14.16c-2.1,1.1-1.42,5.09,1.21,4.37Z"/><path class="cls-18" d="M300.34,548.56c2.45,9.15,5.14,18.19,7.94,27.24a2.83,2.83,0,0,0,4.57,1.59c7.29-5,14.59-9.91,21.5-15.44a2.64,2.64,0,0,0-.28-4.11c-8.09-5.6-19-13.86-29.28-13.92-2.61,0-4.44,3.69-1.79,5.23,4.14,2.41,9.11,3.27,13.53,5.12a73.65,73.65,0,0,1,14.68,7.9l.3-4.51c-7.72,4.8-15,10.17-22.34,15.52l4.34.88c-3.13-8.94-6.35-17.81-9.82-26.61-.74-1.86-3.87-.84-3.35,1.11Z"/><path class="cls-17" d="M316.29,640.12c12,.89,24.57,1.25,36.54.06,4.39-.43,3.85-6.48-.41-6.65a210.26,210.26,0,0,0-35.8,2.16c-2.34.31-3,4.22-.33,4.43Z"/><path class="cls-19" d="M549.72,363l8.41,29.46,11.76-2.31-1.14-5.93,3.34-2,6.3,6.28,19.93-3.92,2.58-7.68-5.67-1.28,7.33-2.46-1.6-8.24-6.33.56,8.69-2.39-2-10.21-20.26,4s1.31-14.27-4.67-18.91l-4.58.9s1.55,4.48,1.4,7.24-4.12,15.51-4.12,15.51l-6.22,2.93-1.48-4.15Z"/><polygon class="cls-6" points="137.57 307.81 144.35 389.41 293.44 389.41 301.69 418.12 310.39 386.64 338.8 384.98 325.7 311.88 137.57 307.81"/><path class="cls-19" d="M157.14,337a1073.84,1073.84,0,0,1,153.77,2.51c.43,0,.43-.64,0-.67a1088.64,1088.64,0,0,0-153.77-2.42c-.37,0-.38.6,0,.58Z"/><path class="cls-19" d="M160.13,353.15a1072.53,1072.53,0,0,1,153.78,2.51c.43,0,.43-.64,0-.68a1091.79,1091.79,0,0,0-153.78-2.42c-.37,0-.37.61,0,.59Z"/><path class="cls-19" d="M160.42,366.62c17.25.55,34.43.2,51.67-.32a440.62,440.62,0,0,1,51.37,1.93c.43,0,.43-.64,0-.68-17.12-1.33-34.2-2.36-51.37-1.84s-34.42.74-51.67.33a.29.29,0,0,0,0,.58Z"/></svg>