<?xml version="1.0" encoding="utf-8"?>
<!-- Generator: Adobe Illustrator 23.0.0, SVG Export Plug-In . SVG Version: 6.00 Build 0)  -->
<svg version="1.1" id="Layer_1" xmlns="http://www.w3.org/2000/svg" xmlns:xlink="http://www.w3.org/1999/xlink" x="0px" y="0px"
	 viewBox="0 0 750 1334" style="enable-background:new 0 0 750 1334;" xml:space="preserve">
<style type="text/css">
	.st0{fill:#F1F0F2;}
	.st1{opacity:0.54;}
	.st2{fill:#E1D2F4;}
	.st3{opacity:0.44;}
	.st4{fill:url(#SVGID_1_);}
	.st5{fill:#BDACD8;}
	.st6{opacity:0.15;}
	.st7{fill:#3B3B3B;}
	.st8{opacity:0.41;fill:#3B3B3B;}
	.st9{fill:#7CAAFF;}
	.st10{fill:#241352;}
	.st11{fill:#FFAEA6;}
	.st12{fill:#5F2D8F;}
	.st13{fill:#FAC480;}
	.st14{fill:#6F35A4;}
	.st15{fill:#9B8ABE;}
	.st16{fill:#FFFFFF;}
	.st17{opacity:0.41;fill:#FFFFFF;}
	.st18{fill:#E3B0EC;}
	.st19{fill:#002C68;}
	.st20{opacity:0.28;}
	.st21{opacity:0.12;}
	.st22{fill:#6042DC;}
	.st23{fill:#FBF1FC;}
	.st24{fill:#7E2E83;}
	.st25{fill:#FF7180;}
	.st26{fill:#FF947E;}
</style>
<g>
	<rect class="st0" width="750" height="1334"/>
	<g class="st1">
		<path class="st2" d="M200,783.1c-72-24.3-134.5-84.6-147.2-159.5S87.2,464.2,161.4,448c35.1-7.7,73-0.8,106.5-13.7
			c63.2-24.3,84.7-106.6,143.2-140.9c56.3-33.1,133.5-9.2,175.4,40.8c41.9,50,54.2,119.1,51.6,184.3
			c-3.8,95.8-44.5,199.2-131.4,239.7C433.4,792.4,278.6,802,200,783.1"/>
	</g>
	<g class="st3">
		<linearGradient id="SVGID_1_" gradientUnits="userSpaceOnUse" x1="0" y1="160.5468" x2="279.7293" y2="160.5468">
			<stop  offset="5.004130e-02" style="stop-color:#A568FA"/>
			<stop  offset="1" style="stop-color:#00D8FB"/>
		</linearGradient>
		<path class="st4" d="M0,320.1c56.5-4.5,112.1-15.3,148-32.1c86.9-40.5,127.6-143.9,131.4-239.7c0.6-15.7,0.4-31.5-0.9-47.3H0
			V320.1z"/>
	</g>
	<g>
		<path class="st2" d="M752,992.8c-19.7,26.5-40.4,51.3-70.5,62.9c-33.5,12.9-71.4,6-106.5,13.7c-74.2,16.2-121.5,100.7-108.7,175.6
			c5.7,33.2,21.1,63.5,42.7,89.1h243V992.8z"/>
	</g>
	<g>
		<path class="st5" d="M115.4,768.9c15.9,25.3,48.7,34.8,78.6,34.2c29.9-0.6,59.1-9.2,88.9-10.9c47.3-2.7,93.6,11.6,140.1,20.7
			c46.5,9.1,97.3,12.4,138.8-10.6c10.1-5.6,19.9-13.3,24.1-24.1c4.1-10.8,0.4-25.2-10.3-29.7c-4.1-1.7-8.8-1.8-13.2-1.9
			c-99.6-1.8-199.2-3.7-298.8-5.5c-50.7-0.9-106.6-0.1-144.6,33.5"/>
	</g>
	
		<ellipse transform="matrix(0.2298 -0.9732 0.9732 0.2298 -447.1479 1387.4711)" class="st2" cx="653" cy="976.2" rx="50.8" ry="50.8"/>
	<g>
		<g class="st6">
			<path class="st7" d="M535.5,464.8c-5.3,5.2-6.8,13.8-1.7,19.8c4.8,5.7,14.1,7,20,2.3c5.6-4.4,7.4-12.6,3.8-18.8
				c-4-7-12.9-9.7-20.5-8.6c-0.8,0.1-0.6,1.5,0.2,1.5c5.9-0.4,12.3,0.7,16.7,5c5,4.8,5.1,12.8,0.6,18c-4.8,5.5-13.5,5.7-18.8,0.6
				c-5.4-5.2-4.8-14.2,0.3-19.3C536.3,465,535.8,464.5,535.5,464.8L535.5,464.8z"/>
			<path class="st7" d="M138.5,406.3c-6.1-2.8-13.6-2.1-19.2,1.6c-5.6,3.8-9,10.5-8.7,17.2c0.2,5.2,2.3,11.2-1,15.3
				c-2.6,3.1-7.2,3.4-10.9,5.1c-7,3.2-10.5,12.5-7.3,19.5c1.7,3.8,5.2,7.3,4.5,11.4c-0.4,2.7-2.5,4.8-4.9,6.1
				c-2.3,1.3-5,2.1-7.4,3.3c-8.8,4.3-14.2,14.4-14,24.2c0.3,9.8,5.7,19.2,13.4,25.2c7.8,6,17.7,9,27.5,9.4
				c9.9,0.4,20.2-1.9,27.7-8.3c5.6-4.8,9.3-11.5,12-18.4c5.2-13.1,7.3-27.4,6.1-41.4c-1.2-14.5-5.9-28.7-7-43.2
				c-0.3-4.9-0.3-9.8-1.4-14.6c-1.1-4.8-3.5-9.5-7.7-12"/>
			<path class="st7" d="M136.3,408.2c5.6-11.6,16.7-20.5,29.3-23.3c7.7-1.7,16.2-1.1,23.1,2.9c6.8,4.1,11.5,12,10.5,19.9
				c-0.6,4.9-3.3,9.2-5,13.8c-1.7,4.6-2.2,10.2,0.9,14c2.8,3.4,7.6,4.2,11.4,6.4c5.4,3.1,8.9,9.5,8.5,15.8
				c-0.4,6.3-4.5,12.2-10.3,14.7c5.7,0.7,11.1,3.9,14.4,8.6c3.3,4.7,4.5,10.9,3.2,16.5c-1.9,8.1-8.4,14.2-15.5,18.6
				c-9.8,6-21.1,9.6-32.6,10.1c-12.2,0.6-25.7-3.1-32.3-13.3c-4.4-6.7-5-15.1-5.5-23.1c-1.5-24.2-2.5-48.3-3.5-72.5
				c-0.2-3.9-0.3-7.8,0.6-11.6"/>
			<path class="st7" d="M177.3,517.3l109.4,41l-10.4-44.2l28.4-7.2c0,0,30.6,86.3,9.3,88.6c-37.2,4-93.5-10.7-93.5-10.7L177.3,517.3
				z"/>
			<path class="st7" d="M167.8,705.7c0,0,132.1-144.2,221.3-112.7c89.2,31.5,126.8,178.3,126.8,178.3l-71-1.2
				c0,0-56.1-110.9-83.5-106.6c-27.4,4.3-111.9,109.9-111.9,109.9L167.8,705.7z"/>
			<path class="st7" d="M209.6,618.2l5.5,84.6c-28.5,35-127.6-10.3-127.6-10.3l-1.2-35.4L84,572.9c2.3-33.6,33.4-50,33.4-50
				c12.9-6.4,32.5-10.1,50.2-9.2c18.5,0.9,23,9.8,30.7,26.6C204.5,554,221.2,576.2,209.6,618.2z"/>
			<path class="st7" d="M106,708.5c0,0-15.2,61.7,31.1,71.4c46.2,9.7,216.2-13,260.4-9.1c44.3,3.9,170.2,11.2,170.2,11.2l9.2-73.3
				c0,0-195.9-9.4-218.1-3.9C336.7,710.4,106,708.5,106,708.5z"/>
			<path class="st7" d="M128.1,600.6c0,0-13.9,81.7,5.7,79.6c64.3-6.6,102.6-7.5,102.6-7.5l10.7,22.1c0.2,3.8-121.7,38.7-141.3,27.1
				c-13.8-8.2-35.9-30.1-25.9-95.7l2.4-22L128.1,600.6z"/>
			<polygon class="st7" points="186.1,717.8 186,712.4 266.7,701 288.1,626.1 377.5,623.9 353.4,705 			"/>
			<path class="st7" d="M331.2,661.6c0.1,3.7-2.8,6.7-6.5,6.8c-3.7,0.1-6.7-2.8-6.8-6.5c-0.1-3.7,2.8-6.7,6.5-6.8
				C328,655,331.1,657.9,331.2,661.6z"/>
			<path class="st8" d="M333.8,661.5c0.1,5.1-3.9,9.4-9,9.5c-5.1,0.1-9.4-3.9-9.5-9c-0.1-5.1,3.9-9.4,9-9.5
				C329.4,652.3,333.7,656.4,333.8,661.5z"/>
			<path class="st7" d="M92.8,546.4c0,0-15,14.4-18.3,68.9l58-6.4C132.5,608.9,142.1,516.1,92.8,546.4z"/>
			<path class="st7" d="M518.7,382.6c0,0,20.6,46.2,26.3,43.8c5.7-2.4,58.9-35.4,58.9-35.4s-21.8-41.4-26.3-43.8
				C573.1,344.8,518.7,382.6,518.7,382.6z"/>
			<path class="st7" d="M577.6,347.2c0,0,0,0.1-0.1,0.2c-0.1,0.2-0.1,0.4-0.2,0.6c-0.2,0.6-0.5,1.4-0.9,2.4
				c-0.8,2.2-1.9,5.2-3.3,8.9c-2.8,7.6-6.7,17.9-11,29.4c-0.1,0.3-0.2,0.6-0.3,0.8l-0.1,0.2l-0.2,0c-11.9-2-22.6-3.7-30.4-5
				c-3.8-0.7-7-1.2-9.2-1.6c-1-0.2-1.9-0.3-2.5-0.5c-0.6-0.1-0.9-0.2-0.9-0.2c0,0,0.3,0,0.9,0.1c0.6,0.1,1.4,0.2,2.5,0.4
				c2.2,0.3,5.3,0.8,9.2,1.4c7.8,1.2,18.5,3,30.4,4.9l-0.3,0.2c0.1-0.3,0.2-0.5,0.3-0.8c4.3-11.4,8.3-21.8,11.1-29.3
				c1.4-3.7,2.6-6.7,3.4-8.9c0.4-1,0.7-1.8,1-2.4c0.1-0.2,0.2-0.5,0.3-0.6C577.6,347.3,577.6,347.2,577.6,347.2z"/>
			<path class="st7" d="M538.3,421c0,0,0-0.5,0.2-1.3c0.2-0.9,0.4-2.1,0.8-3.6c0.7-3.1,1.7-7.3,3-11.9c1.3-4.6,2.5-8.8,3.5-11.7
				c0.5-1.5,0.9-2.7,1.2-3.5c0.3-0.8,0.5-1.3,0.5-1.3s-0.1,0.5-0.3,1.3c-0.3,0.9-0.6,2.1-1,3.6c-0.9,3-2.1,7.2-3.3,11.8
				c-1.3,4.6-2.3,8.8-3.1,11.8c-0.4,1.4-0.7,2.6-0.9,3.6C538.5,420.5,538.3,421,538.3,421z"/>
			<path class="st7" d="M600.4,381.8c0,0.1-7.4-0.9-16.4-2.3c-9.1-1.4-16.4-2.7-16.4-2.9c0-0.1,7.4,0.9,16.4,2.3
				C593.1,380.4,600.4,381.7,600.4,381.8z"/>
			<path class="st7" d="M121.8,432.3l1.3,17.3c0,0-14.7,2-10.5,15.4c4.2,13.4,14.3,7.5,14.3,7.5s2.5,34.4,37.7,23.5
				c28-8.7,26.3-45,22.7-75.9c-1.4-12-12.7-20.2-24.6-17.9l-21.2,4.1C129.4,408.7,120.9,419.8,121.8,432.3z"/>
			<path class="st7" d="M123.2,463.9l9.5,50.6c2.1,11.4,13.4,18.7,24.7,16l0,0c10.5-2.5,17.1-12.7,15.3-23.3l-5.1-29L123.2,463.9z"
				/>
			<path class="st7" d="M162.1,464.5c0,0,0.1,0.1,0.2,0.3c0.1,0.2,0.4,0.4,0.8,0.5c0.8,0.2,2.1-0.6,2.4-2.1c0.4-1.5,0.3-3.4,0.1-5.4
				c-0.1-2.1-0.3-4.4-0.4-6.7c-0.3-4.8-0.5-9.1-0.7-12.3c-0.1-1.5-0.1-2.7-0.2-3.7c0-0.9,0-1.4,0-1.4c0,0,0.1,0.5,0.2,1.4
				c0.1,1,0.2,2.2,0.3,3.7c0.2,3.1,0.5,7.5,0.8,12.3c0.1,2.4,0.3,4.7,0.4,6.7c0.1,2.1,0.2,4-0.3,5.6c-0.2,0.8-0.6,1.5-1.2,1.8
				c-0.5,0.4-1.2,0.5-1.6,0.4c-0.5-0.1-0.7-0.5-0.8-0.7C162.1,464.6,162.1,464.5,162.1,464.5z"/>
			<path class="st7" d="M173.5,492.4c0,0-0.4,0.4-1.1,0.9c-0.7,0.5-1.8,1.3-3.3,2c-2.9,1.5-7.3,3-12.3,3.1c-5,0.1-9.5-1.2-12.4-2.6
				c-1.5-0.7-2.6-1.4-3.4-1.9c-0.8-0.5-1.1-0.8-1.1-0.9c0.1-0.1,1.7,1.1,4.6,2.4c2.9,1.3,7.3,2.5,12.2,2.4c4.9-0.1,9.2-1.5,12.1-2.9
				C171.9,493.6,173.5,492.3,173.5,492.4z"/>
			<path class="st7" d="M166.6,471.6c0,0-0.1,0.3-0.4,0.6c-0.3,0.4-0.9,0.8-1.6,1.3c-1.5,0.9-4.1,1.6-6.7,0.8c-2.6-0.9-4.3-3-5-4.6
				c-0.4-0.8-0.5-1.5-0.6-2c-0.1-0.5,0-0.8,0-0.8c0.1,0,0.1,1.1,0.9,2.6c0.7,1.5,2.4,3.4,4.8,4.2c2.5,0.8,4.9,0.2,6.4-0.6
				C165.9,472.4,166.6,471.5,166.6,471.6z"/>
			<path class="st7" d="M122,466.6c0,0-0.2,0.1-0.6,0.1c-0.4,0-0.9-0.1-1.6-0.3c-0.6-0.3-1.4-0.8-1.7-1.8c-0.2-0.4-0.2-1,0-1.5
				c0.1-0.5,0.6-1,1.1-1.2c0.8-0.3,1.7-0.1,2.2,0.6l-0.4,0.2c-1.2-2.8-2-4.9-1.9-4.9c0.1,0,1.1,1.9,2.4,4.7l-0.4,0.2
				c-0.3-0.4-1-0.6-1.5-0.4c-0.9,0.3-1.1,1.3-0.8,2.1c0.2,0.8,0.8,1.3,1.4,1.6C121.2,466.6,122.1,466.5,122,466.6z"/>
			<path class="st7" d="M176.2,442.4c-0.1,0-0.5-1.2-0.9-2.7c-0.3-1.5-0.5-2.8-0.4-2.8c0.1,0,0.5,1.2,0.9,2.7
				C176.2,441.1,176.3,442.3,176.2,442.4z"/>
			<path class="st7" d="M146.4,445.1c-0.1,0-0.6-1.2-1-2.7c-0.4-1.5-0.7-2.8-0.5-2.8c0.1,0,0.6,1.2,1,2.7
				C146.3,443.8,146.5,445.1,146.4,445.1z"/>
			<path class="st7" d="M149.2,432.5c0,0.2-1.7-0.2-3.7,0.3c-2,0.5-3.3,1.7-3.4,1.6c-0.1-0.1,1.1-1.5,3.2-2.1
				C147.5,431.7,149.2,432.4,149.2,432.5z"/>
			<path class="st7" d="M179.6,427.7c0,0.2-1.8-0.5-4.1-0.3c-2.3,0.2-3.9,1.1-4,1c-0.1-0.1,1.5-1.3,3.9-1.5
				C177.9,426.7,179.7,427.6,179.6,427.7z"/>
			<path class="st7" d="M123.2,449.5c9.8-9.6,12.7-25.5,15.4-39c9.1,6.6,21.6,8.3,32.1,4.2c3.3,3.9,7.2,7.2,11.4,10
				c1.2,0.8,2.7,1.5,4,1.1c1.6-0.5,2.4-2.4,2.8-4.1c1.3-5.4,1.3-11.1-0.6-16.3c-1.9-5.2-5.8-9.7-10.9-11.7
				c-5.5-2.1-11.7-1.2-17.4,0.3c-8.6,2.2-16.9,5.7-24.5,10.1c-7.5,4.4-14.7,10.2-17.9,18.3c-3.2,8.1-3.2,23.9,4.5,28"/>
			<path class="st7" d="M163.3,473.4c0,0.4-0.4,0.7-1.2,1c-0.8,0.2-1.9,0.3-3.1,0.1c-1.2-0.3-2.2-0.8-2.8-1.3
				c-0.6-0.5-0.8-1.1-0.7-1.4c0.4-0.6,2.1-0.2,4,0.2C161.5,472.4,163.2,472.7,163.3,473.4z"/>
			<path class="st7" d="M151,457.4c0.1,0.7-3.3,1.9-7.8,2.1c-4.4,0.2-8-0.7-7.9-1.4c0.1-0.7,3.5-1,7.8-1.2
				C147.4,456.7,150.9,456.7,151,457.4z"/>
			<path class="st7" d="M188.2,454.3c0.1,0.7-2.9,1.9-6.8,2.1c-4,0.2-7.1-0.7-7-1.4c0.1-0.7,3.2-1,6.9-1.2
				C185,453.7,188.1,453.6,188.2,454.3z"/>
			<path class="st7" d="M122.7,495.3c-0.1,0-0.1-1.4-0.2-3.6c-0.1-2.2-0.1-5.4-0.3-8.8c-0.2-3.4-0.4-6.5-0.6-8.8
				c-0.2-2.2-0.3-3.6-0.2-3.6c0,0,0.1,0.3,0.2,1c0.1,0.6,0.2,1.5,0.4,2.6c0.3,2.2,0.6,5.3,0.7,8.8c0.2,3.4,0.2,6.5,0.2,8.8
				c0,1.1,0,2-0.1,2.7C122.8,495,122.8,495.3,122.7,495.3z"/>
			<path class="st7" d="M181.2,517c-9.5-3.8,63.7,23.4,63.7,23.4l-7.4,50.1l-27.8-9.1L181.2,517z"/>
			<path class="st7" d="M137.6,403.7c2.3-3.5,3.1-7.9,2-12c-0.8-3.3-3.4-6.6-6.8-6.8c-1.9-0.1-3.8,0.8-5.3,2.2
				c-3.5,3.3-4.4,9-2.1,13.2c2.4,4.2,7.7,6.4,12.4,5.1"/>
			<path class="st7" d="M574.9,724.3c0,0,23.8-34.1,20.9-21.2c-2.9,12.9-27.1,70.4-27.1,70.4L574.9,724.3z"/>
			<path class="st7" d="M229.6,672.8c0,0,31.5-9.9,30.4-6.6c-1.1,3.2-6.4,3.4-11.8,8.6c0,0,35.2,0.4,33.5,3.3
				c-1.7,2.9-24.6,3.6-24.7,4.1c-0.1,0.5,25,1.1,24.5,3.8c-0.6,2.7-24,2-24,2s21.7,2.3,21.2,5.2c-0.4,2.9-20.4,0.8-20.4,0.8
				s16.7,1.9,16.3,4.5c-0.3,1.6-49,2-49.1,3.1C225.4,702.2,229.6,672.8,229.6,672.8"/>
			<path class="st7" d="M278.3,517c0,0-19.1-26.7-15.7-26.7c3.4,0,5.2,5,11.8,8.5c0,0-10.6-33.4-7.3-32.7
				c3.3,0.7,11.1,22.1,11.6,22.1c0.5,0-6.7-24-4-24.3c2.7-0.3,9.4,22,9.4,22s-4.6-21.2-1.7-21.7c2.9-0.5,7.1,19.1,7.1,19.1
				s-3.4-16.4-0.8-16.8c1.6-0.2,16,40.5,16,40.5C304.3,506.9,278.3,517,278.3,517"/>
			<path class="st7" d="M102.1,590.4c0,0,0.1,0.3,0.2,1c0.1,0.6,0.3,1.6,0.2,2.7c-0.1,1.1-0.6,2.7-1.9,3.6c-0.6,0.5-1.5,0.8-2.4,0.6
				c-0.9-0.2-1.6-0.8-2.2-1.5c-0.6-0.7-1.1-1.3-1.7-1.8c-0.6-0.5-1.3-0.8-2.1-0.8c-1.4-0.2-2.7,0.4-3.5,1.2
				c-0.8,0.8-1.1,1.7-1.2,2.3c-0.1,0.6-0.1,1-0.1,1c0,0-0.1-0.4-0.1-1c0.1-0.6,0.3-1.6,1.1-2.5c0.8-0.9,2.2-1.6,3.8-1.4
				c0.8,0.1,1.6,0.4,2.3,0.9c0.7,0.5,1.2,1.2,1.8,1.8c0.6,0.6,1.2,1.2,2,1.3c0.7,0.2,1.5-0.1,2.1-0.5c1.2-0.8,1.7-2.1,1.8-3.2
				c0.1-1.1,0-2,0-2.7C102.1,590.8,102.1,590.4,102.1,590.4z"/>
			<path class="st7" d="M119.3,575.6c0,0,0.2-0.3,0.7-0.7c0.5-0.4,1.2-1,2.2-1.6c1-0.5,2.6-0.9,4.1-0.2c0.7,0.3,1.5,0.9,1.7,1.8
				c0.3,0.9,0.1,1.8-0.1,2.7c-0.2,0.9-0.5,1.6-0.6,2.4c-0.1,0.8,0.1,1.5,0.4,2.2c0.6,1.3,1.8,2.1,2.8,2.4c1.1,0.2,2,0.1,2.6-0.2
				c0.6-0.2,0.9-0.4,0.9-0.4c0,0-0.2,0.3-0.8,0.6c-0.6,0.3-1.6,0.5-2.7,0.3c-1.2-0.2-2.5-1.1-3.2-2.5c-0.3-0.7-0.5-1.6-0.4-2.4
				c0.1-0.9,0.4-1.7,0.6-2.5c0.2-0.8,0.4-1.6,0.1-2.4c-0.2-0.7-0.8-1.2-1.5-1.5c-1.3-0.6-2.7-0.3-3.7,0.1c-1,0.5-1.8,1-2.3,1.4
				C119.6,575.4,119.4,575.6,119.3,575.6z"/>
			<path class="st7" d="M118.2,538.6c0,0,0.2-0.3,0.7-0.7c0.5-0.4,1.2-1,2.2-1.6c1-0.5,2.6-0.9,4.1-0.2c0.7,0.3,1.5,0.9,1.7,1.8
				c0.3,0.9,0.1,1.8-0.1,2.7c-0.2,0.9-0.5,1.6-0.6,2.4c-0.1,0.8,0.1,1.5,0.4,2.2c0.6,1.3,1.8,2.1,2.8,2.4c1.1,0.2,2,0.1,2.6-0.2
				c0.6-0.2,0.9-0.4,0.9-0.4c0,0-0.2,0.3-0.8,0.6c-0.6,0.3-1.6,0.5-2.7,0.3c-1.2-0.2-2.5-1.1-3.2-2.5c-0.3-0.7-0.5-1.6-0.4-2.4
				c0.1-0.9,0.4-1.7,0.6-2.5c0.2-0.8,0.4-1.6,0.1-2.4c-0.2-0.7-0.8-1.2-1.5-1.5c-1.3-0.6-2.7-0.3-3.7,0.1c-1,0.5-1.8,1-2.3,1.4
				C118.5,538.5,118.2,538.7,118.2,538.6z"/>
			<path class="st7" d="M154.8,586.8c0,0-0.3-0.2-0.8-0.6c-0.5-0.4-1.1-1.1-1.8-2.1c-0.6-1-1.1-2.5-0.6-4c0.2-0.8,0.8-1.5,1.6-1.9
				c0.8-0.4,1.8-0.3,2.7-0.1c0.9,0.2,1.7,0.4,2.5,0.4c0.8,0,1.5-0.2,2.1-0.5c1.3-0.7,2-1.9,2.1-3c0.2-1.1-0.1-2-0.4-2.6
				c-0.3-0.6-0.5-0.8-0.5-0.9c0,0,0.3,0.2,0.6,0.8c0.3,0.6,0.7,1.5,0.6,2.7c-0.1,1.2-0.8,2.6-2.2,3.4c-0.7,0.4-1.5,0.7-2.4,0.6
				c-0.9,0-1.7-0.3-2.6-0.4c-0.8-0.2-1.7-0.2-2.4,0.1c-0.7,0.3-1.2,0.9-1.4,1.6c-0.5,1.4-0.1,2.7,0.4,3.7c0.6,1,1.2,1.7,1.6,2.1
				C154.6,586.5,154.8,586.7,154.8,586.8z"/>
			<path class="st7" d="M179.8,625.4c0,0-0.2,0.3-0.8,0.7c-0.5,0.4-1.3,1-2.4,1.4c-1.1,0.5-2.6,0.7-4.1-0.1c-0.7-0.4-1.4-1-1.6-1.9
				c-0.2-0.9,0-1.8,0.3-2.6c0.3-0.8,0.7-1.6,0.8-2.4c0.2-0.8,0.1-1.5-0.2-2.2c-0.5-1.4-1.6-2.3-2.7-2.6c-1.1-0.3-2-0.2-2.6,0
				c-0.6,0.2-0.9,0.4-0.9,0.3c0,0,0.3-0.3,0.9-0.5c0.6-0.2,1.6-0.4,2.8-0.1c1.2,0.3,2.4,1.2,3,2.8c0.3,0.7,0.4,1.6,0.2,2.5
				c-0.2,0.9-0.5,1.7-0.8,2.5c-0.3,0.8-0.5,1.6-0.3,2.3c0.2,0.7,0.7,1.3,1.3,1.6c1.3,0.7,2.7,0.5,3.7,0.1c1.1-0.4,1.8-0.9,2.4-1.2
				C179.5,625.6,179.8,625.4,179.8,625.4z"/>
			<path class="st7" d="M209.2,564.5c0,0-0.2,0.3-0.8,0.7c-0.5,0.4-1.3,1-2.4,1.4c-1.1,0.5-2.6,0.7-4.1-0.1c-0.7-0.4-1.4-1-1.6-1.9
				c-0.2-0.9,0-1.8,0.3-2.6c0.3-0.8,0.7-1.6,0.8-2.4c0.2-0.8,0.1-1.5-0.2-2.2c-0.5-1.4-1.6-2.3-2.7-2.6c-1.1-0.3-2-0.2-2.6,0
				c-0.6,0.2-0.9,0.4-0.9,0.3c0,0,0.3-0.3,0.9-0.5c0.6-0.2,1.6-0.4,2.8-0.1c1.2,0.3,2.4,1.2,3,2.8c0.3,0.7,0.4,1.6,0.2,2.5
				c-0.2,0.9-0.5,1.7-0.8,2.5c-0.3,0.8-0.5,1.6-0.3,2.3c0.2,0.7,0.7,1.3,1.3,1.6c1.3,0.7,2.7,0.5,3.7,0.1c1.1-0.4,1.8-0.9,2.4-1.2
				C208.9,564.6,209.2,564.4,209.2,564.5z"/>
			<path class="st7" d="M229.3,555.2c0,0,0.3,0.1,0.9,0.5c0.5,0.4,1.3,0.9,2.1,1.7c0.8,0.8,1.6,2.2,1.3,3.9
				c-0.1,0.8-0.5,1.6-1.3,2.2c-0.8,0.5-1.7,0.6-2.6,0.6c-0.9,0-1.7-0.1-2.5,0c-0.8,0.1-1.5,0.5-2,0.9c-1.1,0.9-1.6,2.3-1.5,3.4
				c0.1,1.1,0.5,1.9,0.8,2.5c0.4,0.5,0.6,0.7,0.6,0.8c0,0-0.3-0.1-0.8-0.6c-0.4-0.5-0.9-1.4-1.1-2.6c-0.1-1.2,0.4-2.7,1.6-3.8
				c0.6-0.5,1.4-0.9,2.2-1.1c0.9-0.1,1.7-0.1,2.6-0.1c0.9,0,1.7-0.1,2.3-0.5c0.6-0.4,1-1.1,1.1-1.8c0.2-1.4-0.4-2.7-1.1-3.5
				c-0.7-0.9-1.5-1.4-2-1.8C229.5,555.4,229.3,555.2,229.3,555.2z"/>
			<path class="st7" d="M148.1,656.9c0,0-0.2,0.3-0.8,0.7c-0.5,0.4-1.3,1-2.4,1.4c-1.1,0.5-2.6,0.7-4.1-0.1c-0.7-0.4-1.4-1-1.6-1.9
				c-0.2-0.9,0-1.8,0.3-2.6c0.3-0.8,0.7-1.6,0.8-2.4c0.2-0.8,0.1-1.5-0.2-2.2c-0.5-1.4-1.6-2.3-2.7-2.6c-1.1-0.3-2-0.2-2.6,0
				c-0.6,0.2-0.9,0.4-0.9,0.3c0,0,0.3-0.3,0.9-0.5c0.6-0.2,1.6-0.4,2.8-0.1c1.2,0.3,2.4,1.2,3,2.8c0.3,0.7,0.4,1.6,0.2,2.5
				c-0.2,0.9-0.5,1.7-0.8,2.5c-0.3,0.8-0.5,1.6-0.3,2.3c0.2,0.7,0.7,1.3,1.3,1.6c1.3,0.7,2.7,0.5,3.7,0.1c1.1-0.4,1.8-0.9,2.4-1.2
				C147.8,657.1,148.1,656.9,148.1,656.9z"/>
			<path class="st7" d="M191.6,598.3c0,0-0.3-0.2-0.7-0.7c-0.4-0.5-1-1.2-1.5-2.3c-0.5-1-0.8-2.6-0.1-4.1c0.3-0.7,1-1.4,1.9-1.7
				c0.9-0.3,1.8-0.1,2.7,0.2c0.8,0.3,1.6,0.6,2.4,0.7c0.8,0.1,1.5,0,2.2-0.3c1.3-0.6,2.2-1.7,2.5-2.8c0.3-1.1,0.1-2-0.1-2.6
				c-0.2-0.6-0.4-0.9-0.4-0.9c0,0,0.3,0.2,0.5,0.8c0.3,0.6,0.5,1.6,0.2,2.8c-0.2,1.2-1.1,2.5-2.6,3.1c-0.7,0.3-1.6,0.5-2.5,0.3
				c-0.9-0.1-1.7-0.5-2.5-0.7c-0.8-0.3-1.6-0.4-2.4-0.2c-0.7,0.2-1.3,0.8-1.6,1.4c-0.7,1.3-0.4,2.7,0,3.7c0.4,1,1,1.8,1.3,2.3
				C191.5,597.9,191.7,598.2,191.6,598.3z"/>
			<path class="st7" d="M199.4,629.8c0,0-0.3-0.2-0.7-0.7c-0.4-0.5-1-1.2-1.5-2.3c-0.5-1-0.8-2.6-0.1-4.1c0.3-0.7,1-1.4,1.9-1.7
				c0.9-0.3,1.8-0.1,2.7,0.2c0.8,0.3,1.6,0.6,2.4,0.7c0.8,0.1,1.5,0,2.2-0.3c1.3-0.6,2.2-1.7,2.5-2.8c0.3-1.1,0.1-2-0.1-2.6
				c-0.2-0.6-0.4-0.9-0.4-0.9c0,0,0.3,0.2,0.5,0.8c0.3,0.6,0.5,1.6,0.2,2.8c-0.2,1.2-1.1,2.5-2.6,3.1c-0.7,0.3-1.6,0.5-2.5,0.3
				c-0.9-0.1-1.7-0.5-2.5-0.7c-0.8-0.3-1.6-0.4-2.4-0.2c-0.7,0.2-1.3,0.8-1.6,1.4c-0.7,1.3-0.4,2.7,0,3.7c0.4,1,1,1.8,1.3,2.3
				C199.3,629.5,199.5,629.7,199.4,629.8z"/>
			<path class="st7" d="M136.4,616.3c0,0-0.1-0.4,0-1c0-0.6,0.1-1.6,0.4-2.7c0.3-1.1,1.1-2.5,2.7-3.1c0.7-0.3,1.7-0.4,2.5,0
				c0.8,0.4,1.4,1.2,1.8,1.9c0.4,0.8,0.8,1.5,1.3,2.1c0.5,0.6,1.1,1,1.8,1.3c1.4,0.5,2.8,0.2,3.7-0.4c0.9-0.6,1.4-1.4,1.7-2
				c0.3-0.6,0.3-0.9,0.4-0.9c0,0,0,0.4-0.2,1c-0.2,0.6-0.7,1.5-1.7,2.2c-1,0.7-2.5,1.1-4,0.5c-0.8-0.3-1.5-0.7-2.1-1.4
				c-0.6-0.7-0.9-1.5-1.4-2.2c-0.4-0.7-0.9-1.4-1.6-1.7c-0.7-0.3-1.5-0.3-2.1,0c-1.4,0.5-2.1,1.7-2.5,2.8c-0.4,1.1-0.5,2-0.6,2.6
				C136.5,616,136.5,616.3,136.4,616.3z"/>
			<path class="st7" d="M193.3,655.2c0,0-0.1-0.4,0-1c0-0.6,0.1-1.6,0.4-2.7c0.3-1.1,1.1-2.5,2.7-3.1c0.7-0.3,1.7-0.4,2.5,0
				c0.8,0.4,1.4,1.2,1.8,1.9c0.4,0.8,0.8,1.5,1.3,2.1c0.5,0.6,1.1,1,1.8,1.3c1.4,0.5,2.8,0.2,3.7-0.4c0.9-0.6,1.4-1.4,1.7-2
				c0.3-0.6,0.3-0.9,0.4-0.9c0,0,0,0.4-0.2,1c-0.2,0.6-0.7,1.5-1.7,2.2c-1,0.7-2.5,1.1-4,0.5c-0.8-0.3-1.5-0.7-2.1-1.4
				c-0.6-0.7-0.9-1.5-1.4-2.2c-0.4-0.7-0.9-1.4-1.6-1.7c-0.7-0.3-1.5-0.3-2.1,0c-1.4,0.5-2.1,1.7-2.5,2.8c-0.4,1.1-0.5,2-0.6,2.6
				C193.4,654.9,193.4,655.2,193.3,655.2z"/>
			<path class="st7" d="M191.7,537.4c0,0-0.1-0.4,0-1c0-0.6,0.1-1.6,0.4-2.7c0.3-1.1,1.1-2.5,2.7-3.1c0.7-0.3,1.7-0.4,2.5,0
				c0.8,0.4,1.4,1.2,1.8,1.9c0.4,0.8,0.8,1.5,1.3,2.1c0.5,0.6,1.1,1,1.8,1.3c1.4,0.5,2.8,0.2,3.7-0.4c0.9-0.6,1.4-1.4,1.7-2
				c0.3-0.6,0.3-0.9,0.4-0.9c0,0,0,0.4-0.2,1c-0.2,0.6-0.7,1.5-1.7,2.2c-1,0.7-2.5,1.1-4,0.5c-0.8-0.3-1.5-0.7-2.1-1.4
				c-0.6-0.7-0.9-1.5-1.4-2.2c-0.4-0.7-0.9-1.4-1.6-1.7c-0.7-0.3-1.5-0.3-2.1,0c-1.4,0.5-2.1,1.7-2.5,2.8c-0.4,1.1-0.5,2-0.6,2.6
				C191.8,537,191.7,537.4,191.7,537.4z"/>
			<path class="st7" d="M173.1,670.9c0,0-0.3-0.1-0.9-0.4c-0.6-0.3-1.4-0.7-2.3-1.5c-0.9-0.7-1.8-2-1.8-3.7c0-0.8,0.3-1.7,1-2.3
				c0.7-0.6,1.6-0.8,2.5-0.9c0.9-0.1,1.7-0.1,2.5-0.4c0.7-0.2,1.4-0.6,1.9-1.2c1-1.1,1.3-2.5,1.1-3.5c-0.2-1.1-0.7-1.9-1.1-2.3
				c-0.4-0.5-0.7-0.6-0.7-0.7c0,0,0.4,0.1,0.9,0.5c0.5,0.4,1.1,1.2,1.4,2.4c0.3,1.2,0,2.7-1.1,3.9c-0.5,0.6-1.3,1.1-2.1,1.3
				c-0.8,0.2-1.7,0.3-2.6,0.4c-0.8,0.1-1.7,0.3-2.2,0.8c-0.6,0.5-0.8,1.2-0.8,1.9c-0.1,1.5,0.7,2.6,1.5,3.4c0.8,0.8,1.6,1.2,2.2,1.6
				C172.8,670.7,173.1,670.8,173.1,670.9z"/>
			<path class="st7" d="M105.6,555.2c0,0,0.3,0.3,0.6,0.8c0.4,0.5,0.9,1.3,1.3,2.4c0.4,1.1,0.6,2.7-0.3,4.1c-0.4,0.7-1.1,1.3-2,1.5
				c-0.9,0.2-1.8-0.1-2.6-0.4c-0.8-0.4-1.6-0.7-2.3-0.9c-0.8-0.2-1.5-0.1-2.2,0.1c-1.4,0.4-2.4,1.5-2.7,2.5c-0.4,1-0.3,2-0.2,2.6
				c0.1,0.6,0.3,0.9,0.3,0.9c0,0-0.3-0.3-0.5-0.9c-0.2-0.6-0.3-1.6,0-2.8c0.3-1.1,1.4-2.4,2.9-2.8c0.8-0.2,1.6-0.3,2.5-0.1
				c0.8,0.2,1.6,0.6,2.4,1c0.8,0.3,1.6,0.6,2.3,0.4c0.7-0.1,1.3-0.7,1.7-1.3c0.8-1.2,0.7-2.7,0.4-3.7c-0.3-1.1-0.8-1.9-1.1-2.4
				C105.7,555.5,105.6,555.2,105.6,555.2z"/>
			<path class="st7" d="M170.7,543.5c0,0,0.3,0.3,0.6,0.8c0.4,0.5,0.9,1.3,1.3,2.4c0.4,1.1,0.6,2.7-0.3,4.1c-0.4,0.7-1.1,1.3-2,1.5
				c-0.9,0.2-1.8-0.1-2.6-0.4c-0.8-0.4-1.6-0.7-2.3-0.9c-0.8-0.2-1.5-0.1-2.2,0.1c-1.4,0.4-2.4,1.5-2.7,2.5c-0.4,1-0.3,2-0.2,2.6
				c0.1,0.6,0.3,0.9,0.3,0.9c0,0-0.3-0.3-0.5-0.9c-0.2-0.6-0.3-1.6,0-2.8c0.3-1.1,1.4-2.4,2.9-2.8c0.8-0.2,1.6-0.3,2.5-0.1
				c0.8,0.2,1.6,0.6,2.4,1c0.8,0.3,1.6,0.6,2.3,0.4c0.7-0.1,1.3-0.7,1.7-1.3c0.8-1.2,0.7-2.7,0.4-3.7c-0.3-1.1-0.8-1.9-1.1-2.4
				C170.9,543.9,170.7,543.5,170.7,543.5z"/>
			<path class="st7" d="M130.6,612.1c0,0,0-0.1,0-0.3c0-0.2,0-0.5,0.1-0.8c0.1-0.7,0.2-1.7,0.3-2.9c0.3-2.6,0.6-6.3,1.1-10.8
				c1-9.1,2.3-21.6,3.8-35.5c0.3-3.5,0.5-6.9,0-10.1c-0.5-3.2-1.7-6.2-3.6-8.5c-1.8-2.4-4.1-4.2-6.4-5.5c-2.3-1.3-4.7-2.1-6.9-2.6
				c-4.4-1-8.2-0.9-10.7-0.7c-1.3,0.1-2.3,0.2-2.9,0.3c-0.3,0-0.6,0.1-0.8,0.1c-0.2,0-0.3,0-0.3,0c0,0,0.1,0,0.3-0.1
				c0.2,0,0.4-0.1,0.8-0.1c0.7-0.1,1.6-0.3,2.9-0.4c2.5-0.2,6.3-0.4,10.8,0.5c2.2,0.5,4.7,1.3,7,2.6c2.4,1.3,4.7,3.1,6.6,5.6
				c1.9,2.4,3.2,5.4,3.7,8.7c0.5,3.3,0.3,6.7,0,10.2c-1.5,13.8-2.9,26.4-4,35.5c-0.5,4.5-1,8.2-1.3,10.7c-0.2,1.2-0.3,2.2-0.4,2.9
				c0,0.3-0.1,0.6-0.1,0.8C130.6,612,130.6,612.1,130.6,612.1z"/>
			<path class="st7" d="M133.2,608.9c0,0.1-13.2,1.7-29.6,3.4c-16.4,1.7-29.7,3-29.7,2.9c0-0.1,13.2-1.7,29.6-3.4
				C119.9,610.1,133.2,608.8,133.2,608.9z"/>
			<path class="st7" d="M213.8,602.4c0,0,0-0.2,0.1-0.5c0.1-0.4,0.2-0.9,0.3-1.5c0.1-0.6,0.3-1.4,0.4-2.4c0.1-0.9,0.3-2,0.4-3.2
				c0-0.6,0.1-1.2,0.1-1.8c0-0.6,0-1.3,0-2c0.1-1.4,0-2.9-0.1-4.4c-0.2-3.1-0.7-6.5-1.6-10c-0.9-3.5-2.1-6.7-3.4-9.5
				c-0.7-1.4-1.3-2.7-2-3.9c-0.3-0.6-0.7-1.2-1-1.7c-0.3-0.5-0.7-1.1-1-1.6c-0.6-1-1.3-1.8-1.8-2.6c-0.5-0.8-1-1.4-1.5-1.9
				c-0.4-0.5-0.7-0.9-1-1.2c-0.2-0.3-0.3-0.4-0.3-0.4c0,0,0.1,0.1,0.4,0.4c0.3,0.3,0.6,0.7,1,1.1c0.5,0.5,1,1.1,1.6,1.9
				c0.6,0.7,1.3,1.6,1.9,2.6c0.3,0.5,0.7,1,1,1.5c0.4,0.5,0.7,1.1,1,1.7c0.7,1.2,1.4,2.5,2.1,3.9c1.3,2.9,2.5,6.1,3.4,9.6
				c0.9,3.5,1.3,7,1.6,10.1c0.1,1.6,0.1,3.1,0.1,4.5c0,0.7,0,1.4-0.1,2c-0.1,0.6-0.1,1.3-0.2,1.9c-0.1,1.2-0.3,2.2-0.4,3.2
				c-0.1,0.9-0.3,1.7-0.5,2.4c-0.2,0.6-0.3,1.1-0.4,1.5C213.8,602.2,213.8,602.4,213.8,602.4z"/>
			<path class="st7" d="M367.3,602.7c-2-9.8,6.1-19.3,16.3-14.7c4.6,2.1,8.2,5.1,13.5,3.9c8.4-1.9,12.5-12.2,7-19
				c-0.7-0.8-1.8,0.2-1.4,1.1c2,4.2,2.6,9.1-0.7,12.8c-3.1,3.4-7.6,3.9-11.7,2.4c-4.8-1.8-8.1-4.9-13.5-4.1
				c-8.5,1.2-13.9,10.2-10.4,18.1C366.6,603.6,367.4,603.2,367.3,602.7L367.3,602.7z"/>
			<path class="st7" d="M390.5,450.6c2.1,4.4,5,8.4,7.9,12.3c1.1,1.5,2.5,3.7,4.6,3.8c2.1,0.1,4.2-2.1,5.8-3.2c4.2-3,8.4-6,12.6-9
				c0.4-0.3,0.6-0.8,0.3-1.3c-3.9-6-7.7-11.9-11.6-17.9c-0.3-0.4-0.9-0.7-1.3-0.3c-4.6,3.3-9.3,6.4-13.8,9.8
				c-0.9,0.7-0.1,2.2,0.9,1.6c2.6-1.7,5.2-3.6,7.7-5.4c2.1-1.5,4.3-4.2,6.4-2.3c2,1.8,3.3,5.1,4.7,7.3c1.1,1.7,4.9,5.7,4,7.9
				c-0.7,1.8-5.5,3.9-7.1,5c-2,1.4-4.8,4.5-7.1,5.1c-5.1,1.3-10.8-10.5-13.6-14C390.8,449.8,390.3,450.3,390.5,450.6L390.5,450.6z"
				/>
			<path class="st7" d="M335.4,507.1c-5.3,5.2-6.8,13.8-1.7,19.8c4.8,5.7,14.1,7,20,2.3c5.6-4.4,7.4-12.6,3.8-18.8
				c-4-7-12.9-9.7-20.5-8.6c-0.8,0.1-0.6,1.5,0.2,1.5c5.9-0.4,12.3,0.7,16.7,5c5,4.8,5.1,12.8,0.6,18c-4.8,5.5-13.5,5.7-18.8,0.6
				c-5.4-5.2-4.8-14.2,0.3-19.3C336.2,507.3,335.7,506.8,335.4,507.1L335.4,507.1z"/>
			<path class="st7" d="M476,560.8c-1.6,11-3.2,22-4.7,33c-0.1,0.7,0.4,1.1,1,1c10.3-1.6,20.5-3.2,30.8-5c0.5-0.1,0.7-0.7,0.5-1.2
				c-5.9-10.6-13.3-21.5-23.2-28.8c-0.8-0.6-1.7,0.7-1,1.4c7.5,7.6,14.7,14.7,20.4,23.9c1.6,2.6,2.3,3.1-0.9,3.7
				c-2.8,0.6-5.8,0.9-8.7,1.3c-6.1,1-12.2,2-18.3,3c0.4,0.3,0.7,0.5,1.1,0.8c1.4-11,2.8-22,4.1-33.1
				C477.2,560.3,476.1,560.2,476,560.8L476,560.8z"/>
			<path class="st7" d="M425.7,539.7c1.5-10.8,3-21.8,4-32.7c0.1-0.9-1.4-1.1-1.6-0.2c-1.5,10.9-2.5,21.8-3.5,32.7
				C424.6,540.2,425.6,540.3,425.7,539.7L425.7,539.7z"/>
			<path class="st7" d="M545,537c10.9,0.7,21.8,1.3,32.7,1.4c1,0,1-1.5,0-1.6c-10.9-0.6-21.8-0.8-32.7-0.8
				C544.3,536,544.3,537,545,537L545,537z"/>
			<path class="st7" d="M456.7,398.9c10,4.4,20.1,8.8,30.4,12.7c0.8,0.3,1.4-1.1,0.6-1.5c-10-4.4-20.3-8.4-30.6-12.2
				C456.6,397.7,456.2,398.6,456.7,398.9L456.7,398.9z"/>
			<path class="st7" d="M483.9,492.3c-0.2-0.3-0.5-0.6-0.8-0.8c-0.6-0.5-1.6-0.7-2.3,0c-0.6,0.7-0.6,1.6,0,2.3
				c0.3,0.3,0.5,0.5,0.8,0.8c0.5,0.4,1.5,0.2,2-0.3C484.1,493.8,484.4,492.9,483.9,492.3L483.9,492.3z"/>
		</g>
		<g>
			<g>
				<g>
					<g>
						<path class="st9" d="M533.5,462.8c-5.3,5.2-6.8,13.8-1.7,19.8c4.8,5.7,14.1,7,20,2.3c5.6-4.4,7.4-12.6,3.8-18.8
							c-4-7-12.9-9.7-20.5-8.6c-0.8,0.1-0.6,1.5,0.2,1.5c5.9-0.4,12.3,0.7,16.7,5c5,4.8,5.1,12.8,0.6,18c-4.8,5.5-13.5,5.7-18.8,0.6
							c-5.4-5.2-4.8-14.2,0.3-19.3C534.3,463,533.8,462.5,533.5,462.8L533.5,462.8z"/>
					</g>
				</g>
				<g>
					<path class="st10" d="M136.5,404.3c-6.1-2.8-13.6-2.1-19.2,1.6c-5.6,3.8-9,10.5-8.7,17.2c0.2,5.2,2.3,11.2-1,15.3
						c-2.6,3.1-7.2,3.4-10.9,5.1c-7,3.2-10.5,12.5-7.3,19.5c1.7,3.8,5.2,7.3,4.5,11.4c-0.4,2.7-2.5,4.8-4.9,6.1
						c-2.3,1.3-5,2.1-7.4,3.3c-8.8,4.3-14.2,14.4-14,24.2c0.3,9.8,5.7,19.2,13.4,25.2c7.8,6,17.7,9,27.5,9.4
						c9.9,0.4,20.2-1.9,27.7-8.3c5.6-4.8,9.3-11.5,12-18.4c5.2-13.1,7.3-27.4,6.1-41.4c-1.2-14.5-5.9-28.7-7-43.2
						c-0.3-4.9-0.3-9.8-1.4-14.6c-1.1-4.8-3.5-9.5-7.7-12"/>
				</g>
				<g>
					<path class="st10" d="M134.3,406.2c5.6-11.6,16.7-20.5,29.3-23.3c7.7-1.7,16.2-1.1,23.1,2.9c6.8,4.1,11.5,12,10.5,19.9
						c-0.6,4.9-3.3,9.2-5,13.8c-1.7,4.6-2.2,10.2,0.9,14c2.8,3.4,7.6,4.2,11.4,6.4c5.4,3.1,8.9,9.5,8.5,15.8
						c-0.4,6.3-4.5,12.2-10.3,14.7c5.7,0.7,11.1,3.9,14.4,8.6c3.3,4.7,4.5,10.9,3.2,16.5c-1.9,8.1-8.4,14.2-15.5,18.6
						c-9.8,6-21.1,9.6-32.6,10.1c-12.2,0.6-25.7-3.1-32.3-13.3c-4.4-6.7-5-15.1-5.5-23.1c-1.5-24.2-2.5-48.3-3.5-72.5
						c-0.2-3.9-0.3-7.8,0.6-11.6"/>
				</g>
				<path class="st11" d="M175.3,515.3l109.4,41l-10.4-44.2l28.4-7.2c0,0,30.6,86.3,9.3,88.6c-37.2,4-93.5-10.7-93.5-10.7
					L175.3,515.3z"/>
				<path class="st12" d="M165.8,703.7c0,0,132.1-144.2,221.3-112.7c89.2,31.5,126.8,178.3,126.8,178.3l-71-1.2
					c0,0-56.1-110.9-83.5-106.6c-27.4,4.3-111.9,109.9-111.9,109.9L165.8,703.7z"/>
				<path class="st13" d="M207.6,616.2l5.5,84.6c-28.5,35-127.6-10.3-127.6-10.3l-1.2-35.4L82,570.9c2.3-33.6,33.4-50,33.4-50
					c12.9-6.4,32.5-10.1,50.2-9.2c18.5,0.9,23,9.8,30.7,26.6C202.5,552,219.2,574.2,207.6,616.2z"/>
				<path class="st14" d="M104,706.5c0,0-15.2,61.7,31.1,71.4c46.2,9.7,216.2-13,260.4-9.1c44.3,3.9,170.2,11.2,170.2,11.2l9.2-73.3
					c0,0-195.9-9.4-218.1-3.9C334.7,708.4,104,706.5,104,706.5z"/>
				<g>
					<path class="st11" d="M126.1,598.6c0,0-13.9,81.7,5.7,79.6c64.3-6.6,102.6-7.5,102.6-7.5l10.7,22.1
						c0.2,3.8-121.7,38.7-141.3,27.1c-13.8-8.2-35.9-30.1-25.9-95.7l2.4-22L126.1,598.6z"/>
				</g>
				<g>
					<polygon class="st15" points="184.1,715.8 184,710.4 264.7,699 286.1,624.1 375.5,621.9 351.4,703 					"/>
					<path class="st16" d="M329.2,659.6c0.1,3.7-2.8,6.7-6.5,6.8c-3.7,0.1-6.7-2.8-6.8-6.5c-0.1-3.7,2.8-6.7,6.5-6.8
						C326,653,329.1,655.9,329.2,659.6z"/>
					<path class="st17" d="M331.8,659.5c0.1,5.1-3.9,9.4-9,9.5c-5.1,0.1-9.4-3.9-9.5-9c-0.1-5.1,3.9-9.4,9-9.5
						C327.4,650.3,331.7,654.4,331.8,659.5z"/>
				</g>
				<path class="st13" d="M90.8,544.4c0,0-15,14.4-18.3,68.9l58-6.4C130.5,606.9,140.1,514.1,90.8,544.4z"/>
				<g>
					<path class="st18" d="M516.7,380.6c0,0,20.6,46.2,26.3,43.8c5.7-2.4,58.9-35.4,58.9-35.4s-21.8-41.4-26.3-43.8
						C571.1,342.8,516.7,380.6,516.7,380.6z"/>
					<g>
						<g>
							<g>
								<path class="st19" d="M575.6,345.2c0,0,0,0.1-0.1,0.2c-0.1,0.2-0.1,0.4-0.2,0.6c-0.2,0.6-0.5,1.4-0.9,2.4
									c-0.8,2.2-1.9,5.2-3.3,8.9c-2.8,7.6-6.7,17.9-11,29.4c-0.1,0.3-0.2,0.6-0.3,0.8l-0.1,0.2l-0.2,0c-11.9-2-22.6-3.7-30.4-5
									c-3.8-0.7-7-1.2-9.2-1.6c-1-0.2-1.9-0.3-2.5-0.5c-0.6-0.1-0.9-0.2-0.9-0.2c0,0,0.3,0,0.9,0.1c0.6,0.1,1.4,0.2,2.5,0.4
									c2.2,0.3,5.3,0.8,9.2,1.4c7.8,1.2,18.5,3,30.4,4.9l-0.3,0.2c0.1-0.3,0.2-0.5,0.3-0.8c4.3-11.4,8.3-21.8,11.1-29.3
									c1.4-3.7,2.6-6.7,3.4-8.9c0.4-1,0.7-1.8,1-2.4c0.1-0.2,0.2-0.5,0.3-0.6C575.6,345.3,575.6,345.2,575.6,345.2z"/>
							</g>
						</g>
					</g>
					<g>
						<g>
							<g>
								<path class="st19" d="M536.3,419c0,0,0-0.5,0.2-1.3c0.2-0.9,0.4-2.1,0.8-3.6c0.7-3.1,1.7-7.3,3-11.9
									c1.3-4.6,2.5-8.8,3.5-11.7c0.5-1.5,0.9-2.7,1.2-3.5c0.3-0.8,0.5-1.3,0.5-1.3s-0.1,0.5-0.3,1.3c-0.3,0.9-0.6,2.1-1,3.6
									c-0.9,3-2.1,7.2-3.3,11.8c-1.3,4.6-2.3,8.8-3.1,11.8c-0.4,1.4-0.7,2.6-0.9,3.6C536.5,418.5,536.3,419,536.3,419z"/>
							</g>
						</g>
					</g>
					<g>
						<g>
							<g>
								<path class="st19" d="M598.4,379.8c0,0.1-7.4-0.9-16.4-2.3c-9.1-1.4-16.4-2.7-16.4-2.9c0-0.1,7.4,0.9,16.4,2.3
									C591.1,378.4,598.4,379.7,598.4,379.8z"/>
							</g>
						</g>
					</g>
				</g>
				<path class="st11" d="M119.8,430.3l1.3,17.3c0,0-14.7,2-10.5,15.4c4.2,13.4,14.3,7.5,14.3,7.5s2.5,34.4,37.7,23.5
					c28-8.7,26.3-45,22.7-75.9c-1.4-12-12.7-20.2-24.6-17.9l-21.2,4.1C127.4,406.7,118.9,417.8,119.8,430.3z"/>
				<path class="st11" d="M121.2,461.9l9.5,50.6c2.1,11.4,13.4,18.7,24.7,16l0,0c10.5-2.5,17.1-12.7,15.3-23.3l-5.1-29L121.2,461.9z
					"/>
				<g>
					<g>
						<g>
							<path class="st10" d="M160.1,462.5c0,0,0.1,0.1,0.2,0.3c0.1,0.2,0.4,0.4,0.8,0.5c0.8,0.2,2.1-0.6,2.4-2.1
								c0.4-1.5,0.3-3.4,0.1-5.4c-0.1-2.1-0.3-4.4-0.4-6.7c-0.3-4.8-0.5-9.1-0.7-12.3c-0.1-1.5-0.1-2.7-0.2-3.7c0-0.9,0-1.4,0-1.4
								c0,0,0.1,0.5,0.2,1.4c0.1,1,0.2,2.2,0.3,3.7c0.2,3.1,0.5,7.5,0.8,12.3c0.1,2.4,0.3,4.7,0.4,6.7c0.1,2.1,0.2,4-0.3,5.6
								c-0.2,0.8-0.6,1.5-1.2,1.8c-0.5,0.4-1.2,0.5-1.6,0.4c-0.5-0.1-0.7-0.5-0.8-0.7C160.1,462.6,160.1,462.5,160.1,462.5z"/>
						</g>
					</g>
				</g>
				<g>
					<g>
						<g>
							<path class="st10" d="M171.5,490.4c0,0-0.4,0.4-1.1,0.9c-0.7,0.5-1.8,1.3-3.3,2c-2.9,1.5-7.3,3-12.3,3.1
								c-5,0.1-9.5-1.2-12.4-2.6c-1.5-0.7-2.6-1.4-3.4-1.9c-0.8-0.5-1.1-0.8-1.1-0.9c0.1-0.1,1.7,1.1,4.6,2.4
								c2.9,1.3,7.3,2.5,12.2,2.4c4.9-0.1,9.2-1.5,12.1-2.9C169.9,491.6,171.5,490.3,171.5,490.4z"/>
						</g>
					</g>
				</g>
				<g>
					<g>
						<g>
							<path class="st10" d="M164.6,469.6c0,0-0.1,0.3-0.4,0.6c-0.3,0.4-0.9,0.8-1.6,1.3c-1.5,0.9-4.1,1.6-6.7,0.8
								c-2.6-0.9-4.3-3-5-4.6c-0.4-0.8-0.5-1.5-0.6-2c-0.1-0.5,0-0.8,0-0.8c0.1,0,0.1,1.1,0.9,2.6c0.7,1.5,2.4,3.4,4.8,4.2
								c2.5,0.8,4.9,0.2,6.4-0.6C163.9,470.4,164.6,469.5,164.6,469.6z"/>
						</g>
					</g>
				</g>
				<g>
					<g>
						<g>
							<path class="st10" d="M120,464.6c0,0-0.2,0.1-0.6,0.1c-0.4,0-0.9-0.1-1.6-0.3c-0.6-0.3-1.4-0.8-1.7-1.8c-0.2-0.4-0.2-1,0-1.5
								c0.1-0.5,0.6-1,1.1-1.2c0.8-0.3,1.7-0.1,2.2,0.6l-0.4,0.2c-1.2-2.8-2-4.9-1.9-4.9c0.1,0,1.1,1.9,2.4,4.7l-0.4,0.2
								c-0.3-0.4-1-0.6-1.5-0.4c-0.9,0.3-1.1,1.3-0.8,2.1c0.2,0.8,0.8,1.3,1.4,1.6C119.2,464.6,120.1,464.5,120,464.6z"/>
						</g>
					</g>
				</g>
				<g>
					<g>
						<g>
							<path class="st10" d="M174.2,440.4c-0.1,0-0.5-1.2-0.9-2.7c-0.3-1.5-0.5-2.8-0.4-2.8c0.1,0,0.5,1.2,0.9,2.7
								C174.2,439.1,174.3,440.3,174.2,440.4z"/>
						</g>
					</g>
				</g>
				<g>
					<g>
						<g>
							<path class="st10" d="M144.4,443.1c-0.1,0-0.6-1.2-1-2.7c-0.4-1.5-0.7-2.8-0.5-2.8c0.1,0,0.6,1.2,1,2.7
								C144.3,441.8,144.5,443.1,144.4,443.1z"/>
						</g>
					</g>
				</g>
				<g>
					<g>
						<g>
							<path class="st10" d="M147.2,430.5c0,0.2-1.7-0.2-3.7,0.3c-2,0.5-3.3,1.7-3.4,1.6c-0.1-0.1,1.1-1.5,3.2-2.1
								C145.5,429.7,147.2,430.4,147.2,430.5z"/>
						</g>
					</g>
				</g>
				<g>
					<g>
						<g>
							<path class="st10" d="M177.6,425.7c0,0.2-1.8-0.5-4.1-0.3c-2.3,0.2-3.9,1.1-4,1c-0.1-0.1,1.5-1.3,3.9-1.5
								C175.9,424.7,177.7,425.6,177.6,425.7z"/>
						</g>
					</g>
				</g>
				<g>
					<path class="st10" d="M121.2,447.5c9.8-9.6,12.7-25.5,15.4-39c9.1,6.6,21.6,8.3,32.1,4.2c3.3,3.9,7.2,7.2,11.4,10
						c1.2,0.8,2.7,1.5,4,1.1c1.6-0.5,2.4-2.4,2.8-4.1c1.3-5.4,1.3-11.1-0.6-16.3c-1.9-5.2-5.8-9.7-10.9-11.7
						c-5.5-2.1-11.7-1.2-17.4,0.3c-8.6,2.2-16.9,5.7-24.5,10.1c-7.5,4.4-14.7,10.2-17.9,18.3c-3.2,8.1-3.2,23.9,4.5,28"/>
				</g>
				<g class="st20">
					<g>
						<g>
							<path class="st10" d="M161.3,471.4c0,0.4-0.4,0.7-1.2,1c-0.8,0.2-1.9,0.3-3.1,0.1c-1.2-0.3-2.2-0.8-2.8-1.3
								c-0.6-0.5-0.8-1.1-0.7-1.4c0.4-0.6,2.1-0.2,4,0.2C159.5,470.4,161.2,470.7,161.3,471.4z"/>
						</g>
					</g>
				</g>
				<g class="st21">
					<g>
						<g>
							<path class="st10" d="M149,455.4c0.1,0.7-3.3,1.9-7.8,2.1c-4.4,0.2-8-0.7-7.9-1.4c0.1-0.7,3.5-1,7.8-1.2
								C145.4,454.7,148.9,454.7,149,455.4z"/>
						</g>
					</g>
				</g>
				<g class="st21">
					<g>
						<g>
							<path class="st10" d="M186.2,452.3c0.1,0.7-2.9,1.9-6.8,2.1c-4,0.2-7.1-0.7-7-1.4c0.1-0.7,3.2-1,6.9-1.2
								C183,451.7,186.1,451.6,186.2,452.3z"/>
						</g>
					</g>
				</g>
				<g>
					<g>
						<g>
							<path class="st22" d="M120.7,493.3c-0.1,0-0.1-1.4-0.2-3.6c-0.1-2.2-0.1-5.4-0.3-8.8c-0.2-3.4-0.4-6.5-0.6-8.8
								c-0.2-2.2-0.3-3.6-0.2-3.6c0,0,0.1,0.3,0.2,1c0.1,0.6,0.2,1.5,0.4,2.6c0.3,2.2,0.6,5.3,0.7,8.8c0.2,3.4,0.2,6.5,0.2,8.8
								c0,1.1,0,2-0.1,2.7C120.8,493,120.8,493.3,120.7,493.3z"/>
						</g>
					</g>
				</g>
				<path class="st13" d="M179.2,515c-9.5-3.8,63.7,23.4,63.7,23.4l-7.4,50.1l-27.8-9.1L179.2,515z"/>
				<g>
					<path class="st10" d="M135.6,401.7c2.3-3.5,3.1-7.9,2-12c-0.8-3.3-3.4-6.6-6.8-6.8c-1.9-0.1-3.8,0.8-5.3,2.2
						c-3.5,3.3-4.4,9-2.1,13.2c2.4,4.2,7.7,6.4,12.4,5.1"/>
				</g>
				<path class="st10" d="M572.9,722.3c0,0,23.8-34.1,20.9-21.2c-2.9,12.9-27.1,70.4-27.1,70.4L572.9,722.3z"/>
				<path class="st11" d="M227.6,670.8c0,0,31.5-9.9,30.4-6.6c-1.1,3.2-6.4,3.4-11.8,8.6c0,0,35.2,0.4,33.5,3.3
					c-1.7,2.9-24.6,3.6-24.7,4.1c-0.1,0.5,25,1.1,24.5,3.8c-0.6,2.7-24,2-24,2s21.7,2.3,21.2,5.2c-0.4,2.9-20.4,0.8-20.4,0.8
					s16.7,1.9,16.3,4.5c-0.3,1.6-49,2-49.1,3.1C223.4,700.2,227.6,670.8,227.6,670.8"/>
				<path class="st11" d="M276.3,515c0,0-19.1-26.7-15.7-26.7c3.4,0,5.2,5,11.8,8.5c0,0-10.6-33.4-7.3-32.7
					c3.3,0.7,11.1,22.1,11.6,22.1c0.5,0-6.7-24-4-24.3c2.7-0.3,9.4,22,9.4,22s-4.6-21.2-1.7-21.7c2.9-0.5,7.1,19.1,7.1,19.1
					s-3.4-16.4-0.8-16.8c1.6-0.2,16,40.5,16,40.5C302.3,504.9,276.3,515,276.3,515"/>
				<g>
					<g>
						<g>
							<path class="st23" d="M100.1,588.4c0,0,0.1,0.3,0.2,1c0.1,0.6,0.3,1.6,0.2,2.7c-0.1,1.1-0.6,2.7-1.9,3.6
								c-0.6,0.5-1.5,0.8-2.4,0.6c-0.9-0.2-1.6-0.8-2.2-1.5c-0.6-0.7-1.1-1.3-1.7-1.8c-0.6-0.5-1.3-0.8-2.1-0.8
								c-1.4-0.2-2.7,0.4-3.5,1.2c-0.8,0.8-1.1,1.7-1.2,2.3c-0.1,0.6-0.1,1-0.1,1c0,0-0.1-0.4-0.1-1c0.1-0.6,0.3-1.6,1.1-2.5
								c0.8-0.9,2.2-1.6,3.8-1.4c0.8,0.1,1.6,0.4,2.3,0.9c0.7,0.5,1.2,1.2,1.8,1.8c0.6,0.6,1.2,1.2,2,1.3c0.7,0.2,1.5-0.1,2.1-0.5
								c1.2-0.8,1.7-2.1,1.8-3.2c0.1-1.1,0-2,0-2.7C100.1,588.8,100.1,588.4,100.1,588.4z"/>
						</g>
					</g>
				</g>
				<g>
					<g>
						<g>
							<path class="st23" d="M117.3,573.6c0,0,0.2-0.3,0.7-0.7c0.5-0.4,1.2-1,2.2-1.6c1-0.5,2.6-0.9,4.1-0.2
								c0.7,0.3,1.5,0.9,1.7,1.8c0.3,0.9,0.1,1.8-0.1,2.7c-0.2,0.9-0.5,1.6-0.6,2.4c-0.1,0.8,0.1,1.5,0.4,2.2
								c0.6,1.3,1.8,2.1,2.8,2.4c1.1,0.2,2,0.1,2.6-0.2c0.6-0.2,0.9-0.4,0.9-0.4c0,0-0.2,0.3-0.8,0.6c-0.6,0.3-1.6,0.5-2.7,0.3
								c-1.2-0.2-2.5-1.1-3.2-2.5c-0.3-0.7-0.5-1.6-0.4-2.4c0.1-0.9,0.4-1.7,0.6-2.5c0.2-0.8,0.4-1.6,0.1-2.4
								c-0.2-0.7-0.8-1.2-1.5-1.5c-1.3-0.6-2.7-0.3-3.7,0.1c-1,0.5-1.8,1-2.3,1.4C117.6,573.4,117.4,573.6,117.3,573.6z"/>
						</g>
					</g>
				</g>
				<g>
					<g>
						<g>
							<path class="st23" d="M116.2,536.6c0,0,0.2-0.3,0.7-0.7c0.5-0.4,1.2-1,2.2-1.6c1-0.5,2.6-0.9,4.1-0.2
								c0.7,0.3,1.5,0.9,1.7,1.8c0.3,0.9,0.1,1.8-0.1,2.7c-0.2,0.9-0.5,1.6-0.6,2.4c-0.1,0.8,0.1,1.5,0.4,2.2
								c0.6,1.3,1.8,2.1,2.8,2.4c1.1,0.2,2,0.1,2.6-0.2c0.6-0.2,0.9-0.4,0.9-0.4c0,0-0.2,0.3-0.8,0.6c-0.6,0.3-1.6,0.5-2.7,0.3
								c-1.2-0.2-2.5-1.1-3.2-2.5c-0.3-0.7-0.5-1.6-0.4-2.4c0.1-0.9,0.4-1.7,0.6-2.5c0.2-0.8,0.4-1.6,0.1-2.4
								c-0.2-0.7-0.8-1.2-1.5-1.5c-1.3-0.6-2.7-0.3-3.7,0.1c-1,0.5-1.8,1-2.3,1.4C116.5,536.5,116.2,536.7,116.2,536.6z"/>
						</g>
					</g>
				</g>
				<g>
					<g>
						<g>
							<path class="st23" d="M152.8,584.8c0,0-0.3-0.2-0.8-0.6c-0.5-0.4-1.1-1.1-1.8-2.1c-0.6-1-1.1-2.5-0.6-4
								c0.2-0.8,0.8-1.5,1.6-1.9c0.8-0.4,1.8-0.3,2.7-0.1c0.9,0.2,1.7,0.4,2.5,0.4c0.8,0,1.5-0.2,2.1-0.5c1.3-0.7,2-1.9,2.1-3
								c0.2-1.1-0.1-2-0.4-2.6c-0.3-0.6-0.5-0.8-0.5-0.9c0,0,0.3,0.2,0.6,0.8c0.3,0.6,0.7,1.5,0.6,2.7c-0.1,1.2-0.8,2.6-2.2,3.4
								c-0.7,0.4-1.5,0.7-2.4,0.6c-0.9,0-1.7-0.3-2.6-0.4c-0.8-0.2-1.7-0.2-2.4,0.1c-0.7,0.3-1.2,0.9-1.4,1.6
								c-0.5,1.4-0.1,2.7,0.4,3.7c0.6,1,1.2,1.7,1.6,2.1C152.6,584.5,152.8,584.7,152.8,584.8z"/>
						</g>
					</g>
				</g>
				<g>
					<g>
						<g>
							<path class="st23" d="M177.8,623.4c0,0-0.2,0.3-0.8,0.7c-0.5,0.4-1.3,1-2.4,1.4c-1.1,0.5-2.6,0.7-4.1-0.1
								c-0.7-0.4-1.4-1-1.6-1.9c-0.2-0.9,0-1.8,0.3-2.6c0.3-0.8,0.7-1.6,0.8-2.4c0.2-0.8,0.1-1.5-0.2-2.2c-0.5-1.4-1.6-2.3-2.7-2.6
								c-1.1-0.3-2-0.2-2.6,0c-0.6,0.2-0.9,0.4-0.9,0.3c0,0,0.3-0.3,0.9-0.5c0.6-0.2,1.6-0.4,2.8-0.1c1.2,0.3,2.4,1.2,3,2.8
								c0.3,0.7,0.4,1.6,0.2,2.5c-0.2,0.9-0.5,1.7-0.8,2.5c-0.3,0.8-0.5,1.6-0.3,2.3c0.2,0.7,0.7,1.3,1.3,1.6
								c1.3,0.7,2.7,0.5,3.7,0.1c1.1-0.4,1.8-0.9,2.4-1.2C177.5,623.6,177.8,623.4,177.8,623.4z"/>
						</g>
					</g>
				</g>
				<g>
					<g>
						<g>
							<path class="st23" d="M207.2,562.5c0,0-0.2,0.3-0.8,0.7c-0.5,0.4-1.3,1-2.4,1.4c-1.1,0.5-2.6,0.7-4.1-0.1
								c-0.7-0.4-1.4-1-1.6-1.9c-0.2-0.9,0-1.8,0.3-2.6c0.3-0.8,0.7-1.6,0.8-2.4c0.2-0.8,0.1-1.5-0.2-2.2c-0.5-1.4-1.6-2.3-2.7-2.6
								c-1.1-0.3-2-0.2-2.6,0c-0.6,0.2-0.9,0.4-0.9,0.3c0,0,0.3-0.3,0.9-0.5c0.6-0.2,1.6-0.4,2.8-0.1c1.2,0.3,2.4,1.2,3,2.8
								c0.3,0.7,0.4,1.6,0.2,2.5c-0.2,0.9-0.5,1.7-0.8,2.5c-0.3,0.8-0.5,1.6-0.3,2.3c0.2,0.7,0.7,1.3,1.3,1.6
								c1.3,0.7,2.7,0.5,3.7,0.1c1.1-0.4,1.8-0.9,2.4-1.2C206.9,562.6,207.2,562.4,207.2,562.5z"/>
						</g>
					</g>
				</g>
				<g>
					<g>
						<g>
							<path class="st23" d="M227.3,553.2c0,0,0.3,0.1,0.9,0.5c0.5,0.4,1.3,0.9,2.1,1.7c0.8,0.8,1.6,2.2,1.3,3.9
								c-0.1,0.8-0.5,1.6-1.3,2.2c-0.8,0.5-1.7,0.6-2.6,0.6c-0.9,0-1.7-0.1-2.5,0c-0.8,0.1-1.5,0.5-2,0.9c-1.1,0.9-1.6,2.3-1.5,3.4
								c0.1,1.1,0.5,1.9,0.8,2.5c0.4,0.5,0.6,0.7,0.6,0.8c0,0-0.3-0.1-0.8-0.6c-0.4-0.5-0.9-1.4-1.1-2.6c-0.1-1.2,0.4-2.7,1.6-3.8
								c0.6-0.5,1.4-0.9,2.2-1.1c0.9-0.1,1.7-0.1,2.6-0.1c0.9,0,1.7-0.1,2.3-0.5c0.6-0.4,1-1.1,1.1-1.8c0.2-1.4-0.4-2.7-1.1-3.5
								c-0.7-0.9-1.5-1.4-2-1.8C227.5,553.4,227.3,553.2,227.3,553.2z"/>
						</g>
					</g>
				</g>
				<g>
					<g>
						<g>
							<path class="st23" d="M146.1,654.9c0,0-0.2,0.3-0.8,0.7c-0.5,0.4-1.3,1-2.4,1.4c-1.1,0.5-2.6,0.7-4.1-0.1
								c-0.7-0.4-1.4-1-1.6-1.9c-0.2-0.9,0-1.8,0.3-2.6c0.3-0.8,0.7-1.6,0.8-2.4c0.2-0.8,0.1-1.5-0.2-2.2c-0.5-1.4-1.6-2.3-2.7-2.6
								c-1.1-0.3-2-0.2-2.6,0c-0.6,0.2-0.9,0.4-0.9,0.3c0,0,0.3-0.3,0.9-0.5c0.6-0.2,1.6-0.4,2.8-0.1c1.2,0.3,2.4,1.2,3,2.8
								c0.3,0.7,0.4,1.6,0.2,2.5c-0.2,0.9-0.5,1.7-0.8,2.5c-0.3,0.8-0.5,1.6-0.3,2.3c0.2,0.7,0.7,1.3,1.3,1.6
								c1.3,0.7,2.7,0.5,3.7,0.1c1.1-0.4,1.8-0.9,2.4-1.2C145.8,655.1,146.1,654.9,146.1,654.9z"/>
						</g>
					</g>
				</g>
				<g>
					<g>
						<g>
							<path class="st23" d="M189.6,596.3c0,0-0.3-0.2-0.7-0.7c-0.4-0.5-1-1.2-1.5-2.3c-0.5-1-0.8-2.6-0.1-4.1
								c0.3-0.7,1-1.4,1.9-1.7c0.9-0.3,1.8-0.1,2.7,0.2c0.8,0.3,1.6,0.6,2.4,0.7c0.8,0.1,1.5,0,2.2-0.3c1.3-0.6,2.2-1.7,2.5-2.8
								c0.3-1.1,0.1-2-0.1-2.6c-0.2-0.6-0.4-0.9-0.4-0.9c0,0,0.3,0.2,0.5,0.8c0.3,0.6,0.5,1.6,0.2,2.8c-0.2,1.2-1.1,2.5-2.6,3.1
								c-0.7,0.3-1.6,0.5-2.5,0.3c-0.9-0.1-1.7-0.5-2.5-0.7c-0.8-0.3-1.6-0.4-2.4-0.2c-0.7,0.2-1.3,0.8-1.6,1.4
								c-0.7,1.3-0.4,2.7,0,3.7c0.4,1,1,1.8,1.3,2.3C189.5,595.9,189.7,596.2,189.6,596.3z"/>
						</g>
					</g>
				</g>
				<g>
					<g>
						<g>
							<path class="st23" d="M197.4,627.8c0,0-0.3-0.2-0.7-0.7c-0.4-0.5-1-1.2-1.5-2.3c-0.5-1-0.8-2.6-0.1-4.1
								c0.3-0.7,1-1.4,1.9-1.7c0.9-0.3,1.8-0.1,2.7,0.2c0.8,0.3,1.6,0.6,2.4,0.7c0.8,0.1,1.5,0,2.2-0.3c1.3-0.6,2.2-1.7,2.5-2.8
								c0.3-1.1,0.1-2-0.1-2.6c-0.2-0.6-0.4-0.9-0.4-0.9c0,0,0.3,0.2,0.5,0.8c0.3,0.6,0.5,1.6,0.2,2.8c-0.2,1.2-1.1,2.5-2.6,3.1
								c-0.7,0.3-1.6,0.5-2.5,0.3c-0.9-0.1-1.7-0.5-2.5-0.7c-0.8-0.3-1.6-0.4-2.4-0.2c-0.7,0.2-1.3,0.8-1.6,1.4
								c-0.7,1.3-0.4,2.7,0,3.7c0.4,1,1,1.8,1.3,2.3C197.3,627.5,197.5,627.7,197.4,627.8z"/>
						</g>
					</g>
				</g>
				<g>
					<g>
						<g>
							<path class="st23" d="M134.4,614.3c0,0-0.1-0.4,0-1c0-0.6,0.1-1.6,0.4-2.7c0.3-1.1,1.1-2.5,2.7-3.1c0.7-0.3,1.7-0.4,2.5,0
								c0.8,0.4,1.4,1.2,1.8,1.9c0.4,0.8,0.8,1.5,1.3,2.1c0.5,0.6,1.1,1,1.8,1.3c1.4,0.5,2.8,0.2,3.7-0.4c0.9-0.6,1.4-1.4,1.7-2
								c0.3-0.6,0.3-0.9,0.4-0.9c0,0,0,0.4-0.2,1c-0.2,0.6-0.7,1.5-1.7,2.2c-1,0.7-2.5,1.1-4,0.5c-0.8-0.3-1.5-0.7-2.1-1.4
								c-0.6-0.7-0.9-1.5-1.4-2.2c-0.4-0.7-0.9-1.4-1.6-1.7c-0.7-0.3-1.5-0.3-2.1,0c-1.4,0.5-2.1,1.7-2.5,2.8
								c-0.4,1.1-0.5,2-0.6,2.6C134.5,614,134.5,614.3,134.4,614.3z"/>
						</g>
					</g>
				</g>
				<g>
					<g>
						<g>
							<path class="st23" d="M191.3,653.2c0,0-0.1-0.4,0-1c0-0.6,0.1-1.6,0.4-2.7c0.3-1.1,1.1-2.5,2.7-3.1c0.7-0.3,1.7-0.4,2.5,0
								c0.8,0.4,1.4,1.2,1.8,1.9c0.4,0.8,0.8,1.5,1.3,2.1c0.5,0.6,1.1,1,1.8,1.3c1.4,0.5,2.8,0.2,3.7-0.4c0.9-0.6,1.4-1.4,1.7-2
								c0.3-0.6,0.3-0.9,0.4-0.9c0,0,0,0.4-0.2,1c-0.2,0.6-0.7,1.5-1.7,2.2c-1,0.7-2.5,1.1-4,0.5c-0.8-0.3-1.5-0.7-2.1-1.4
								c-0.6-0.7-0.9-1.5-1.4-2.2c-0.4-0.7-0.9-1.4-1.6-1.7c-0.7-0.3-1.5-0.3-2.1,0c-1.4,0.5-2.1,1.7-2.5,2.8
								c-0.4,1.1-0.5,2-0.6,2.6C191.4,652.9,191.4,653.2,191.3,653.2z"/>
						</g>
					</g>
				</g>
				<g>
					<g>
						<g>
							<path class="st23" d="M189.7,535.4c0,0-0.1-0.4,0-1c0-0.6,0.1-1.6,0.4-2.7c0.3-1.1,1.1-2.5,2.7-3.1c0.7-0.3,1.7-0.4,2.5,0
								c0.8,0.4,1.4,1.2,1.8,1.9c0.4,0.8,0.8,1.5,1.3,2.1c0.5,0.6,1.1,1,1.8,1.3c1.4,0.5,2.8,0.2,3.7-0.4c0.9-0.6,1.4-1.4,1.7-2
								c0.3-0.6,0.3-0.9,0.4-0.9c0,0,0,0.4-0.2,1c-0.2,0.6-0.7,1.5-1.7,2.2c-1,0.7-2.5,1.1-4,0.5c-0.8-0.3-1.5-0.7-2.1-1.4
								c-0.6-0.7-0.9-1.5-1.4-2.2c-0.4-0.7-0.9-1.4-1.6-1.7c-0.7-0.3-1.5-0.3-2.1,0c-1.4,0.5-2.1,1.7-2.5,2.8
								c-0.4,1.1-0.5,2-0.6,2.6C189.8,535,189.7,535.4,189.7,535.4z"/>
						</g>
					</g>
				</g>
				<g>
					<g>
						<g>
							<path class="st23" d="M171.1,668.9c0,0-0.3-0.1-0.9-0.4c-0.6-0.3-1.4-0.7-2.3-1.5c-0.9-0.7-1.8-2-1.8-3.7
								c0-0.8,0.3-1.7,1-2.3c0.7-0.6,1.6-0.8,2.5-0.9c0.9-0.1,1.7-0.1,2.5-0.4c0.7-0.2,1.4-0.6,1.9-1.2c1-1.1,1.3-2.5,1.1-3.5
								c-0.2-1.1-0.7-1.9-1.1-2.3c-0.4-0.5-0.7-0.6-0.7-0.7c0,0,0.4,0.1,0.9,0.5c0.5,0.4,1.1,1.2,1.4,2.4c0.3,1.2,0,2.7-1.1,3.9
								c-0.5,0.6-1.3,1.1-2.1,1.3c-0.8,0.2-1.7,0.3-2.6,0.4c-0.8,0.1-1.7,0.3-2.2,0.8c-0.6,0.5-0.8,1.2-0.8,1.9
								c-0.1,1.5,0.7,2.6,1.5,3.4c0.8,0.8,1.6,1.2,2.2,1.6C170.8,668.7,171.1,668.8,171.1,668.9z"/>
						</g>
					</g>
				</g>
				<g>
					<g>
						<g>
							<path class="st23" d="M103.6,553.2c0,0,0.3,0.3,0.6,0.8c0.4,0.5,0.9,1.3,1.3,2.4c0.4,1.1,0.6,2.7-0.3,4.1
								c-0.4,0.7-1.1,1.3-2,1.5c-0.9,0.2-1.8-0.1-2.6-0.4c-0.8-0.4-1.6-0.7-2.3-0.9c-0.8-0.2-1.5-0.1-2.2,0.1
								c-1.4,0.4-2.4,1.5-2.7,2.5c-0.4,1-0.3,2-0.2,2.6c0.1,0.6,0.3,0.9,0.3,0.9c0,0-0.3-0.3-0.5-0.9c-0.2-0.6-0.3-1.6,0-2.8
								c0.3-1.1,1.4-2.4,2.9-2.8c0.8-0.2,1.6-0.3,2.5-0.1c0.8,0.2,1.6,0.6,2.4,1c0.8,0.3,1.6,0.6,2.3,0.4c0.7-0.1,1.3-0.7,1.7-1.3
								c0.8-1.2,0.7-2.7,0.4-3.7c-0.3-1.1-0.8-1.9-1.1-2.4C103.7,553.5,103.6,553.2,103.6,553.2z"/>
						</g>
					</g>
				</g>
				<g>
					<g>
						<g>
							<path class="st23" d="M168.7,541.5c0,0,0.3,0.3,0.6,0.8c0.4,0.5,0.9,1.3,1.3,2.4c0.4,1.1,0.6,2.7-0.3,4.1
								c-0.4,0.7-1.1,1.3-2,1.5c-0.9,0.2-1.8-0.1-2.6-0.4c-0.8-0.4-1.6-0.7-2.3-0.9c-0.8-0.2-1.5-0.1-2.2,0.1
								c-1.4,0.4-2.4,1.5-2.7,2.5c-0.4,1-0.3,2-0.2,2.6c0.1,0.6,0.3,0.9,0.3,0.9c0,0-0.3-0.3-0.5-0.9c-0.2-0.6-0.3-1.6,0-2.8
								c0.3-1.1,1.4-2.4,2.9-2.8c0.8-0.2,1.6-0.3,2.5-0.1c0.8,0.2,1.6,0.6,2.4,1c0.8,0.3,1.6,0.6,2.3,0.4c0.7-0.1,1.3-0.7,1.7-1.3
								c0.8-1.2,0.7-2.7,0.4-3.7c-0.3-1.1-0.8-1.9-1.1-2.4C168.9,541.9,168.7,541.5,168.7,541.5z"/>
						</g>
					</g>
				</g>
				<g>
					<g>
						<g>
							<path class="st10" d="M128.6,610.1c0,0,0-0.1,0-0.3c0-0.2,0-0.5,0.1-0.8c0.1-0.7,0.2-1.7,0.3-2.9c0.3-2.6,0.6-6.3,1.1-10.8
								c1-9.1,2.3-21.6,3.8-35.5c0.3-3.5,0.5-6.9,0-10.1c-0.5-3.2-1.7-6.2-3.6-8.5c-1.8-2.4-4.1-4.2-6.4-5.5
								c-2.3-1.3-4.7-2.1-6.9-2.6c-4.4-1-8.2-0.9-10.7-0.7c-1.3,0.1-2.3,0.2-2.9,0.3c-0.3,0-0.6,0.1-0.8,0.1c-0.2,0-0.3,0-0.3,0
								c0,0,0.1,0,0.3-0.1c0.2,0,0.4-0.1,0.8-0.1c0.7-0.1,1.6-0.3,2.9-0.4c2.5-0.2,6.3-0.4,10.8,0.5c2.2,0.5,4.7,1.3,7,2.6
								c2.4,1.3,4.7,3.1,6.6,5.6c1.9,2.4,3.2,5.4,3.7,8.7c0.5,3.3,0.3,6.7,0,10.2c-1.5,13.8-2.9,26.4-4,35.5
								c-0.5,4.5-1,8.2-1.3,10.7c-0.2,1.2-0.3,2.2-0.4,2.9c0,0.3-0.1,0.6-0.1,0.8C128.6,610,128.6,610.1,128.6,610.1z"/>
						</g>
					</g>
				</g>
				<g>
					<g>
						<g>
							<path class="st10" d="M131.2,606.9c0,0.1-13.2,1.7-29.6,3.4c-16.4,1.7-29.7,3-29.7,2.9c0-0.1,13.2-1.7,29.6-3.4
								C117.9,608.1,131.2,606.8,131.2,606.9z"/>
						</g>
					</g>
				</g>
				<g>
					<g>
						<g>
							<path class="st10" d="M211.8,600.4c0,0,0-0.2,0.1-0.5c0.1-0.4,0.2-0.9,0.3-1.5c0.1-0.6,0.3-1.4,0.4-2.4
								c0.1-0.9,0.3-2,0.4-3.2c0-0.6,0.1-1.2,0.1-1.8c0-0.6,0-1.3,0-2c0.1-1.4,0-2.9-0.1-4.4c-0.2-3.1-0.7-6.5-1.6-10
								c-0.9-3.5-2.1-6.7-3.4-9.5c-0.7-1.4-1.3-2.7-2-3.9c-0.3-0.6-0.7-1.2-1-1.7c-0.3-0.5-0.7-1.1-1-1.6c-0.6-1-1.3-1.8-1.8-2.6
								c-0.5-0.8-1-1.4-1.5-1.9c-0.4-0.5-0.7-0.9-1-1.2c-0.2-0.3-0.3-0.4-0.3-0.4c0,0,0.1,0.1,0.4,0.4c0.3,0.3,0.6,0.7,1,1.1
								c0.5,0.5,1,1.1,1.6,1.9c0.6,0.7,1.3,1.6,1.9,2.6c0.3,0.5,0.7,1,1,1.5c0.4,0.5,0.7,1.1,1,1.7c0.7,1.2,1.4,2.5,2.1,3.9
								c1.3,2.9,2.5,6.1,3.4,9.6c0.9,3.5,1.3,7,1.6,10.1c0.1,1.6,0.1,3.1,0.1,4.5c0,0.7,0,1.4-0.1,2c-0.1,0.6-0.1,1.3-0.2,1.9
								c-0.1,1.2-0.3,2.2-0.4,3.2c-0.1,0.9-0.3,1.7-0.5,2.4c-0.2,0.6-0.3,1.1-0.4,1.5C211.8,600.2,211.8,600.4,211.8,600.4z"/>
						</g>
					</g>
				</g>
				<g>
					<g>
						<path class="st24" d="M365.3,600.7c-2-9.8,6.1-19.3,16.3-14.7c4.6,2.1,8.2,5.1,13.5,3.9c8.4-1.9,12.5-12.2,7-19
							c-0.7-0.8-1.8,0.2-1.4,1.1c2,4.2,2.6,9.1-0.7,12.8c-3.1,3.4-7.6,3.9-11.7,2.4c-4.8-1.8-8.1-4.9-13.5-4.1
							c-8.5,1.2-13.9,10.2-10.4,18.1C364.6,601.6,365.4,601.2,365.3,600.7L365.3,600.7z"/>
					</g>
				</g>
				<g>
					<g>
						<path class="st13" d="M388.5,448.6c2.1,4.4,5,8.4,7.9,12.3c1.1,1.5,2.5,3.7,4.6,3.8c2.1,0.1,4.2-2.1,5.8-3.2
							c4.2-3,8.4-6,12.6-9c0.4-0.3,0.6-0.8,0.3-1.3c-3.9-6-7.7-11.9-11.6-17.9c-0.3-0.4-0.9-0.7-1.3-0.3c-4.6,3.3-9.3,6.4-13.8,9.8
							c-0.9,0.7-0.1,2.2,0.9,1.6c2.6-1.7,5.2-3.6,7.7-5.4c2.1-1.5,4.3-4.2,6.4-2.3c2,1.8,3.3,5.1,4.7,7.3c1.1,1.7,4.9,5.7,4,7.9
							c-0.7,1.8-5.5,3.9-7.1,5c-2,1.4-4.8,4.5-7.1,5.1c-5.1,1.3-10.8-10.5-13.6-14C388.8,447.8,388.3,448.3,388.5,448.6L388.5,448.6
							z"/>
					</g>
				</g>
				<g>
					<g>
						<path class="st9" d="M333.4,505.1c-5.3,5.2-6.8,13.8-1.7,19.8c4.8,5.7,14.1,7,20,2.3c5.6-4.4,7.4-12.6,3.8-18.8
							c-4-7-12.9-9.7-20.5-8.6c-0.8,0.1-0.6,1.5,0.2,1.5c5.9-0.4,12.3,0.7,16.7,5c5,4.8,5.1,12.8,0.6,18c-4.8,5.5-13.5,5.7-18.8,0.6
							c-5.4-5.2-4.8-14.2,0.3-19.3C334.2,505.3,333.7,504.8,333.4,505.1L333.4,505.1z"/>
					</g>
				</g>
				<g>
					<g>
						<path class="st25" d="M474,558.8c-1.6,11-3.2,22-4.7,33c-0.1,0.7,0.4,1.1,1,1c10.3-1.6,20.5-3.2,30.8-5
							c0.5-0.1,0.7-0.7,0.5-1.2c-5.9-10.6-13.3-21.5-23.2-28.8c-0.8-0.6-1.7,0.7-1,1.4c7.5,7.6,14.7,14.7,20.4,23.9
							c1.6,2.6,2.3,3.1-0.9,3.7c-2.8,0.6-5.8,0.9-8.7,1.3c-6.1,1-12.2,2-18.3,3c0.4,0.3,0.7,0.5,1.1,0.8c1.4-11,2.8-22,4.1-33.1
							C475.2,558.3,474.1,558.2,474,558.8L474,558.8z"/>
					</g>
				</g>
				<g>
					<g>
						<path class="st26" d="M423.7,537.7c1.5-10.8,3-21.8,4-32.7c0.1-0.9-1.4-1.1-1.6-0.2c-1.5,10.9-2.5,21.8-3.5,32.7
							C422.6,538.2,423.6,538.3,423.7,537.7L423.7,537.7z"/>
					</g>
				</g>
				<g>
					<g>
						<path class="st13" d="M543,535c10.9,0.7,21.8,1.3,32.7,1.4c1,0,1-1.5,0-1.6c-10.9-0.6-21.8-0.8-32.7-0.8
							C542.3,534,542.3,535,543,535L543,535z"/>
					</g>
				</g>
				<g>
					<g>
						<path class="st25" d="M454.7,396.9c10,4.4,20.1,8.8,30.4,12.7c0.8,0.3,1.4-1.1,0.6-1.5c-10-4.4-20.3-8.4-30.6-12.2
							C454.6,395.7,454.2,396.6,454.7,396.9L454.7,396.9z"/>
					</g>
				</g>
				<g>
					<g>
						<path class="st10" d="M481.9,490.3c-0.2-0.3-0.5-0.6-0.8-0.8c-0.6-0.5-1.6-0.7-2.3,0c-0.6,0.7-0.6,1.6,0,2.3
							c0.3,0.3,0.5,0.5,0.8,0.8c0.5,0.4,1.5,0.2,2-0.3C482.1,491.8,482.4,490.9,481.9,490.3L481.9,490.3z"/>
					</g>
				</g>
			</g>
		</g>
	</g>
	<g>
		<path class="st2" d="M246.7,289.9c-11.2,3.7-20.4,12.7-24.5,23.7c-4,11-2.8,23.8,3.1,34c11.4,19.6,40.5,25.9,58.9,12.7
			c18.4-13.1,22-42.8,7.2-59.9c-14.8-17.1-44.6-17.9-60.3-1.6"/>
	</g>
</g>
</svg>
